<?xml version="1.0" standalone="no"?>
<!DOCTYPE svg PUBLIC "-//W3C//DTD SVG 1.1//EN" "http://www.w3.org/Graphics/SVG/1.1/DTD/svg11.dtd" >
<svg>
<metadata>
Created by FontForge 20110222 at Mon Mar  7 11:55:29 2011
 By www-data
Copyright (c) 2007 by George Triantafyllakos. All rights reserved.
</metadata>
<defs>
<font id="BPdots-Bold" horiz-adv-x="600" >
  <font-face 
    font-family="BPdots"
    font-weight="700"
    font-stretch="normal"
    units-per-em="1000"
    panose-1="2 0 5 9 0 0 0 2 0 4"
    ascent="800"
    descent="-200"
    x-height="490"
    cap-height="690"
    bbox="-15 -215 590 1115"
    underline-thickness="50"
    underline-position="-50"
    unicode-range="U+0020-2122"
  />
    <missing-glyph />
    <glyph glyph-name="space" unicode=" " 
 />
    <glyph glyph-name="E" unicode="E" 
d="M-15 637c0 29 22 53 52 53c23 0 43 -16 50 -37c7 21 26 37 50 37c23 0 43 -16 50 -37c7 21 26 37 50 37c23 0 43 -16 50 -37c7 21 26 37 50 37c23 0 43 -16 50 -37c7 21 26 37 50 37c29 0 53 -24 53 -53c0 -30 -24 -52 -53 -52c-24 0 -43 14 -50 35
c-7 -21 -27 -35 -50 -35c-24 0 -43 14 -50 35c-7 -21 -27 -35 -50 -35c-24 0 -43 14 -50 35c-7 -21 -27 -35 -50 -35c-24 0 -43 14 -50 35c-5 -16 -18 -28 -34 -33c21 -7 37 -27 37 -50c0 -24 -16 -43 -37 -50c21 -7 37 -27 37 -50c0 -24 -16 -43 -37 -50
c16 -5 29 -18 34 -34c7 21 26 37 50 37c23 0 43 -16 50 -37c7 21 26 37 50 37c23 0 43 -16 50 -37c7 21 26 37 50 37c29 0 53 -24 53 -53c0 -30 -24 -52 -53 -52c-24 0 -43 14 -50 35c-7 -21 -27 -35 -50 -35c-24 0 -43 14 -50 35c-7 -21 -27 -35 -50 -35
c-24 0 -43 14 -50 35c-5 -16 -18 -28 -34 -33c21 -7 37 -27 37 -50c0 -24 -16 -43 -37 -50c21 -7 37 -27 37 -50c0 -24 -16 -43 -37 -50c16 -5 29 -18 34 -34c7 21 26 37 50 37c23 0 43 -16 50 -37c7 21 26 37 50 37c23 0 43 -16 50 -37c7 21 26 37 50 37
c23 0 43 -16 50 -37c7 21 26 37 50 37c29 0 53 -24 53 -53c0 -30 -24 -52 -53 -52c-24 0 -43 14 -50 35c-7 -21 -27 -35 -50 -35c-24 0 -43 14 -50 35c-7 -21 -27 -35 -50 -35c-24 0 -43 14 -50 35c-7 -21 -27 -35 -50 -35c-24 0 -43 14 -50 35c-7 -21 -27 -35 -50 -35
c-30 0 -52 22 -52 52c0 23 14 43 35 50c-21 7 -35 26 -35 50c0 23 14 43 35 50c-21 7 -35 26 -35 50c0 23 14 43 35 50c-21 7 -35 26 -35 50c0 23 14 43 35 50c-21 7 -35 26 -35 50c0 23 14 43 35 50c-21 7 -35 26 -35 50c0 23 14 43 35 50c-21 7 -35 26 -35 50z" />
    <glyph glyph-name="F" unicode="F" 
d="M-15 637c0 29 22 53 52 53c23 0 43 -16 50 -37c7 21 26 37 50 37c23 0 43 -16 50 -37c7 21 26 37 50 37c23 0 43 -16 50 -37c7 21 26 37 50 37c23 0 43 -16 50 -37c7 21 26 37 50 37c29 0 53 -24 53 -53c0 -30 -24 -52 -53 -52c-24 0 -43 14 -50 35
c-7 -21 -27 -35 -50 -35c-24 0 -43 14 -50 35c-7 -21 -27 -35 -50 -35c-24 0 -43 14 -50 35c-7 -21 -27 -35 -50 -35c-24 0 -43 14 -50 35c-5 -16 -18 -28 -34 -33c21 -7 37 -27 37 -50c0 -24 -16 -43 -37 -50c21 -7 37 -27 37 -50c0 -24 -16 -43 -37 -50
c16 -5 29 -18 34 -34c7 21 26 37 50 37c23 0 43 -16 50 -37c7 21 26 37 50 37c23 0 43 -16 50 -37c7 21 26 37 50 37c29 0 53 -24 53 -53c0 -30 -24 -52 -53 -52c-24 0 -43 14 -50 35c-7 -21 -27 -35 -50 -35c-24 0 -43 14 -50 35c-7 -21 -27 -35 -50 -35
c-24 0 -43 14 -50 35c-5 -16 -18 -28 -34 -33c21 -7 37 -27 37 -50c0 -24 -16 -43 -37 -50c21 -7 37 -27 37 -50c0 -24 -16 -43 -37 -50c21 -7 37 -27 37 -50c0 -30 -24 -52 -53 -52c-30 0 -52 22 -52 52c0 23 14 43 35 50c-21 7 -35 26 -35 50c0 23 14 43 35 50
c-21 7 -35 26 -35 50c0 23 14 43 35 50c-21 7 -35 26 -35 50c0 23 14 43 35 50c-21 7 -35 26 -35 50c0 23 14 43 35 50c-21 7 -35 26 -35 50c0 23 14 43 35 50c-21 7 -35 26 -35 50z" />
    <glyph glyph-name="G" unicode="G" 
d="M285 237c0 29 22 53 52 53c23 0 43 -16 50 -37c7 21 26 37 50 37c29 0 53 -24 53 -53c0 -24 -16 -43 -37 -50c21 -7 37 -27 37 -50c0 -24 -16 -43 -37 -50c21 -7 37 -27 37 -50c0 -30 -24 -52 -53 -52c-24 0 -43 14 -50 35c-7 -21 -27 -35 -50 -35c-24 0 -43 14 -50 35
c-7 -21 -27 -35 -50 -35c-24 0 -43 14 -50 35c-7 -21 -27 -35 -50 -35c-30 0 -52 22 -52 52c0 29 22 53 52 53c23 0 43 -16 50 -37c7 21 26 37 50 37c23 0 43 -16 50 -37c7 21 26 37 50 37c23 0 43 -16 50 -37c5 16 17 29 33 34c-21 7 -35 26 -35 50c0 23 14 43 35 50
c-16 5 -28 17 -33 33c-7 -21 -27 -35 -50 -35c-30 0 -52 22 -52 52zM-15 537c0 29 22 53 52 53c29 0 53 -24 53 -53c0 -24 -16 -43 -37 -50c21 -7 37 -27 37 -50c0 -24 -16 -43 -37 -50c21 -7 37 -27 37 -50c0 -24 -16 -43 -37 -50c21 -7 37 -27 37 -50
c0 -24 -16 -43 -37 -50c21 -7 37 -27 37 -50c0 -30 -24 -52 -53 -52c-30 0 -52 22 -52 52c0 23 14 43 35 50c-21 7 -35 26 -35 50c0 23 14 43 35 50c-21 7 -35 26 -35 50c0 23 14 43 35 50c-21 7 -35 26 -35 50c0 23 14 43 35 50c-21 7 -35 26 -35 50zM85 637
c0 29 22 53 52 53c23 0 43 -16 50 -37c7 21 26 37 50 37c23 0 43 -16 50 -37c7 21 26 37 50 37c29 0 53 -24 53 -53c0 -30 -24 -52 -53 -52c-24 0 -43 14 -50 35c-7 -21 -27 -35 -50 -35c-24 0 -43 14 -50 35c-7 -21 -27 -35 -50 -35c-30 0 -52 22 -52 52zM385 537
c0 29 22 53 52 53c29 0 53 -24 53 -53c0 -30 -24 -52 -53 -52c-30 0 -52 22 -52 52z" />
    <glyph glyph-name="H" unicode="H" 
d="M385 237c0 23 14 43 35 50c-16 5 -28 17 -33 33c-7 -21 -27 -35 -50 -35c-24 0 -43 14 -50 35c-7 -21 -27 -35 -50 -35c-24 0 -43 14 -50 35c-7 -21 -27 -35 -50 -35c-24 0 -43 14 -50 35c-5 -16 -18 -28 -34 -33c21 -7 37 -27 37 -50c0 -24 -16 -43 -37 -50
c21 -7 37 -27 37 -50c0 -24 -16 -43 -37 -50c21 -7 37 -27 37 -50c0 -30 -24 -52 -53 -52c-30 0 -52 22 -52 52c0 23 14 43 35 50c-21 7 -35 26 -35 50c0 23 14 43 35 50c-21 7 -35 26 -35 50c0 23 14 43 35 50c-21 7 -35 26 -35 50c0 23 14 43 35 50c-21 7 -35 26 -35 50
c0 23 14 43 35 50c-21 7 -35 26 -35 50c0 23 14 43 35 50c-21 7 -35 26 -35 50c0 29 22 53 52 53c29 0 53 -24 53 -53c0 -24 -16 -43 -37 -50c21 -7 37 -27 37 -50c0 -24 -16 -43 -37 -50c21 -7 37 -27 37 -50c0 -24 -16 -43 -37 -50c16 -5 29 -18 34 -34c7 21 26 37 50 37
c23 0 43 -16 50 -37c7 21 26 37 50 37c23 0 43 -16 50 -37c7 21 26 37 50 37c23 0 43 -16 50 -37c5 16 17 29 33 34c-21 7 -35 26 -35 50c0 23 14 43 35 50c-21 7 -35 26 -35 50c0 23 14 43 35 50c-21 7 -35 26 -35 50c0 29 22 53 52 53c29 0 53 -24 53 -53
c0 -24 -16 -43 -37 -50c21 -7 37 -27 37 -50c0 -24 -16 -43 -37 -50c21 -7 37 -27 37 -50c0 -24 -16 -43 -37 -50c21 -7 37 -27 37 -50c0 -24 -16 -43 -37 -50c21 -7 37 -27 37 -50c0 -24 -16 -43 -37 -50c21 -7 37 -27 37 -50c0 -24 -16 -43 -37 -50c21 -7 37 -27 37 -50
c0 -30 -24 -52 -53 -52c-30 0 -52 22 -52 52c0 23 14 43 35 50c-21 7 -35 26 -35 50c0 23 14 43 35 50c-21 7 -35 26 -35 50z" />
    <glyph glyph-name="I" unicode="I" 
d="M-15 637c0 29 22 53 52 53c23 0 43 -16 50 -37c7 21 26 37 50 37c23 0 43 -16 50 -37c7 21 26 37 50 37c23 0 43 -16 50 -37c7 21 26 37 50 37c23 0 43 -16 50 -37c7 21 26 37 50 37c29 0 53 -24 53 -53c0 -30 -24 -52 -53 -52c-24 0 -43 14 -50 35
c-7 -21 -27 -35 -50 -35c-24 0 -43 14 -50 35c-5 -16 -18 -28 -34 -33c21 -7 37 -27 37 -50c0 -24 -16 -43 -37 -50c21 -7 37 -27 37 -50c0 -24 -16 -43 -37 -50c21 -7 37 -27 37 -50c0 -24 -16 -43 -37 -50c21 -7 37 -27 37 -50c0 -24 -16 -43 -37 -50c21 -7 37 -27 37 -50
c0 -24 -16 -43 -37 -50c16 -5 29 -18 34 -34c7 21 26 37 50 37c23 0 43 -16 50 -37c7 21 26 37 50 37c29 0 53 -24 53 -53c0 -30 -24 -52 -53 -52c-24 0 -43 14 -50 35c-7 -21 -27 -35 -50 -35c-24 0 -43 14 -50 35c-7 -21 -27 -35 -50 -35c-24 0 -43 14 -50 35
c-7 -21 -27 -35 -50 -35c-24 0 -43 14 -50 35c-7 -21 -27 -35 -50 -35c-30 0 -52 22 -52 52c0 29 22 53 52 53c23 0 43 -16 50 -37c7 21 26 37 50 37c23 0 43 -16 50 -37c5 16 17 29 33 34c-21 7 -35 26 -35 50c0 23 14 43 35 50c-21 7 -35 26 -35 50c0 23 14 43 35 50
c-21 7 -35 26 -35 50c0 23 14 43 35 50c-21 7 -35 26 -35 50c0 23 14 43 35 50c-21 7 -35 26 -35 50c0 23 14 43 35 50c-16 5 -28 17 -33 33c-7 -21 -27 -35 -50 -35c-24 0 -43 14 -50 35c-7 -21 -27 -35 -50 -35c-30 0 -52 22 -52 52z" />
    <glyph glyph-name="J" unicode="J" 
d="M-15 637c0 29 22 53 52 53c23 0 43 -16 50 -37c7 21 26 37 50 37c23 0 43 -16 50 -37c7 21 26 37 50 37c23 0 43 -16 50 -37c7 21 26 37 50 37c29 0 53 -24 53 -53c0 -24 -16 -43 -37 -50c21 -7 37 -27 37 -50c0 -24 -16 -43 -37 -50c21 -7 37 -27 37 -50
c0 -24 -16 -43 -37 -50c21 -7 37 -27 37 -50c0 -24 -16 -43 -37 -50c21 -7 37 -27 37 -50c0 -24 -16 -43 -37 -50c21 -7 37 -27 37 -50c0 -30 -24 -52 -53 -52c-30 0 -52 22 -52 52c0 23 14 43 35 50c-21 7 -35 26 -35 50c0 23 14 43 35 50c-21 7 -35 26 -35 50
c0 23 14 43 35 50c-21 7 -35 26 -35 50c0 23 14 43 35 50c-21 7 -35 26 -35 50c0 23 14 43 35 50c-16 5 -28 17 -33 33c-7 -21 -27 -35 -50 -35c-24 0 -43 14 -50 35c-7 -21 -27 -35 -50 -35c-24 0 -43 14 -50 35c-7 -21 -27 -35 -50 -35c-30 0 -52 22 -52 52zM85 37
c0 29 22 53 52 53c23 0 43 -16 50 -37c7 21 26 37 50 37c29 0 53 -24 53 -53c0 -30 -24 -52 -53 -52c-24 0 -43 14 -50 35c-7 -21 -27 -35 -50 -35c-30 0 -52 22 -52 52zM-15 137c0 29 22 53 52 53c29 0 53 -24 53 -53c0 -30 -24 -52 -53 -52c-30 0 -52 22 -52 52z" />
    <glyph glyph-name="K" unicode="K" 
d="M-15 637c0 29 22 53 52 53c29 0 53 -24 53 -53c0 -24 -16 -43 -37 -50c21 -7 37 -27 37 -50c0 -24 -16 -43 -37 -50c21 -7 37 -27 37 -50c0 -24 -16 -43 -37 -50c16 -5 29 -18 34 -34c7 21 26 37 50 37c23 0 43 -16 50 -37c7 21 26 37 50 37c29 0 53 -24 53 -53
c0 -30 -24 -52 -53 -52c-24 0 -43 14 -50 35c-7 -21 -27 -35 -50 -35c-24 0 -43 14 -50 35c-5 -16 -18 -28 -34 -33c21 -7 37 -27 37 -50c0 -24 -16 -43 -37 -50c21 -7 37 -27 37 -50c0 -24 -16 -43 -37 -50c21 -7 37 -27 37 -50c0 -30 -24 -52 -53 -52c-30 0 -52 22 -52 52
c0 23 14 43 35 50c-21 7 -35 26 -35 50c0 23 14 43 35 50c-21 7 -35 26 -35 50c0 23 14 43 35 50c-21 7 -35 26 -35 50c0 23 14 43 35 50c-21 7 -35 26 -35 50c0 23 14 43 35 50c-21 7 -35 26 -35 50c0 23 14 43 35 50c-21 7 -35 26 -35 50zM385 637c0 29 22 53 52 53
c29 0 53 -24 53 -53c0 -24 -16 -43 -37 -50c21 -7 37 -27 37 -50c0 -30 -24 -52 -53 -52c-30 0 -52 22 -52 52c0 23 14 43 35 50c-21 7 -35 26 -35 50zM385 37c0 23 14 43 35 50c-21 7 -35 26 -35 50c0 29 22 53 52 53c29 0 53 -24 53 -53c0 -24 -16 -43 -37 -50
c21 -7 37 -27 37 -50c0 -30 -24 -52 -53 -52c-30 0 -52 22 -52 52zM285 237c0 29 22 53 52 53c29 0 53 -24 53 -53c0 -30 -24 -52 -53 -52c-30 0 -52 22 -52 52zM285 437c0 29 22 53 52 53c29 0 53 -24 53 -53c0 -30 -24 -52 -53 -52c-30 0 -52 22 -52 52z" />
    <glyph glyph-name="L" unicode="L" 
d="M-15 637c0 29 22 53 52 53c29 0 53 -24 53 -53c0 -24 -16 -43 -37 -50c21 -7 37 -27 37 -50c0 -24 -16 -43 -37 -50c21 -7 37 -27 37 -50c0 -24 -16 -43 -37 -50c21 -7 37 -27 37 -50c0 -24 -16 -43 -37 -50c21 -7 37 -27 37 -50c0 -24 -16 -43 -37 -50
c21 -7 37 -27 37 -50c0 -24 -16 -43 -37 -50c16 -5 29 -18 34 -34c7 21 26 37 50 37c23 0 43 -16 50 -37c7 21 26 37 50 37c23 0 43 -16 50 -37c7 21 26 37 50 37c23 0 43 -16 50 -37c7 21 26 37 50 37c29 0 53 -24 53 -53c0 -30 -24 -52 -53 -52c-24 0 -43 14 -50 35
c-7 -21 -27 -35 -50 -35c-24 0 -43 14 -50 35c-7 -21 -27 -35 -50 -35c-24 0 -43 14 -50 35c-7 -21 -27 -35 -50 -35c-24 0 -43 14 -50 35c-7 -21 -27 -35 -50 -35c-30 0 -52 22 -52 52c0 23 14 43 35 50c-21 7 -35 26 -35 50c0 23 14 43 35 50c-21 7 -35 26 -35 50
c0 23 14 43 35 50c-21 7 -35 26 -35 50c0 23 14 43 35 50c-21 7 -35 26 -35 50c0 23 14 43 35 50c-21 7 -35 26 -35 50c0 23 14 43 35 50c-21 7 -35 26 -35 50z" />
    <glyph glyph-name="M" unicode="M" 
d="M-15 637c0 29 22 53 52 53c29 0 53 -24 53 -53c0 -24 -16 -43 -37 -50c16 -5 29 -18 34 -34c7 21 26 37 50 37c29 0 53 -24 53 -53c0 -24 -16 -43 -37 -50c21 -7 37 -27 37 -50c0 -30 -24 -52 -53 -52c-24 0 -43 14 -50 35c-5 -16 -18 -28 -34 -33c21 -7 37 -27 37 -50
c0 -24 -16 -43 -37 -50c21 -7 37 -27 37 -50c0 -24 -16 -43 -37 -50c21 -7 37 -27 37 -50c0 -24 -16 -43 -37 -50c21 -7 37 -27 37 -50c0 -30 -24 -52 -53 -52c-30 0 -52 22 -52 52c0 23 14 43 35 50c-21 7 -35 26 -35 50c0 23 14 43 35 50c-21 7 -35 26 -35 50
c0 23 14 43 35 50c-21 7 -35 26 -35 50c0 23 14 43 35 50c-21 7 -35 26 -35 50c0 23 14 43 35 50c-21 7 -35 26 -35 50c0 23 14 43 35 50c-21 7 -35 26 -35 50zM385 637c0 29 22 53 52 53c29 0 53 -24 53 -53c0 -24 -16 -43 -37 -50c21 -7 37 -27 37 -50
c0 -24 -16 -43 -37 -50c21 -7 37 -27 37 -50c0 -24 -16 -43 -37 -50c21 -7 37 -27 37 -50c0 -24 -16 -43 -37 -50c21 -7 37 -27 37 -50c0 -24 -16 -43 -37 -50c21 -7 37 -27 37 -50c0 -24 -16 -43 -37 -50c21 -7 37 -27 37 -50c0 -30 -24 -52 -53 -52c-30 0 -52 22 -52 52
c0 23 14 43 35 50c-21 7 -35 26 -35 50c0 23 14 43 35 50c-21 7 -35 26 -35 50c0 23 14 43 35 50c-21 7 -35 26 -35 50c0 23 14 43 35 50c-16 5 -28 17 -33 33c-7 -21 -27 -35 -50 -35c-30 0 -52 22 -52 52c0 23 14 43 35 50c-21 7 -35 26 -35 50c0 29 22 53 52 53
c23 0 43 -16 50 -37c5 16 17 29 33 34c-21 7 -35 26 -35 50zM185 337c0 29 22 53 52 53c29 0 53 -24 53 -53c0 -24 -16 -43 -37 -50c21 -7 37 -27 37 -50c0 -30 -24 -52 -53 -52c-30 0 -52 22 -52 52c0 23 14 43 35 50c-21 7 -35 26 -35 50zM353 487c16 -5 29 -18 34 -34
c5 16 17 29 33 34c-16 5 -28 17 -33 33c-5 -16 -18 -28 -34 -33zM53 487c16 -5 29 -18 34 -34c5 16 17 29 33 34c-16 5 -28 17 -33 33c-5 -16 -18 -28 -34 -33z" />
    <glyph glyph-name="N" unicode="N" 
d="M-15 637c0 29 22 53 52 53c29 0 53 -24 53 -53c0 -24 -16 -43 -37 -50c16 -5 29 -18 34 -34c7 21 26 37 50 37c29 0 53 -24 53 -53c0 -30 -24 -52 -53 -52c-24 0 -43 14 -50 35c-5 -16 -18 -28 -34 -33c21 -7 37 -27 37 -50c0 -24 -16 -43 -37 -50c21 -7 37 -27 37 -50
c0 -24 -16 -43 -37 -50c21 -7 37 -27 37 -50c0 -24 -16 -43 -37 -50c21 -7 37 -27 37 -50c0 -24 -16 -43 -37 -50c21 -7 37 -27 37 -50c0 -30 -24 -52 -53 -52c-30 0 -52 22 -52 52c0 23 14 43 35 50c-21 7 -35 26 -35 50c0 23 14 43 35 50c-21 7 -35 26 -35 50
c0 23 14 43 35 50c-21 7 -35 26 -35 50c0 23 14 43 35 50c-21 7 -35 26 -35 50c0 23 14 43 35 50c-21 7 -35 26 -35 50c0 23 14 43 35 50c-21 7 -35 26 -35 50zM385 637c0 29 22 53 52 53c29 0 53 -24 53 -53c0 -24 -16 -43 -37 -50c21 -7 37 -27 37 -50
c0 -24 -16 -43 -37 -50c21 -7 37 -27 37 -50c0 -24 -16 -43 -37 -50c21 -7 37 -27 37 -50c0 -24 -16 -43 -37 -50c21 -7 37 -27 37 -50c0 -24 -16 -43 -37 -50c21 -7 37 -27 37 -50c0 -24 -16 -43 -37 -50c21 -7 37 -27 37 -50c0 -30 -24 -52 -53 -52c-30 0 -52 22 -52 52
c0 23 14 43 35 50c-21 7 -35 26 -35 50c0 23 14 43 35 50c-16 5 -28 17 -33 33c-7 -21 -27 -35 -50 -35c-30 0 -52 22 -52 52c0 29 22 53 52 53c23 0 43 -16 50 -37c5 16 17 29 33 34c-21 7 -35 26 -35 50c0 23 14 43 35 50c-21 7 -35 26 -35 50c0 23 14 43 35 50
c-21 7 -35 26 -35 50c0 23 14 43 35 50c-21 7 -35 26 -35 50zM185 437c0 29 22 53 52 53c29 0 53 -24 53 -53c0 -24 -16 -43 -37 -50c21 -7 37 -27 37 -50c0 -30 -24 -52 -53 -52c-30 0 -52 22 -52 52c0 23 14 43 35 50c-21 7 -35 26 -35 50z" />
    <glyph glyph-name="P" unicode="P" 
d="M-15 637c0 29 22 53 52 53c23 0 43 -16 50 -37c7 21 26 37 50 37c23 0 43 -16 50 -37c7 21 26 37 50 37c23 0 43 -16 50 -37c7 21 26 37 50 37c29 0 53 -24 53 -53c0 -30 -24 -52 -53 -52c-24 0 -43 14 -50 35c-7 -21 -27 -35 -50 -35c-24 0 -43 14 -50 35
c-7 -21 -27 -35 -50 -35c-24 0 -43 14 -50 35c-5 -16 -18 -28 -34 -33c21 -7 37 -27 37 -50c0 -24 -16 -43 -37 -50c21 -7 37 -27 37 -50c0 -24 -16 -43 -37 -50c21 -7 37 -27 37 -50c0 -24 -16 -43 -37 -50c16 -5 29 -18 34 -34c7 21 26 37 50 37c23 0 43 -16 50 -37
c7 21 26 37 50 37c23 0 43 -16 50 -37c7 21 26 37 50 37c29 0 53 -24 53 -53c0 -30 -24 -52 -53 -52c-24 0 -43 14 -50 35c-7 -21 -27 -35 -50 -35c-24 0 -43 14 -50 35c-7 -21 -27 -35 -50 -35c-24 0 -43 14 -50 35c-5 -16 -18 -28 -34 -33c21 -7 37 -27 37 -50
c0 -24 -16 -43 -37 -50c21 -7 37 -27 37 -50c0 -30 -24 -52 -53 -52c-30 0 -52 22 -52 52c0 23 14 43 35 50c-21 7 -35 26 -35 50c0 23 14 43 35 50c-21 7 -35 26 -35 50c0 23 14 43 35 50c-21 7 -35 26 -35 50c0 23 14 43 35 50c-21 7 -35 26 -35 50c0 23 14 43 35 50
c-21 7 -35 26 -35 50c0 23 14 43 35 50c-21 7 -35 26 -35 50zM385 537c0 29 22 53 52 53c29 0 53 -24 53 -53c0 -24 -16 -43 -37 -50c21 -7 37 -27 37 -50c0 -24 -16 -43 -37 -50c21 -7 37 -27 37 -50c0 -30 -24 -52 -53 -52c-30 0 -52 22 -52 52c0 23 14 43 35 50
c-21 7 -35 26 -35 50c0 23 14 43 35 50c-21 7 -35 26 -35 50z" />
    <glyph glyph-name="Q" unicode="Q" 
d="M185 -63c0 23 14 44 35 51c-16 5 -28 16 -33 32c-7 -21 -27 -35 -50 -35c-30 0 -52 22 -52 52c0 29 22 53 52 53c23 0 43 -16 50 -37c5 16 17 29 33 34c-21 7 -35 26 -35 50c0 29 22 53 52 53c29 0 53 -24 53 -53c0 -24 -16 -43 -37 -50c16 -5 29 -18 34 -34
c7 21 26 37 50 37c29 0 53 -24 53 -53c0 -30 -24 -52 -53 -52c-24 0 -43 14 -50 35c-5 -16 -18 -27 -34 -32c21 -7 37 -28 37 -51c0 -30 -24 -52 -53 -52c-30 0 -52 22 -52 52zM385 537c0 29 22 53 52 53c29 0 53 -24 53 -53c0 -24 -16 -43 -37 -50c21 -7 37 -27 37 -50
c0 -24 -16 -43 -37 -50c21 -7 37 -27 37 -50c0 -24 -16 -43 -37 -50c21 -7 37 -27 37 -50c0 -24 -16 -43 -37 -50c21 -7 37 -27 37 -50c0 -30 -24 -52 -53 -52c-30 0 -52 22 -52 52c0 23 14 43 35 50c-21 7 -35 26 -35 50c0 23 14 43 35 50c-21 7 -35 26 -35 50
c0 23 14 43 35 50c-21 7 -35 26 -35 50c0 23 14 43 35 50c-21 7 -35 26 -35 50zM-15 537c0 29 22 53 52 53c29 0 53 -24 53 -53c0 -24 -16 -43 -37 -50c21 -7 37 -27 37 -50c0 -24 -16 -43 -37 -50c21 -7 37 -27 37 -50c0 -24 -16 -43 -37 -50c21 -7 37 -27 37 -50
c0 -24 -16 -43 -37 -50c21 -7 37 -27 37 -50c0 -30 -24 -52 -53 -52c-30 0 -52 22 -52 52c0 23 14 43 35 50c-21 7 -35 26 -35 50c0 23 14 43 35 50c-21 7 -35 26 -35 50c0 23 14 43 35 50c-21 7 -35 26 -35 50c0 23 14 43 35 50c-21 7 -35 26 -35 50zM85 637
c0 29 22 53 52 53c23 0 43 -16 50 -37c7 21 26 37 50 37c23 0 43 -16 50 -37c7 21 26 37 50 37c29 0 53 -24 53 -53c0 -30 -24 -52 -53 -52c-24 0 -43 14 -50 35c-7 -21 -27 -35 -50 -35c-24 0 -43 14 -50 35c-7 -21 -27 -35 -50 -35c-30 0 -52 22 -52 52zM285 -163
c0 29 22 53 52 53c29 0 53 -24 53 -53c0 -30 -24 -52 -53 -52c-30 0 -52 22 -52 52z" />
    <glyph glyph-name="R" unicode="R" 
d="M285 237c0 23 14 43 35 50c-16 5 -28 17 -33 33c-7 -21 -27 -35 -50 -35c-24 0 -43 14 -50 35c-7 -21 -27 -35 -50 -35c-24 0 -43 14 -50 35c-5 -16 -18 -28 -34 -33c21 -7 37 -27 37 -50c0 -24 -16 -43 -37 -50c21 -7 37 -27 37 -50c0 -24 -16 -43 -37 -50
c21 -7 37 -27 37 -50c0 -30 -24 -52 -53 -52c-30 0 -52 22 -52 52c0 23 14 43 35 50c-21 7 -35 26 -35 50c0 23 14 43 35 50c-21 7 -35 26 -35 50c0 23 14 43 35 50c-21 7 -35 26 -35 50c0 23 14 43 35 50c-21 7 -35 26 -35 50c0 23 14 43 35 50c-21 7 -35 26 -35 50
c0 23 14 43 35 50c-21 7 -35 26 -35 50c0 29 22 53 52 53c23 0 43 -16 50 -37c7 21 26 37 50 37c23 0 43 -16 50 -37c7 21 26 37 50 37c23 0 43 -16 50 -37c7 21 26 37 50 37c29 0 53 -24 53 -53c0 -30 -24 -52 -53 -52c-24 0 -43 14 -50 35c-7 -21 -27 -35 -50 -35
c-24 0 -43 14 -50 35c-7 -21 -27 -35 -50 -35c-24 0 -43 14 -50 35c-5 -16 -18 -28 -34 -33c21 -7 37 -27 37 -50c0 -24 -16 -43 -37 -50c21 -7 37 -27 37 -50c0 -24 -16 -43 -37 -50c16 -5 29 -18 34 -34c7 21 26 37 50 37c23 0 43 -16 50 -37c7 21 26 37 50 37
c23 0 43 -16 50 -37c7 21 26 37 50 37c29 0 53 -24 53 -53c0 -24 -16 -43 -37 -50c21 -7 37 -27 37 -50c0 -30 -24 -52 -53 -52c-30 0 -52 22 -52 52zM385 137c0 29 22 53 52 53c29 0 53 -24 53 -53c0 -24 -16 -43 -37 -50c21 -7 37 -27 37 -50c0 -30 -24 -52 -53 -52
c-30 0 -52 22 -52 52c0 23 14 43 35 50c-21 7 -35 26 -35 50zM385 537c0 29 22 53 52 53c29 0 53 -24 53 -53c0 -24 -16 -43 -37 -50c21 -7 37 -27 37 -50c0 -30 -24 -52 -53 -52c-30 0 -52 22 -52 52c0 23 14 43 35 50c-21 7 -35 26 -35 50z" />
    <glyph glyph-name="S" unicode="S" 
d="M-15 37c0 29 22 53 52 53c23 0 43 -16 50 -37c7 21 26 37 50 37c23 0 43 -16 50 -37c7 21 26 37 50 37c23 0 43 -16 50 -37c7 21 26 37 50 37c29 0 53 -24 53 -53c0 -30 -24 -52 -53 -52c-24 0 -43 14 -50 35c-7 -21 -27 -35 -50 -35c-24 0 -43 14 -50 35
c-7 -21 -27 -35 -50 -35c-24 0 -43 14 -50 35c-7 -21 -27 -35 -50 -35c-30 0 -52 22 -52 52zM85 637c0 29 22 53 52 53c23 0 43 -16 50 -37c7 21 26 37 50 37c23 0 43 -16 50 -37c7 21 26 37 50 37c23 0 43 -16 50 -37c7 21 26 37 50 37c29 0 53 -24 53 -53
c0 -30 -24 -52 -53 -52c-24 0 -43 14 -50 35c-7 -21 -27 -35 -50 -35c-24 0 -43 14 -50 35c-7 -21 -27 -35 -50 -35c-24 0 -43 14 -50 35c-7 -21 -27 -35 -50 -35c-30 0 -52 22 -52 52zM85 337c0 29 22 53 52 53c23 0 43 -16 50 -37c7 21 26 37 50 37c23 0 43 -16 50 -37
c7 21 26 37 50 37c29 0 53 -24 53 -53c0 -30 -24 -52 -53 -52c-24 0 -43 14 -50 35c-7 -21 -27 -35 -50 -35c-24 0 -43 14 -50 35c-7 -21 -27 -35 -50 -35c-30 0 -52 22 -52 52zM385 237c0 29 22 53 52 53c29 0 53 -24 53 -53c0 -24 -16 -43 -37 -50c21 -7 37 -27 37 -50
c0 -30 -24 -52 -53 -52c-30 0 -52 22 -52 52c0 23 14 43 35 50c-21 7 -35 26 -35 50zM-15 537c0 29 22 53 52 53c29 0 53 -24 53 -53c0 -24 -16 -43 -37 -50c21 -7 37 -27 37 -50c0 -30 -24 -52 -53 -52c-30 0 -52 22 -52 52c0 23 14 43 35 50c-21 7 -35 26 -35 50z" />
    <glyph glyph-name="T" unicode="T" 
d="M-15 637c0 29 22 53 52 53c23 0 43 -16 50 -37c7 21 26 37 50 37c23 0 43 -16 50 -37c7 21 26 37 50 37c23 0 43 -16 50 -37c7 21 26 37 50 37c23 0 43 -16 50 -37c7 21 26 37 50 37c29 0 53 -24 53 -53c0 -30 -24 -52 -53 -52c-24 0 -43 14 -50 35
c-7 -21 -27 -35 -50 -35c-24 0 -43 14 -50 35c-5 -16 -18 -28 -34 -33c21 -7 37 -27 37 -50c0 -24 -16 -43 -37 -50c21 -7 37 -27 37 -50c0 -24 -16 -43 -37 -50c21 -7 37 -27 37 -50c0 -24 -16 -43 -37 -50c21 -7 37 -27 37 -50c0 -24 -16 -43 -37 -50c21 -7 37 -27 37 -50
c0 -24 -16 -43 -37 -50c21 -7 37 -27 37 -50c0 -30 -24 -52 -53 -52c-30 0 -52 22 -52 52c0 23 14 43 35 50c-21 7 -35 26 -35 50c0 23 14 43 35 50c-21 7 -35 26 -35 50c0 23 14 43 35 50c-21 7 -35 26 -35 50c0 23 14 43 35 50c-21 7 -35 26 -35 50c0 23 14 43 35 50
c-21 7 -35 26 -35 50c0 23 14 43 35 50c-16 5 -28 17 -33 33c-7 -21 -27 -35 -50 -35c-24 0 -43 14 -50 35c-7 -21 -27 -35 -50 -35c-30 0 -52 22 -52 52z" />
    <glyph glyph-name="U" unicode="U" 
d="M-15 637c0 29 22 53 52 53c29 0 53 -24 53 -53c0 -24 -16 -43 -37 -50c21 -7 37 -27 37 -50c0 -24 -16 -43 -37 -50c21 -7 37 -27 37 -50c0 -24 -16 -43 -37 -50c21 -7 37 -27 37 -50c0 -24 -16 -43 -37 -50c21 -7 37 -27 37 -50c0 -24 -16 -43 -37 -50
c21 -7 37 -27 37 -50c0 -30 -24 -52 -53 -52c-30 0 -52 22 -52 52c0 23 14 43 35 50c-21 7 -35 26 -35 50c0 23 14 43 35 50c-21 7 -35 26 -35 50c0 23 14 43 35 50c-21 7 -35 26 -35 50c0 23 14 43 35 50c-21 7 -35 26 -35 50c0 23 14 43 35 50c-21 7 -35 26 -35 50z
M385 637c0 29 22 53 52 53c29 0 53 -24 53 -53c0 -24 -16 -43 -37 -50c21 -7 37 -27 37 -50c0 -24 -16 -43 -37 -50c21 -7 37 -27 37 -50c0 -24 -16 -43 -37 -50c21 -7 37 -27 37 -50c0 -24 -16 -43 -37 -50c21 -7 37 -27 37 -50c0 -24 -16 -43 -37 -50c21 -7 37 -27 37 -50
c0 -30 -24 -52 -53 -52c-30 0 -52 22 -52 52c0 23 14 43 35 50c-21 7 -35 26 -35 50c0 23 14 43 35 50c-21 7 -35 26 -35 50c0 23 14 43 35 50c-21 7 -35 26 -35 50c0 23 14 43 35 50c-21 7 -35 26 -35 50c0 23 14 43 35 50c-21 7 -35 26 -35 50zM85 37c0 29 22 53 52 53
c23 0 43 -16 50 -37c7 21 26 37 50 37c23 0 43 -16 50 -37c7 21 26 37 50 37c29 0 53 -24 53 -53c0 -30 -24 -52 -53 -52c-24 0 -43 14 -50 35c-7 -21 -27 -35 -50 -35c-24 0 -43 14 -50 35c-7 -21 -27 -35 -50 -35c-30 0 -52 22 -52 52z" />
    <glyph glyph-name="W" unicode="W" 
d="M-15 637c0 29 22 53 52 53c29 0 53 -24 53 -53c0 -24 -16 -43 -37 -50c21 -7 37 -27 37 -50c0 -24 -16 -43 -37 -50c21 -7 37 -27 37 -50c0 -24 -16 -43 -37 -50c21 -7 37 -27 37 -50c0 -24 -16 -43 -37 -50c21 -7 37 -27 37 -50c0 -30 -24 -52 -53 -52
c-30 0 -52 22 -52 52c0 23 14 43 35 50c-21 7 -35 26 -35 50c0 23 14 43 35 50c-21 7 -35 26 -35 50c0 23 14 43 35 50c-21 7 -35 26 -35 50c0 23 14 43 35 50c-21 7 -35 26 -35 50zM385 637c0 29 22 53 52 53c29 0 53 -24 53 -53c0 -24 -16 -43 -37 -50
c21 -7 37 -27 37 -50c0 -24 -16 -43 -37 -50c21 -7 37 -27 37 -50c0 -24 -16 -43 -37 -50c21 -7 37 -27 37 -50c0 -24 -16 -43 -37 -50c21 -7 37 -27 37 -50c0 -30 -24 -52 -53 -52c-30 0 -52 22 -52 52c0 23 14 43 35 50c-21 7 -35 26 -35 50c0 23 14 43 35 50
c-21 7 -35 26 -35 50c0 23 14 43 35 50c-21 7 -35 26 -35 50c0 23 14 43 35 50c-21 7 -35 26 -35 50zM185 537c0 29 22 53 52 53c29 0 53 -24 53 -53c0 -24 -16 -43 -37 -50c21 -7 37 -27 37 -50c0 -24 -16 -43 -37 -50c21 -7 37 -27 37 -50c0 -24 -16 -43 -37 -50
c21 -7 37 -27 37 -50c0 -30 -24 -52 -53 -52c-30 0 -52 22 -52 52c0 23 14 43 35 50c-21 7 -35 26 -35 50c0 23 14 43 35 50c-21 7 -35 26 -35 50c0 23 14 43 35 50c-21 7 -35 26 -35 50zM85 137c0 29 22 53 52 53c29 0 53 -24 53 -53c0 -24 -16 -43 -37 -50
c21 -7 37 -27 37 -50c0 -30 -24 -52 -53 -52c-30 0 -52 22 -52 52c0 23 14 43 35 50c-21 7 -35 26 -35 50zM285 137c0 29 22 53 52 53c29 0 53 -24 53 -53c0 -24 -16 -43 -37 -50c21 -7 37 -27 37 -50c0 -30 -24 -52 -53 -52c-30 0 -52 22 -52 52c0 23 14 43 35 50
c-21 7 -35 26 -35 50z" />
    <glyph glyph-name="V" unicode="V" 
d="M-15 637c0 29 22 53 52 53c29 0 53 -24 53 -53c0 -24 -16 -43 -37 -50c21 -7 37 -27 37 -50c0 -24 -16 -43 -37 -50c21 -7 37 -27 37 -50c0 -24 -16 -43 -37 -50c21 -7 37 -27 37 -50c0 -30 -24 -52 -53 -52c-30 0 -52 22 -52 52c0 23 14 43 35 50c-21 7 -35 26 -35 50
c0 23 14 43 35 50c-21 7 -35 26 -35 50c0 23 14 43 35 50c-21 7 -35 26 -35 50zM385 637c0 29 22 53 52 53c29 0 53 -24 53 -53c0 -24 -16 -43 -37 -50c21 -7 37 -27 37 -50c0 -24 -16 -43 -37 -50c21 -7 37 -27 37 -50c0 -24 -16 -43 -37 -50c21 -7 37 -27 37 -50
c0 -30 -24 -52 -53 -52c-30 0 -52 22 -52 52c0 23 14 43 35 50c-21 7 -35 26 -35 50c0 23 14 43 35 50c-21 7 -35 26 -35 50c0 23 14 43 35 50c-21 7 -35 26 -35 50zM285 237c0 29 22 53 52 53c29 0 53 -24 53 -53c0 -24 -16 -43 -37 -50c21 -7 37 -27 37 -50
c0 -30 -24 -52 -53 -52c-30 0 -52 22 -52 52c0 23 14 43 35 50c-21 7 -35 26 -35 50zM85 237c0 29 22 53 52 53c29 0 53 -24 53 -53c0 -24 -16 -43 -37 -50c21 -7 37 -27 37 -50c0 -30 -24 -52 -53 -52c-30 0 -52 22 -52 52c0 23 14 43 35 50c-21 7 -35 26 -35 50zM185 37
c0 29 22 53 52 53c29 0 53 -24 53 -53c0 -30 -24 -52 -53 -52c-30 0 -52 22 -52 52z" />
    <glyph glyph-name="X" unicode="X" 
d="M-15 137c0 29 22 53 52 53c29 0 53 -24 53 -53c0 -24 -16 -43 -37 -50c21 -7 37 -27 37 -50c0 -30 -24 -52 -53 -52c-30 0 -52 22 -52 52c0 23 14 43 35 50c-21 7 -35 26 -35 50zM-15 537c0 23 14 43 35 50c-21 7 -35 26 -35 50c0 29 22 53 52 53c29 0 53 -24 53 -53
c0 -24 -16 -43 -37 -50c21 -7 37 -27 37 -50c0 -30 -24 -52 -53 -52c-30 0 -52 22 -52 52zM385 137c0 29 22 53 52 53c29 0 53 -24 53 -53c0 -24 -16 -43 -37 -50c21 -7 37 -27 37 -50c0 -30 -24 -52 -53 -52c-30 0 -52 22 -52 52c0 23 14 43 35 50c-21 7 -35 26 -35 50z
M385 537c0 23 14 43 35 50c-21 7 -35 26 -35 50c0 29 22 53 52 53c29 0 53 -24 53 -53c0 -24 -16 -43 -37 -50c21 -7 37 -27 37 -50c0 -30 -24 -52 -53 -52c-30 0 -52 22 -52 52zM185 337c0 29 22 53 52 53c29 0 53 -24 53 -53c0 -30 -24 -52 -53 -52c-30 0 -52 22 -52 52z
M285 437c0 29 22 53 52 53c29 0 53 -24 53 -53c0 -30 -24 -52 -53 -52c-30 0 -52 22 -52 52zM85 237c0 29 22 53 52 53c29 0 53 -24 53 -53c0 -30 -24 -52 -53 -52c-30 0 -52 22 -52 52zM85 437c0 29 22 53 52 53c29 0 53 -24 53 -53c0 -30 -24 -52 -53 -52
c-30 0 -52 22 -52 52zM285 237c0 29 22 53 52 53c29 0 53 -24 53 -53c0 -30 -24 -52 -53 -52c-30 0 -52 22 -52 52z" />
    <glyph glyph-name="Y" unicode="Y" 
d="M185 237c0 29 22 53 52 53c29 0 53 -24 53 -53c0 -24 -16 -43 -37 -50c21 -7 37 -27 37 -50c0 -24 -16 -43 -37 -50c21 -7 37 -27 37 -50c0 -30 -24 -52 -53 -52c-30 0 -52 22 -52 52c0 23 14 43 35 50c-21 7 -35 26 -35 50c0 23 14 43 35 50c-21 7 -35 26 -35 50z
M385 637c0 29 22 53 52 53c29 0 53 -24 53 -53c0 -24 -16 -43 -37 -50c21 -7 37 -27 37 -50c0 -24 -16 -43 -37 -50c21 -7 37 -27 37 -50c0 -30 -24 -52 -53 -52c-30 0 -52 22 -52 52c0 23 14 43 35 50c-21 7 -35 26 -35 50c0 23 14 43 35 50c-21 7 -35 26 -35 50zM-15 637
c0 29 22 53 52 53c29 0 53 -24 53 -53c0 -24 -16 -43 -37 -50c21 -7 37 -27 37 -50c0 -24 -16 -43 -37 -50c21 -7 37 -27 37 -50c0 -30 -24 -52 -53 -52c-30 0 -52 22 -52 52c0 23 14 43 35 50c-21 7 -35 26 -35 50c0 23 14 43 35 50c-21 7 -35 26 -35 50zM85 337
c0 29 22 53 52 53c29 0 53 -24 53 -53c0 -30 -24 -52 -53 -52c-30 0 -52 22 -52 52zM285 337c0 29 22 53 52 53c29 0 53 -24 53 -53c0 -30 -24 -52 -53 -52c-30 0 -52 22 -52 52z" />
    <glyph glyph-name="Z" unicode="Z" 
d="M-15 137c0 29 22 53 52 53c29 0 53 -24 53 -53c0 -24 -16 -43 -37 -50c16 -5 29 -18 34 -34c7 21 26 37 50 37c23 0 43 -16 50 -37c7 21 26 37 50 37c23 0 43 -16 50 -37c7 21 26 37 50 37c23 0 43 -16 50 -37c7 21 26 37 50 37c29 0 53 -24 53 -53
c0 -30 -24 -52 -53 -52c-24 0 -43 14 -50 35c-7 -21 -27 -35 -50 -35c-24 0 -43 14 -50 35c-7 -21 -27 -35 -50 -35c-24 0 -43 14 -50 35c-7 -21 -27 -35 -50 -35c-24 0 -43 14 -50 35c-7 -21 -27 -35 -50 -35c-30 0 -52 22 -52 52c0 23 14 43 35 50c-21 7 -35 26 -35 50z
M-15 637c0 29 22 53 52 53c23 0 43 -16 50 -37c7 21 26 37 50 37c23 0 43 -16 50 -37c7 21 26 37 50 37c23 0 43 -16 50 -37c7 21 26 37 50 37c23 0 43 -16 50 -37c7 21 26 37 50 37c29 0 53 -24 53 -53c0 -24 -16 -43 -37 -50c21 -7 37 -27 37 -50c0 -30 -24 -52 -53 -52
c-30 0 -52 22 -52 52c0 23 14 43 35 50c-16 5 -28 17 -33 33c-7 -21 -27 -35 -50 -35c-24 0 -43 14 -50 35c-7 -21 -27 -35 -50 -35c-24 0 -43 14 -50 35c-7 -21 -27 -35 -50 -35c-24 0 -43 14 -50 35c-7 -21 -27 -35 -50 -35c-30 0 -52 22 -52 52zM285 437
c0 29 22 53 52 53c29 0 53 -24 53 -53c0 -30 -24 -52 -53 -52c-30 0 -52 22 -52 52zM185 337c0 29 22 53 52 53c29 0 53 -24 53 -53c0 -30 -24 -52 -53 -52c-30 0 -52 22 -52 52zM85 237c0 29 22 53 52 53c29 0 53 -24 53 -53c0 -30 -24 -52 -53 -52c-30 0 -52 22 -52 52z
" />
    <glyph glyph-name="backslash" unicode="\" 
d="M385 137c0 29 22 53 52 53c29 0 53 -24 53 -53c0 -24 -16 -43 -37 -50c21 -7 37 -27 37 -50c0 -30 -24 -52 -53 -52c-30 0 -52 22 -52 52c0 23 14 43 35 50c-21 7 -35 26 -35 50zM285 337c0 29 22 53 52 53c29 0 53 -24 53 -53c0 -24 -16 -43 -37 -50
c21 -7 37 -27 37 -50c0 -30 -24 -52 -53 -52c-30 0 -52 22 -52 52c0 23 14 43 35 50c-21 7 -35 26 -35 50zM85 637c0 29 22 53 52 53c29 0 53 -24 53 -53c0 -24 -16 -43 -37 -50c21 -7 37 -27 37 -50c0 -30 -24 -52 -53 -52c-30 0 -52 22 -52 52c0 23 14 43 35 50
c-21 7 -35 26 -35 50zM185 437c0 29 22 53 52 53c29 0 53 -24 53 -53c0 -30 -24 -52 -53 -52c-30 0 -52 22 -52 52z" />
    <glyph glyph-name="bracketright" unicode="]" 
d="M185 637c0 29 22 53 52 53c23 0 43 -16 50 -37c7 21 26 37 50 37c29 0 53 -24 53 -53c0 -24 -16 -43 -37 -50c21 -7 37 -27 37 -50c0 -24 -16 -43 -37 -50c21 -7 37 -27 37 -50c0 -24 -16 -43 -37 -50c21 -7 37 -27 37 -50c0 -24 -16 -43 -37 -50c21 -7 37 -27 37 -50
c0 -24 -16 -43 -37 -50c21 -7 37 -27 37 -50c0 -24 -16 -43 -37 -50c21 -7 37 -27 37 -50c0 -30 -24 -52 -53 -52c-24 0 -43 14 -50 35c-7 -21 -27 -35 -50 -35c-30 0 -52 22 -52 52c0 29 22 53 52 53c23 0 43 -16 50 -37c5 16 17 29 33 34c-21 7 -35 26 -35 50
c0 23 14 43 35 50c-21 7 -35 26 -35 50c0 23 14 43 35 50c-21 7 -35 26 -35 50c0 23 14 43 35 50c-21 7 -35 26 -35 50c0 23 14 43 35 50c-21 7 -35 26 -35 50c0 23 14 43 35 50c-16 5 -28 17 -33 33c-7 -21 -27 -35 -50 -35c-30 0 -52 22 -52 52z" />
    <glyph glyph-name="asciicircum" unicode="^" 
d="M85 637c0 29 22 53 52 53c29 0 53 -24 53 -53c0 -30 -24 -52 -53 -52c-30 0 -52 22 -52 52zM285 637c0 29 22 53 52 53c29 0 53 -24 53 -53c0 -30 -24 -52 -53 -52c-30 0 -52 22 -52 52zM185 737c0 29 22 53 52 53c29 0 53 -24 53 -53c0 -30 -24 -52 -53 -52
c-30 0 -52 22 -52 52z" />
    <glyph glyph-name="underscore" unicode="_" 
d="M-15 37c0 29 22 53 52 53c23 0 43 -16 50 -37c7 21 26 37 50 37c23 0 43 -16 50 -37c7 21 26 37 50 37c23 0 43 -16 50 -37c7 21 26 37 50 37c23 0 43 -16 50 -37c7 21 26 37 50 37c29 0 53 -24 53 -53c0 -30 -24 -52 -53 -52c-24 0 -43 14 -50 35
c-7 -21 -27 -35 -50 -35c-24 0 -43 14 -50 35c-7 -21 -27 -35 -50 -35c-24 0 -43 14 -50 35c-7 -21 -27 -35 -50 -35c-24 0 -43 14 -50 35c-7 -21 -27 -35 -50 -35c-30 0 -52 22 -52 52z" />
    <glyph glyph-name="grave" unicode="`" 
d="M85 637c0 29 22 53 52 53c23 0 43 -16 50 -37c7 21 26 37 50 37c29 0 53 -24 53 -53c0 -30 -24 -52 -53 -52c-24 0 -43 14 -50 35c-7 -21 -27 -35 -50 -35c-30 0 -52 22 -52 52zM-15 737c0 29 22 53 52 53c29 0 53 -24 53 -53c0 -30 -24 -52 -53 -52c-30 0 -52 22 -52 52
z" />
    <glyph glyph-name="exclam" unicode="!" 
d="M185 637c0 29 22 53 52 53c29 0 53 -24 53 -53c0 -24 -16 -43 -37 -50c21 -7 37 -27 37 -50c0 -24 -16 -43 -37 -50c21 -7 37 -27 37 -50c0 -24 -16 -43 -37 -50c21 -7 37 -27 37 -50c0 -30 -24 -52 -53 -52c-30 0 -52 22 -52 52c0 23 14 43 35 50c-21 7 -35 26 -35 50
c0 23 14 43 35 50c-21 7 -35 26 -35 50c0 23 14 43 35 50c-21 7 -35 26 -35 50zM185 137c0 29 22 53 52 53c29 0 53 -24 53 -53c0 -24 -16 -43 -37 -50c21 -7 37 -27 37 -50c0 -30 -24 -52 -53 -52c-30 0 -52 22 -52 52c0 23 14 43 35 50c-21 7 -35 26 -35 50z" />
    <glyph glyph-name="quotedbl" unicode="&#x22;" 
d="M185 637c0 29 22 53 52 53c29 0 53 -24 53 -53c0 -24 -16 -43 -37 -50c21 -7 37 -27 37 -50c0 -30 -24 -52 -53 -52c-30 0 -52 22 -52 52c0 23 14 43 35 50c-21 7 -35 26 -35 50zM385 637c0 29 22 53 52 53c29 0 53 -24 53 -53c0 -24 -16 -43 -37 -50
c21 -7 37 -27 37 -50c0 -30 -24 -52 -53 -52c-30 0 -52 22 -52 52c0 23 14 43 35 50c-21 7 -35 26 -35 50zM285 437c0 29 22 53 52 53c29 0 53 -24 53 -53c0 -30 -24 -52 -53 -52c-30 0 -52 22 -52 52zM85 437c0 29 22 53 52 53c29 0 53 -24 53 -53c0 -30 -24 -52 -53 -52
c-30 0 -52 22 -52 52z" />
    <glyph glyph-name="numbersign" unicode="#" 
d="M285 137c0 23 14 43 35 50c-16 5 -28 17 -33 33c-7 -21 -27 -35 -50 -35c-24 0 -43 14 -50 35c-5 -16 -18 -28 -34 -33c21 -7 37 -27 37 -50c0 -24 -16 -43 -37 -50c21 -7 37 -27 37 -50c0 -30 -24 -52 -53 -52c-30 0 -52 22 -52 52c0 23 14 43 35 50
c-21 7 -35 26 -35 50c0 23 14 43 35 50c-16 5 -28 17 -33 33c-7 -21 -27 -35 -50 -35c-30 0 -52 22 -52 52c0 29 22 53 52 53c23 0 43 -16 50 -37c5 16 17 29 33 34c-21 7 -35 26 -35 50c0 23 14 43 35 50c-16 5 -28 17 -33 33c-7 -21 -27 -35 -50 -35c-30 0 -52 22 -52 52
c0 29 22 53 52 53c23 0 43 -16 50 -37c5 16 17 29 33 34c-21 7 -35 26 -35 50c0 23 14 43 35 50c-21 7 -35 26 -35 50c0 29 22 53 52 53c29 0 53 -24 53 -53c0 -24 -16 -43 -37 -50c21 -7 37 -27 37 -50c0 -24 -16 -43 -37 -50c16 -5 29 -18 34 -34c7 21 26 37 50 37
c23 0 43 -16 50 -37c5 16 17 29 33 34c-21 7 -35 26 -35 50c0 23 14 43 35 50c-21 7 -35 26 -35 50c0 29 22 53 52 53c29 0 53 -24 53 -53c0 -24 -16 -43 -37 -50c21 -7 37 -27 37 -50c0 -24 -16 -43 -37 -50c16 -5 29 -18 34 -34c7 21 26 37 50 37c29 0 53 -24 53 -53
c0 -30 -24 -52 -53 -52c-24 0 -43 14 -50 35c-5 -16 -18 -28 -34 -33c21 -7 37 -27 37 -50c0 -24 -16 -43 -37 -50c16 -5 29 -18 34 -34c7 21 26 37 50 37c29 0 53 -24 53 -53c0 -30 -24 -52 -53 -52c-24 0 -43 14 -50 35c-5 -16 -18 -28 -34 -33c21 -7 37 -27 37 -50
c0 -24 -16 -43 -37 -50c21 -7 37 -27 37 -50c0 -30 -24 -52 -53 -52c-30 0 -52 22 -52 52c0 23 14 43 35 50c-21 7 -35 26 -35 50zM285 337c0 23 14 43 35 50c-16 5 -28 17 -33 33c-7 -21 -27 -35 -50 -35c-24 0 -43 14 -50 35c-5 -16 -18 -28 -34 -33c21 -7 37 -27 37 -50
c0 -24 -16 -43 -37 -50c16 -5 29 -18 34 -34c7 21 26 37 50 37c23 0 43 -16 50 -37c5 16 17 29 33 34c-21 7 -35 26 -35 50z" />
    <glyph glyph-name="dollar" unicode="$" 
d="M185 -63c0 23 14 44 35 51c-16 5 -28 16 -33 32c-7 -21 -27 -35 -50 -35c-24 0 -43 14 -50 35c-7 -21 -27 -35 -50 -35c-30 0 -52 22 -52 52c0 29 22 53 52 53c23 0 43 -16 50 -37c7 21 26 37 50 37c23 0 43 -16 50 -37c5 16 17 29 33 34c-21 7 -35 26 -35 50
c0 23 14 43 35 50c-16 5 -28 17 -33 33c-7 -21 -27 -35 -50 -35c-30 0 -52 22 -52 52c0 29 22 53 52 53c23 0 43 -16 50 -37c5 16 17 29 33 34c-21 7 -35 26 -35 50c0 23 14 43 35 50c-16 5 -28 17 -33 33c-7 -21 -27 -35 -50 -35c-30 0 -52 22 -52 52c0 29 22 53 52 53
c23 0 43 -16 50 -37c5 16 17 29 33 34c-21 7 -35 26 -35 50c0 29 22 53 52 53c29 0 53 -24 53 -53c0 -24 -16 -43 -37 -50c16 -5 29 -18 34 -34c7 21 26 37 50 37c23 0 43 -16 50 -37c7 21 26 37 50 37c29 0 53 -24 53 -53c0 -30 -24 -52 -53 -52c-24 0 -43 14 -50 35
c-7 -21 -27 -35 -50 -35c-24 0 -43 14 -50 35c-5 -16 -18 -28 -34 -33c21 -7 37 -27 37 -50c0 -24 -16 -43 -37 -50c16 -5 29 -18 34 -34c7 21 26 37 50 37c29 0 53 -24 53 -53c0 -30 -24 -52 -53 -52c-24 0 -43 14 -50 35c-5 -16 -18 -28 -34 -33c21 -7 37 -27 37 -50
c0 -24 -16 -43 -37 -50c16 -5 29 -18 34 -34c7 21 26 37 50 37c29 0 53 -24 53 -53c0 -30 -24 -52 -53 -52c-24 0 -43 14 -50 35c-5 -16 -18 -27 -34 -32c21 -7 37 -28 37 -51c0 -30 -24 -52 -53 -52c-30 0 -52 22 -52 52zM385 137c0 29 22 53 52 53c29 0 53 -24 53 -53
c0 -30 -24 -52 -53 -52c-30 0 -52 22 -52 52zM-15 337c0 29 22 53 52 53c29 0 53 -24 53 -53c0 -30 -24 -52 -53 -52c-30 0 -52 22 -52 52z" />
    <glyph glyph-name="percent" unicode="%" 
d="M185 137c0 29 22 53 52 53c23 0 43 -16 50 -37c7 21 26 37 50 37c29 0 53 -24 53 -53c0 -24 -16 -43 -37 -50c21 -7 37 -27 37 -50c0 -30 -24 -52 -53 -52c-24 0 -43 14 -50 35c-7 -21 -27 -35 -50 -35c-30 0 -52 22 -52 52c0 23 14 43 35 50c-21 7 -35 26 -35 50z
M-15 637c0 29 22 53 52 53c23 0 43 -16 50 -37c7 21 26 37 50 37c29 0 53 -24 53 -53c0 -24 -16 -43 -37 -50c21 -7 37 -27 37 -50c0 -30 -24 -52 -53 -52c-24 0 -43 14 -50 35c-7 -21 -27 -35 -50 -35c-30 0 -52 22 -52 52c0 23 14 43 35 50c-21 7 -35 26 -35 50zM85 337
c0 29 22 53 52 53c29 0 53 -24 53 -53c0 -24 -16 -43 -37 -50c21 -7 37 -27 37 -50c0 -30 -24 -52 -53 -52c-30 0 -52 22 -52 52c0 23 14 43 35 50c-21 7 -35 26 -35 50zM285 637c0 29 22 53 52 53c29 0 53 -24 53 -53c0 -24 -16 -43 -37 -50c21 -7 37 -27 37 -50
c0 -30 -24 -52 -53 -52c-30 0 -52 22 -52 52c0 23 14 43 35 50c-21 7 -35 26 -35 50zM-15 137c0 29 22 53 52 53c29 0 53 -24 53 -53c0 -24 -16 -43 -37 -50c21 -7 37 -27 37 -50c0 -30 -24 -52 -53 -52c-30 0 -52 22 -52 52c0 23 14 43 35 50c-21 7 -35 26 -35 50zM185 437
c0 29 22 53 52 53c29 0 53 -24 53 -53c0 -30 -24 -52 -53 -52c-30 0 -52 22 -52 52zM253 87c16 -5 29 -18 34 -34c5 16 17 29 33 34c-16 5 -28 17 -33 33c-5 -16 -18 -28 -34 -33zM53 587c16 -5 29 -18 34 -34c5 16 17 29 33 34c-16 5 -28 17 -33 33c-5 -16 -18 -28 -34 -33
z" />
    <glyph glyph-name="ampersand" unicode="&#x26;" 
d="M85 337c0 29 22 53 52 53c23 0 43 -16 50 -37c7 21 26 37 50 37c23 0 43 -16 50 -37c7 21 26 37 50 37c23 0 43 -16 50 -37c7 21 26 37 50 37c29 0 53 -24 53 -53c0 -30 -24 -52 -53 -52c-24 0 -43 14 -50 35c-5 -16 -18 -28 -34 -33c21 -7 37 -27 37 -50
c0 -24 -16 -43 -37 -50c21 -7 37 -27 37 -50c0 -30 -24 -52 -53 -52c-30 0 -52 22 -52 52c0 23 14 43 35 50c-21 7 -35 26 -35 50c0 23 14 43 35 50c-16 5 -28 17 -33 33c-7 -21 -27 -35 -50 -35c-24 0 -43 14 -50 35c-7 -21 -27 -35 -50 -35c-30 0 -52 22 -52 52zM85 637
c0 29 22 53 52 53c23 0 43 -16 50 -37c7 21 26 37 50 37c29 0 53 -24 53 -53c0 -30 -24 -52 -53 -52c-24 0 -43 14 -50 35c-7 -21 -27 -35 -50 -35c-30 0 -52 22 -52 52zM-15 237c0 29 22 53 52 53c29 0 53 -24 53 -53c0 -24 -16 -43 -37 -50c21 -7 37 -27 37 -50
c0 -30 -24 -52 -53 -52c-30 0 -52 22 -52 52c0 23 14 43 35 50c-21 7 -35 26 -35 50zM85 37c0 29 22 53 52 53c23 0 43 -16 50 -37c7 21 26 37 50 37c29 0 53 -24 53 -53c0 -30 -24 -52 -53 -52c-24 0 -43 14 -50 35c-7 -21 -27 -35 -50 -35c-30 0 -52 22 -52 52zM-15 537
c0 29 22 53 52 53c29 0 53 -24 53 -53c0 -24 -16 -43 -37 -50c21 -7 37 -27 37 -50c0 -30 -24 -52 -53 -52c-30 0 -52 22 -52 52c0 23 14 43 35 50c-21 7 -35 26 -35 50z" />
    <glyph glyph-name="quotesingle" unicode="'" 
d="M285 637c0 29 22 53 52 53c29 0 53 -24 53 -53c0 -24 -16 -43 -37 -50c21 -7 37 -27 37 -50c0 -30 -24 -52 -53 -52c-30 0 -52 22 -52 52c0 23 14 43 35 50c-21 7 -35 26 -35 50zM185 437c0 29 22 53 52 53c29 0 53 -24 53 -53c0 -30 -24 -52 -53 -52
c-30 0 -52 22 -52 52z" />
    <glyph glyph-name="parenleft" unicode="(" 
d="M185 537c0 29 22 53 52 53c29 0 53 -24 53 -53c0 -24 -16 -43 -37 -50c21 -7 37 -27 37 -50c0 -24 -16 -43 -37 -50c21 -7 37 -27 37 -50c0 -24 -16 -43 -37 -50c21 -7 37 -27 37 -50c0 -24 -16 -43 -37 -50c21 -7 37 -27 37 -50c0 -30 -24 -52 -53 -52
c-30 0 -52 22 -52 52c0 23 14 43 35 50c-21 7 -35 26 -35 50c0 23 14 43 35 50c-21 7 -35 26 -35 50c0 23 14 43 35 50c-21 7 -35 26 -35 50c0 23 14 43 35 50c-21 7 -35 26 -35 50zM285 37c0 29 22 53 52 53c29 0 53 -24 53 -53c0 -30 -24 -52 -53 -52c-30 0 -52 22 -52 52
zM285 637c0 29 22 53 52 53c29 0 53 -24 53 -53c0 -30 -24 -52 -53 -52c-30 0 -52 22 -52 52z" />
    <glyph glyph-name="parenright" unicode=")" 
d="M285 537c0 29 22 53 52 53c29 0 53 -24 53 -53c0 -24 -16 -43 -37 -50c21 -7 37 -27 37 -50c0 -24 -16 -43 -37 -50c21 -7 37 -27 37 -50c0 -24 -16 -43 -37 -50c21 -7 37 -27 37 -50c0 -24 -16 -43 -37 -50c21 -7 37 -27 37 -50c0 -30 -24 -52 -53 -52
c-30 0 -52 22 -52 52c0 23 14 43 35 50c-21 7 -35 26 -35 50c0 23 14 43 35 50c-21 7 -35 26 -35 50c0 23 14 43 35 50c-21 7 -35 26 -35 50c0 23 14 43 35 50c-21 7 -35 26 -35 50zM185 37c0 29 22 53 52 53c29 0 53 -24 53 -53c0 -30 -24 -52 -53 -52c-30 0 -52 22 -52 52
zM185 637c0 29 22 53 52 53c29 0 53 -24 53 -53c0 -30 -24 -52 -53 -52c-30 0 -52 22 -52 52z" />
    <glyph glyph-name="asterisk" unicode="*" 
d="M-15 437c0 29 22 53 52 53c29 0 53 -24 53 -53c0 -30 -24 -52 -53 -52c-30 0 -52 22 -52 52zM185 437c0 29 22 53 52 53c29 0 53 -24 53 -53c0 -30 -24 -52 -53 -52c-30 0 -52 22 -52 52zM85 537c0 29 22 53 52 53c29 0 53 -24 53 -53c0 -30 -24 -52 -53 -52
c-30 0 -52 22 -52 52zM-15 637c0 29 22 53 52 53c29 0 53 -24 53 -53c0 -30 -24 -52 -53 -52c-30 0 -52 22 -52 52zM185 637c0 29 22 53 52 53c29 0 53 -24 53 -53c0 -30 -24 -52 -53 -52c-30 0 -52 22 -52 52z" />
    <glyph glyph-name="plus" unicode="+" 
d="M185 437c0 29 22 53 52 53c29 0 53 -24 53 -53c0 -24 -16 -43 -37 -50c21 -7 37 -27 37 -50c0 -24 -16 -43 -37 -50c16 -5 29 -18 34 -34c7 21 26 37 50 37c23 0 43 -16 50 -37c7 21 26 37 50 37c29 0 53 -24 53 -53c0 -30 -24 -52 -53 -52c-24 0 -43 14 -50 35
c-7 -21 -27 -35 -50 -35c-24 0 -43 14 -50 35c-5 -16 -18 -28 -34 -33c21 -7 37 -27 37 -50c0 -24 -16 -43 -37 -50c21 -7 37 -27 37 -50c0 -30 -24 -52 -53 -52c-30 0 -52 22 -52 52c0 23 14 43 35 50c-21 7 -35 26 -35 50c0 23 14 43 35 50c-16 5 -28 17 -33 33
c-7 -21 -27 -35 -50 -35c-24 0 -43 14 -50 35c-7 -21 -27 -35 -50 -35c-30 0 -52 22 -52 52c0 29 22 53 52 53c23 0 43 -16 50 -37c7 21 26 37 50 37c23 0 43 -16 50 -37c5 16 17 29 33 34c-21 7 -35 26 -35 50c0 23 14 43 35 50c-21 7 -35 26 -35 50z" />
    <glyph glyph-name="comma" unicode="," 
d="M185 137c0 29 22 53 52 53c29 0 53 -24 53 -53c0 -24 -16 -43 -37 -50c21 -7 37 -27 37 -50c0 -30 -24 -52 -53 -52c-30 0 -52 22 -52 52c0 23 14 43 35 50c-21 7 -35 26 -35 50zM85 -63c0 29 22 53 52 53c29 0 53 -24 53 -53c0 -30 -24 -52 -53 -52c-30 0 -52 22 -52 52
z" />
    <glyph glyph-name="hyphen" unicode="-" 
d="M85 237c0 29 22 53 52 53c23 0 43 -16 50 -37c7 21 26 37 50 37c23 0 43 -16 50 -37c7 21 26 37 50 37c29 0 53 -24 53 -53c0 -30 -24 -52 -53 -52c-24 0 -43 14 -50 35c-7 -21 -27 -35 -50 -35c-24 0 -43 14 -50 35c-7 -21 -27 -35 -50 -35c-30 0 -52 22 -52 52z" />
    <glyph glyph-name="period" unicode="." 
d="M185 137c0 29 22 53 52 53c29 0 53 -24 53 -53c0 -24 -16 -43 -37 -50c21 -7 37 -27 37 -50c0 -30 -24 -52 -53 -52c-30 0 -52 22 -52 52c0 23 14 43 35 50c-21 7 -35 26 -35 50z" />
    <glyph glyph-name="slash" unicode="/" 
d="M85 137c0 29 22 53 52 53c29 0 53 -24 53 -53c0 -24 -16 -43 -37 -50c21 -7 37 -27 37 -50c0 -30 -24 -52 -53 -52c-30 0 -52 22 -52 52c0 23 14 43 35 50c-21 7 -35 26 -35 50zM185 337c0 29 22 53 52 53c29 0 53 -24 53 -53c0 -24 -16 -43 -37 -50c21 -7 37 -27 37 -50
c0 -30 -24 -52 -53 -52c-30 0 -52 22 -52 52c0 23 14 43 35 50c-21 7 -35 26 -35 50zM385 637c0 29 22 53 52 53c29 0 53 -24 53 -53c0 -24 -16 -43 -37 -50c21 -7 37 -27 37 -50c0 -30 -24 -52 -53 -52c-30 0 -52 22 -52 52c0 23 14 43 35 50c-21 7 -35 26 -35 50zM285 437
c0 29 22 53 52 53c29 0 53 -24 53 -53c0 -30 -24 -52 -53 -52c-30 0 -52 22 -52 52z" />
    <glyph glyph-name="zero" unicode="0" 
d="M-15 337c0 29 22 53 52 53c29 0 53 -24 53 -53c0 -24 -16 -43 -37 -50c21 -7 37 -27 37 -50c0 -24 -16 -43 -37 -50c16 -5 29 -18 34 -34c7 21 26 37 50 37c29 0 53 -24 53 -53c0 -24 -16 -43 -37 -50c16 -5 29 -18 34 -34c7 21 26 37 50 37c23 0 43 -16 50 -37
c7 21 26 37 50 37c29 0 53 -24 53 -53c0 -30 -24 -52 -53 -52c-24 0 -43 14 -50 35c-7 -21 -27 -35 -50 -35c-24 0 -43 14 -50 35c-7 -21 -27 -35 -50 -35c-30 0 -52 22 -52 52c0 23 14 43 35 50c-16 5 -28 17 -33 33c-7 -21 -27 -35 -50 -35c-30 0 -52 22 -52 52
c0 23 14 43 35 50c-21 7 -35 26 -35 50c0 23 14 43 35 50c-21 7 -35 26 -35 50zM85 437c0 29 22 53 52 53c23 0 43 -16 50 -37c7 21 26 37 50 37c23 0 43 -16 50 -37c7 21 26 37 50 37c29 0 53 -24 53 -53c0 -24 -16 -43 -37 -50c16 -5 29 -18 34 -34c7 21 26 37 50 37
c29 0 53 -24 53 -53c0 -24 -16 -43 -37 -50c21 -7 37 -27 37 -50c0 -24 -16 -43 -37 -50c21 -7 37 -27 37 -50c0 -30 -24 -52 -53 -52c-30 0 -52 22 -52 52c0 23 14 43 35 50c-21 7 -35 26 -35 50c0 23 14 43 35 50c-16 5 -28 17 -33 33c-7 -21 -27 -35 -50 -35
c-30 0 -52 22 -52 52c0 23 14 43 35 50c-16 5 -28 17 -33 33c-7 -21 -27 -35 -50 -35c-24 0 -43 14 -50 35c-7 -21 -27 -35 -50 -35c-30 0 -52 22 -52 52zM185 237c0 29 22 53 52 53c29 0 53 -24 53 -53c0 -30 -24 -52 -53 -52c-30 0 -52 22 -52 52z" />
    <glyph glyph-name="one" unicode="1" 
d="M-15 437c0 29 22 53 52 53c23 0 43 -16 50 -37c7 21 26 37 50 37c23 0 43 -16 50 -37c7 21 26 37 50 37c29 0 53 -24 53 -53c0 -24 -16 -43 -37 -50c21 -7 37 -27 37 -50c0 -24 -16 -43 -37 -50c21 -7 37 -27 37 -50c0 -24 -16 -43 -37 -50c21 -7 37 -27 37 -50
c0 -24 -16 -43 -37 -50c16 -5 29 -18 34 -34c7 21 26 37 50 37c23 0 43 -16 50 -37c7 21 26 37 50 37c29 0 53 -24 53 -53c0 -30 -24 -52 -53 -52c-24 0 -43 14 -50 35c-7 -21 -27 -35 -50 -35c-24 0 -43 14 -50 35c-7 -21 -27 -35 -50 -35c-24 0 -43 14 -50 35
c-7 -21 -27 -35 -50 -35c-24 0 -43 14 -50 35c-7 -21 -27 -35 -50 -35c-30 0 -52 22 -52 52c0 29 22 53 52 53c23 0 43 -16 50 -37c7 21 26 37 50 37c23 0 43 -16 50 -37c5 16 17 29 33 34c-21 7 -35 26 -35 50c0 23 14 43 35 50c-21 7 -35 26 -35 50c0 23 14 43 35 50
c-21 7 -35 26 -35 50c0 23 14 43 35 50c-16 5 -28 17 -33 33c-7 -21 -27 -35 -50 -35c-24 0 -43 14 -50 35c-7 -21 -27 -35 -50 -35c-30 0 -52 22 -52 52z" />
    <glyph glyph-name="two" unicode="2" 
d="M85 137c0 29 22 53 52 53c29 0 53 -24 53 -53c0 -24 -16 -43 -37 -50c16 -5 29 -18 34 -34c7 21 26 37 50 37c23 0 43 -16 50 -37c7 21 26 37 50 37c23 0 43 -16 50 -37c7 21 26 37 50 37c29 0 53 -24 53 -53c0 -30 -24 -52 -53 -52c-24 0 -43 14 -50 35
c-7 -21 -27 -35 -50 -35c-24 0 -43 14 -50 35c-7 -21 -27 -35 -50 -35c-24 0 -43 14 -50 35c-7 -21 -27 -35 -50 -35c-24 0 -43 14 -50 35c-7 -21 -27 -35 -50 -35c-30 0 -52 22 -52 52c0 29 22 53 52 53c23 0 43 -16 50 -37c5 16 17 29 33 34c-21 7 -35 26 -35 50zM85 437
c0 29 22 53 52 53c23 0 43 -16 50 -37c7 21 26 37 50 37c23 0 43 -16 50 -37c7 21 26 37 50 37c29 0 53 -24 53 -53c0 -30 -24 -52 -53 -52c-24 0 -43 14 -50 35c-7 -21 -27 -35 -50 -35c-24 0 -43 14 -50 35c-7 -21 -27 -35 -50 -35c-30 0 -52 22 -52 52zM185 237
c0 29 22 53 52 53c23 0 43 -16 50 -37c7 21 26 37 50 37c29 0 53 -24 53 -53c0 -30 -24 -52 -53 -52c-24 0 -43 14 -50 35c-7 -21 -27 -35 -50 -35c-30 0 -52 22 -52 52zM-15 337c0 29 22 53 52 53c29 0 53 -24 53 -53c0 -30 -24 -52 -53 -52c-30 0 -52 22 -52 52zM385 337
c0 29 22 53 52 53c29 0 53 -24 53 -53c0 -30 -24 -52 -53 -52c-30 0 -52 22 -52 52z" />
    <glyph glyph-name="three" unicode="3" 
d="M85 137c0 29 22 53 52 53c23 0 43 -16 50 -37c7 21 26 37 50 37c23 0 43 -16 50 -37c7 21 26 37 50 37c29 0 53 -24 53 -53c0 -30 -24 -52 -53 -52c-24 0 -43 14 -50 35c-7 -21 -27 -35 -50 -35c-24 0 -43 14 -50 35c-7 -21 -27 -35 -50 -35c-30 0 -52 22 -52 52zM85 437
c0 29 22 53 52 53c23 0 43 -16 50 -37c7 21 26 37 50 37c23 0 43 -16 50 -37c7 21 26 37 50 37c29 0 53 -24 53 -53c0 -30 -24 -52 -53 -52c-24 0 -43 14 -50 35c-7 -21 -27 -35 -50 -35c-24 0 -43 14 -50 35c-7 -21 -27 -35 -50 -35c-30 0 -52 22 -52 52zM85 -163
c0 29 22 53 52 53c23 0 43 -15 50 -36c7 21 26 36 50 36c23 0 43 -15 50 -36c7 21 26 36 50 36c29 0 53 -24 53 -53c0 -30 -24 -52 -53 -52c-24 0 -43 14 -50 35c-7 -21 -27 -35 -50 -35c-24 0 -43 14 -50 35c-7 -21 -27 -35 -50 -35c-30 0 -52 22 -52 52zM385 -63
c0 23 14 44 35 51c-21 6 -35 25 -35 49c0 29 22 53 52 53c29 0 53 -24 53 -53c0 -24 -16 -43 -37 -49c21 -7 37 -28 37 -51c0 -30 -24 -52 -53 -52c-30 0 -52 22 -52 52zM385 237c0 23 14 43 35 50c-21 7 -35 26 -35 50c0 29 22 53 52 53c29 0 53 -24 53 -53
c0 -24 -16 -43 -37 -50c21 -7 37 -27 37 -50c0 -30 -24 -52 -53 -52c-30 0 -52 22 -52 52zM-15 -63c0 29 22 53 52 53c29 0 53 -24 53 -53c0 -30 -24 -52 -53 -52c-30 0 -52 22 -52 52zM-15 337c0 29 22 53 52 53c29 0 53 -24 53 -53c0 -30 -24 -52 -53 -52
c-30 0 -52 22 -52 52z" />
    <glyph glyph-name="four" unicode="4" 
d="M285 437c0 29 22 53 52 53c29 0 53 -24 53 -53c0 -24 -16 -43 -37 -50c21 -7 37 -27 37 -50c0 -24 -16 -43 -37 -50c21 -7 37 -27 37 -50c0 -24 -16 -43 -37 -50c21 -7 37 -27 37 -50c0 -24 -16 -43 -37 -50c16 -5 29 -18 34 -34c7 21 26 37 50 37c29 0 53 -24 53 -53
c0 -30 -24 -52 -53 -52c-24 0 -43 14 -50 35c-5 -16 -18 -27 -34 -32c21 -7 37 -28 37 -51c0 -24 -16 -43 -37 -49c21 -7 37 -28 37 -51c0 -30 -24 -52 -53 -52c-30 0 -52 22 -52 52c0 23 14 44 35 51c-21 6 -35 25 -35 49c0 23 14 44 35 51c-16 5 -28 16 -33 32
c-7 -21 -27 -35 -50 -35c-24 0 -43 14 -50 35c-7 -21 -27 -35 -50 -35c-24 0 -43 14 -50 35c-7 -21 -27 -35 -50 -35c-30 0 -52 22 -52 52c0 23 14 43 35 50c-21 7 -35 26 -35 50c0 29 22 53 52 53c29 0 53 -24 53 -53c0 -24 -16 -43 -37 -50c16 -5 29 -18 34 -34
c7 21 26 37 50 37c23 0 43 -16 50 -37c7 21 26 37 50 37c23 0 43 -16 50 -37c5 16 17 29 33 34c-21 7 -35 26 -35 50c0 23 14 43 35 50c-21 7 -35 26 -35 50c0 23 14 43 35 50c-16 5 -28 17 -33 33c-7 -21 -27 -35 -50 -35c-30 0 -52 22 -52 52c0 29 22 53 52 53
c23 0 43 -16 50 -37c5 16 17 29 33 34c-21 7 -35 26 -35 50zM85 237c0 29 22 53 52 53c29 0 53 -24 53 -53c0 -30 -24 -52 -53 -52c-30 0 -52 22 -52 52z" />
    <glyph glyph-name="five" unicode="5" 
d="M-15 437c0 29 22 53 52 53c23 0 43 -16 50 -37c7 21 26 37 50 37c23 0 43 -16 50 -37c7 21 26 37 50 37c23 0 43 -16 50 -37c7 21 26 37 50 37c23 0 43 -16 50 -37c7 21 26 37 50 37c29 0 53 -24 53 -53c0 -30 -24 -52 -53 -52c-24 0 -43 14 -50 35
c-7 -21 -27 -35 -50 -35c-24 0 -43 14 -50 35c-7 -21 -27 -35 -50 -35c-24 0 -43 14 -50 35c-7 -21 -27 -35 -50 -35c-24 0 -43 14 -50 35c-5 -16 -18 -28 -34 -33c21 -7 37 -27 37 -50c0 -24 -16 -43 -37 -50c21 -7 37 -27 37 -50c0 -24 -16 -43 -37 -50
c16 -5 29 -18 34 -34c7 21 26 37 50 37c23 0 43 -16 50 -37c7 21 26 37 50 37c23 0 43 -16 50 -37c7 21 26 37 50 37c29 0 53 -24 53 -53c0 -30 -24 -52 -53 -52c-24 0 -43 14 -50 35c-7 -21 -27 -35 -50 -35c-24 0 -43 14 -50 35c-7 -21 -27 -35 -50 -35
c-24 0 -43 14 -50 35c-7 -21 -27 -35 -50 -35c-30 0 -52 22 -52 52c0 23 14 43 35 50c-21 7 -35 26 -35 50c0 23 14 43 35 50c-21 7 -35 26 -35 50c0 23 14 43 35 50c-21 7 -35 26 -35 50zM-15 -163c0 29 22 53 52 53c23 0 43 -15 50 -36c7 21 26 36 50 36
c23 0 43 -15 50 -36c7 21 26 36 50 36c23 0 43 -15 50 -36c7 21 26 36 50 36c29 0 53 -24 53 -53c0 -30 -24 -52 -53 -52c-24 0 -43 14 -50 35c-7 -21 -27 -35 -50 -35c-24 0 -43 14 -50 35c-7 -21 -27 -35 -50 -35c-24 0 -43 14 -50 35c-7 -21 -27 -35 -50 -35
c-30 0 -52 22 -52 52zM385 37c0 29 22 53 52 53c29 0 53 -24 53 -53c0 -24 -16 -43 -37 -49c21 -7 37 -28 37 -51c0 -30 -24 -52 -53 -52c-30 0 -52 22 -52 52c0 23 14 44 35 51c-21 6 -35 25 -35 49z" />
    <glyph glyph-name="six" unicode="6" 
d="M-15 437c0 29 22 53 52 53c29 0 53 -24 53 -53c0 -24 -16 -43 -37 -50c16 -5 29 -18 34 -34c7 21 26 37 50 37c23 0 43 -16 50 -37c7 21 26 37 50 37c23 0 43 -16 50 -37c7 21 26 37 50 37c29 0 53 -24 53 -53c0 -30 -24 -52 -53 -52c-24 0 -43 14 -50 35
c-7 -21 -27 -35 -50 -35c-24 0 -43 14 -50 35c-7 -21 -27 -35 -50 -35c-24 0 -43 14 -50 35c-5 -16 -18 -28 -34 -33c21 -7 37 -27 37 -50c0 -24 -16 -43 -37 -50c21 -7 37 -27 37 -50c0 -30 -24 -52 -53 -52c-30 0 -52 22 -52 52c0 23 14 43 35 50c-21 7 -35 26 -35 50
c0 23 14 43 35 50c-21 7 -35 26 -35 50c0 23 14 43 35 50c-21 7 -35 26 -35 50zM85 37c0 29 22 53 52 53c23 0 43 -16 50 -37c7 21 26 37 50 37c23 0 43 -16 50 -37c7 21 26 37 50 37c29 0 53 -24 53 -53c0 -30 -24 -52 -53 -52c-24 0 -43 14 -50 35c-7 -21 -27 -35 -50 -35
c-24 0 -43 14 -50 35c-7 -21 -27 -35 -50 -35c-30 0 -52 22 -52 52zM385 237c0 29 22 53 52 53c29 0 53 -24 53 -53c0 -24 -16 -43 -37 -50c21 -7 37 -27 37 -50c0 -30 -24 -52 -53 -52c-30 0 -52 22 -52 52c0 23 14 43 35 50c-21 7 -35 26 -35 50zM185 637
c0 29 22 53 52 53c23 0 43 -16 50 -37c7 21 26 37 50 37c29 0 53 -24 53 -53c0 -30 -24 -52 -53 -52c-24 0 -43 14 -50 35c-7 -21 -27 -35 -50 -35c-30 0 -52 22 -52 52zM85 537c0 29 22 53 52 53c29 0 53 -24 53 -53c0 -30 -24 -52 -53 -52c-30 0 -52 22 -52 52z" />
    <glyph glyph-name="seven" unicode="7" 
d="M-15 437c0 29 22 53 52 53c23 0 43 -16 50 -37c7 21 26 37 50 37c23 0 43 -16 50 -37c7 21 26 37 50 37c23 0 43 -16 50 -37c7 21 26 37 50 37c23 0 43 -16 50 -37c7 21 26 37 50 37c29 0 53 -24 53 -53c0 -24 -16 -43 -37 -50c21 -7 37 -27 37 -50
c0 -30 -24 -52 -53 -52c-30 0 -52 22 -52 52c0 23 14 43 35 50c-16 5 -28 17 -33 33c-7 -21 -27 -35 -50 -35c-24 0 -43 14 -50 35c-7 -21 -27 -35 -50 -35c-24 0 -43 14 -50 35c-7 -21 -27 -35 -50 -35c-24 0 -43 14 -50 35c-7 -21 -27 -35 -50 -35c-30 0 -52 22 -52 52z
M85 37c0 29 22 53 52 53c29 0 53 -24 53 -53c0 -24 -16 -43 -37 -49c21 -7 37 -28 37 -51c0 -24 -16 -43 -37 -49c21 -7 37 -28 37 -51c0 -30 -24 -52 -53 -52c-30 0 -52 22 -52 52c0 23 14 44 35 51c-21 6 -35 25 -35 49c0 23 14 44 35 51c-21 6 -35 25 -35 49zM185 137
c0 29 22 53 52 53c29 0 53 -24 53 -53c0 -30 -24 -52 -53 -52c-30 0 -52 22 -52 52zM285 237c0 29 22 53 52 53c29 0 53 -24 53 -53c0 -30 -24 -52 -53 -52c-30 0 -52 22 -52 52z" />
    <glyph glyph-name="eight" unicode="8" 
d="M85 37c0 29 22 53 52 53c23 0 43 -16 50 -37c7 21 26 37 50 37c23 0 43 -16 50 -37c7 21 26 37 50 37c29 0 53 -24 53 -53c0 -30 -24 -52 -53 -52c-24 0 -43 14 -50 35c-7 -21 -27 -35 -50 -35c-24 0 -43 14 -50 35c-7 -21 -27 -35 -50 -35c-30 0 -52 22 -52 52zM85 337
c0 29 22 53 52 53c23 0 43 -16 50 -37c7 21 26 37 50 37c23 0 43 -16 50 -37c7 21 26 37 50 37c29 0 53 -24 53 -53c0 -30 -24 -52 -53 -52c-24 0 -43 14 -50 35c-7 -21 -27 -35 -50 -35c-24 0 -43 14 -50 35c-7 -21 -27 -35 -50 -35c-30 0 -52 22 -52 52zM85 637
c0 29 22 53 52 53c23 0 43 -16 50 -37c7 21 26 37 50 37c23 0 43 -16 50 -37c7 21 26 37 50 37c29 0 53 -24 53 -53c0 -30 -24 -52 -53 -52c-24 0 -43 14 -50 35c-7 -21 -27 -35 -50 -35c-24 0 -43 14 -50 35c-7 -21 -27 -35 -50 -35c-30 0 -52 22 -52 52zM-15 237
c0 29 22 53 52 53c29 0 53 -24 53 -53c0 -24 -16 -43 -37 -50c21 -7 37 -27 37 -50c0 -30 -24 -52 -53 -52c-30 0 -52 22 -52 52c0 23 14 43 35 50c-21 7 -35 26 -35 50zM-15 537c0 29 22 53 52 53c29 0 53 -24 53 -53c0 -24 -16 -43 -37 -50c21 -7 37 -27 37 -50
c0 -30 -24 -52 -53 -52c-30 0 -52 22 -52 52c0 23 14 43 35 50c-21 7 -35 26 -35 50zM385 537c0 29 22 53 52 53c29 0 53 -24 53 -53c0 -24 -16 -43 -37 -50c21 -7 37 -27 37 -50c0 -30 -24 -52 -53 -52c-30 0 -52 22 -52 52c0 23 14 43 35 50c-21 7 -35 26 -35 50zM385 237
c0 29 22 53 52 53c29 0 53 -24 53 -53c0 -24 -16 -43 -37 -50c21 -7 37 -27 37 -50c0 -30 -24 -52 -53 -52c-30 0 -52 22 -52 52c0 23 14 43 35 50c-21 7 -35 26 -35 50z" />
    <glyph glyph-name="nine" unicode="9" 
d="M385 337c0 29 22 53 52 53c29 0 53 -24 53 -53c0 -24 -16 -43 -37 -50c21 -7 37 -27 37 -50c0 -24 -16 -43 -37 -50c21 -7 37 -27 37 -50c0 -24 -16 -43 -37 -50c21 -7 37 -27 37 -50c0 -30 -24 -52 -53 -52c-30 0 -52 22 -52 52c0 23 14 43 35 50c-16 5 -28 17 -33 33
c-7 -21 -27 -35 -50 -35c-24 0 -43 14 -50 35c-7 -21 -27 -35 -50 -35c-24 0 -43 14 -50 35c-7 -21 -27 -35 -50 -35c-30 0 -52 22 -52 52c0 29 22 53 52 53c23 0 43 -16 50 -37c7 21 26 37 50 37c23 0 43 -16 50 -37c7 21 26 37 50 37c23 0 43 -16 50 -37c5 16 17 29 33 34
c-21 7 -35 26 -35 50c0 23 14 43 35 50c-21 7 -35 26 -35 50zM85 437c0 29 22 53 52 53c23 0 43 -16 50 -37c7 21 26 37 50 37c23 0 43 -16 50 -37c7 21 26 37 50 37c29 0 53 -24 53 -53c0 -30 -24 -52 -53 -52c-24 0 -43 14 -50 35c-7 -21 -27 -35 -50 -35
c-24 0 -43 14 -50 35c-7 -21 -27 -35 -50 -35c-30 0 -52 22 -52 52zM85 -163c0 29 22 53 52 53c23 0 43 -15 50 -36c7 21 26 36 50 36c29 0 53 -24 53 -53c0 -30 -24 -52 -53 -52c-24 0 -43 14 -50 35c-7 -21 -27 -35 -50 -35c-30 0 -52 22 -52 52zM-15 337
c0 29 22 53 52 53c29 0 53 -24 53 -53c0 -24 -16 -43 -37 -50c21 -7 37 -27 37 -50c0 -30 -24 -52 -53 -52c-30 0 -52 22 -52 52c0 23 14 43 35 50c-21 7 -35 26 -35 50zM285 -63c0 29 22 53 52 53c29 0 53 -24 53 -53c0 -30 -24 -52 -53 -52c-30 0 -52 22 -52 52z" />
    <glyph glyph-name="colon" unicode=":" 
d="M185 137c0 29 22 53 52 53c29 0 53 -24 53 -53c0 -24 -16 -43 -37 -50c21 -7 37 -27 37 -50c0 -30 -24 -52 -53 -52c-30 0 -52 22 -52 52c0 23 14 43 35 50c-21 7 -35 26 -35 50zM185 437c0 29 22 53 52 53c29 0 53 -24 53 -53c0 -24 -16 -43 -37 -50
c21 -7 37 -27 37 -50c0 -30 -24 -52 -53 -52c-30 0 -52 22 -52 52c0 23 14 43 35 50c-21 7 -35 26 -35 50z" />
    <glyph glyph-name="semicolon" unicode=";" 
d="M185 137c0 29 22 53 52 53c29 0 53 -24 53 -53c0 -24 -16 -43 -37 -50c21 -7 37 -27 37 -50c0 -30 -24 -52 -53 -52c-30 0 -52 22 -52 52c0 23 14 43 35 50c-21 7 -35 26 -35 50zM185 437c0 29 22 53 52 53c29 0 53 -24 53 -53c0 -24 -16 -43 -37 -50
c21 -7 37 -27 37 -50c0 -30 -24 -52 -53 -52c-30 0 -52 22 -52 52c0 23 14 43 35 50c-21 7 -35 26 -35 50zM85 -63c0 29 22 53 52 53c29 0 53 -24 53 -53c0 -30 -24 -52 -53 -52c-30 0 -52 22 -52 52z" />
    <glyph glyph-name="less" unicode="&#x3c;" 
d="M285 37c0 29 22 53 52 53c29 0 53 -24 53 -53c0 -30 -24 -52 -53 -52c-30 0 -52 22 -52 52zM185 137c0 29 22 53 52 53c29 0 53 -24 53 -53c0 -30 -24 -52 -53 -52c-30 0 -52 22 -52 52zM85 237c0 29 22 53 52 53c29 0 53 -24 53 -53c0 -30 -24 -52 -53 -52
c-30 0 -52 22 -52 52zM185 337c0 29 22 53 52 53c29 0 53 -24 53 -53c0 -30 -24 -52 -53 -52c-30 0 -52 22 -52 52zM285 437c0 29 22 53 52 53c29 0 53 -24 53 -53c0 -30 -24 -52 -53 -52c-30 0 -52 22 -52 52z" />
    <glyph glyph-name="equal" unicode="=" 
d="M-15 337c0 29 22 53 52 53c23 0 43 -16 50 -37c7 21 26 37 50 37c23 0 43 -16 50 -37c7 21 26 37 50 37c23 0 43 -16 50 -37c7 21 26 37 50 37c23 0 43 -16 50 -37c7 21 26 37 50 37c29 0 53 -24 53 -53c0 -30 -24 -52 -53 -52c-24 0 -43 14 -50 35
c-7 -21 -27 -35 -50 -35c-24 0 -43 14 -50 35c-7 -21 -27 -35 -50 -35c-24 0 -43 14 -50 35c-7 -21 -27 -35 -50 -35c-24 0 -43 14 -50 35c-7 -21 -27 -35 -50 -35c-30 0 -52 22 -52 52zM-15 137c0 29 22 53 52 53c23 0 43 -16 50 -37c7 21 26 37 50 37c23 0 43 -16 50 -37
c7 21 26 37 50 37c23 0 43 -16 50 -37c7 21 26 37 50 37c23 0 43 -16 50 -37c7 21 26 37 50 37c29 0 53 -24 53 -53c0 -30 -24 -52 -53 -52c-24 0 -43 14 -50 35c-7 -21 -27 -35 -50 -35c-24 0 -43 14 -50 35c-7 -21 -27 -35 -50 -35c-24 0 -43 14 -50 35
c-7 -21 -27 -35 -50 -35c-24 0 -43 14 -50 35c-7 -21 -27 -35 -50 -35c-30 0 -52 22 -52 52z" />
    <glyph glyph-name="greater" unicode="&#x3e;" 
d="M185 37c0 29 22 53 52 53c29 0 53 -24 53 -53c0 -30 -24 -52 -53 -52c-30 0 -52 22 -52 52zM285 137c0 29 22 53 52 53c29 0 53 -24 53 -53c0 -30 -24 -52 -53 -52c-30 0 -52 22 -52 52zM385 237c0 29 22 53 52 53c29 0 53 -24 53 -53c0 -30 -24 -52 -53 -52
c-30 0 -52 22 -52 52zM285 337c0 29 22 53 52 53c29 0 53 -24 53 -53c0 -30 -24 -52 -53 -52c-30 0 -52 22 -52 52zM185 437c0 29 22 53 52 53c29 0 53 -24 53 -53c0 -30 -24 -52 -53 -52c-30 0 -52 22 -52 52z" />
    <glyph glyph-name="question" unicode="?" 
d="M85 637c0 29 22 53 52 53c23 0 43 -16 50 -37c7 21 26 37 50 37c23 0 43 -16 50 -37c7 21 26 37 50 37c29 0 53 -24 53 -53c0 -30 -24 -52 -53 -52c-24 0 -43 14 -50 35c-7 -21 -27 -35 -50 -35c-24 0 -43 14 -50 35c-7 -21 -27 -35 -50 -35c-30 0 -52 22 -52 52z
M185 137c0 29 22 53 52 53c29 0 53 -24 53 -53c0 -24 -16 -43 -37 -50c21 -7 37 -27 37 -50c0 -30 -24 -52 -53 -52c-30 0 -52 22 -52 52c0 23 14 43 35 50c-21 7 -35 26 -35 50zM385 537c0 29 22 53 52 53c29 0 53 -24 53 -53c0 -24 -16 -43 -37 -50c21 -7 37 -27 37 -50
c0 -30 -24 -52 -53 -52c-30 0 -52 22 -52 52c0 23 14 43 35 50c-21 7 -35 26 -35 50zM185 337c0 29 22 53 52 53c23 0 43 -16 50 -37c7 21 26 37 50 37c29 0 53 -24 53 -53c0 -30 -24 -52 -53 -52c-24 0 -43 14 -50 35c-7 -21 -27 -35 -50 -35c-30 0 -52 22 -52 52zM-15 537
c0 29 22 53 52 53c29 0 53 -24 53 -53c0 -30 -24 -52 -53 -52c-30 0 -52 22 -52 52z" />
    <glyph glyph-name="at" unicode="@" 
d="M385 537c0 29 22 53 52 53c29 0 53 -24 53 -53c0 -24 -16 -43 -37 -50c21 -7 37 -27 37 -50c0 -24 -16 -43 -37 -50c21 -7 37 -27 37 -50c0 -24 -16 -43 -37 -50c21 -7 37 -27 37 -50c0 -30 -24 -52 -53 -52c-24 0 -43 14 -50 35c-7 -21 -27 -35 -50 -35
c-24 0 -43 14 -50 35c-7 -21 -27 -35 -50 -35c-24 0 -43 14 -50 35c-7 -21 -27 -35 -50 -35c-24 0 -43 14 -50 35c-5 -16 -18 -28 -34 -33c21 -7 37 -27 37 -50c0 -30 -24 -52 -53 -52c-30 0 -52 22 -52 52c0 23 14 43 35 50c-21 7 -35 26 -35 50c0 23 14 43 35 50
c-21 7 -35 26 -35 50c0 23 14 43 35 50c-21 7 -35 26 -35 50c0 23 14 43 35 50c-21 7 -35 26 -35 50c0 29 22 53 52 53c29 0 53 -24 53 -53c0 -24 -16 -43 -37 -50c21 -7 37 -27 37 -50c0 -24 -16 -43 -37 -50c16 -5 29 -18 34 -34c7 21 26 37 50 37c29 0 53 -24 53 -53
c0 -24 -16 -43 -37 -50c16 -5 29 -18 34 -34c7 21 26 37 50 37c23 0 43 -16 50 -37c5 16 17 29 33 34c-21 7 -35 26 -35 50c0 23 14 43 35 50c-16 5 -28 17 -33 33c-7 -21 -27 -35 -50 -35c-30 0 -52 22 -52 52c0 29 22 53 52 53c23 0 43 -16 50 -37c7 21 26 37 50 37
c23 0 43 -16 50 -37c5 16 17 29 33 34c-21 7 -35 26 -35 50zM85 37c0 29 22 53 52 53c23 0 43 -16 50 -37c7 21 26 37 50 37c23 0 43 -16 50 -37c7 21 26 37 50 37c23 0 43 -16 50 -37c7 21 26 37 50 37c29 0 53 -24 53 -53c0 -30 -24 -52 -53 -52c-24 0 -43 14 -50 35
c-7 -21 -27 -35 -50 -35c-24 0 -43 14 -50 35c-7 -21 -27 -35 -50 -35c-24 0 -43 14 -50 35c-7 -21 -27 -35 -50 -35c-30 0 -52 22 -52 52zM85 637c0 29 22 53 52 53c23 0 43 -16 50 -37c7 21 26 37 50 37c23 0 43 -16 50 -37c7 21 26 37 50 37c29 0 53 -24 53 -53
c0 -30 -24 -52 -53 -52c-24 0 -43 14 -50 35c-7 -21 -27 -35 -50 -35c-24 0 -43 14 -50 35c-7 -21 -27 -35 -50 -35c-30 0 -52 22 -52 52zM53 287c16 -5 29 -18 34 -34c5 16 17 29 33 34c-16 5 -28 17 -33 33c-5 -16 -18 -28 -34 -33zM353 387c16 -5 29 -18 34 -34
c5 16 17 29 33 34c-16 5 -28 17 -33 33c-5 -16 -18 -28 -34 -33zM353 287c16 -5 29 -18 34 -34c5 16 17 29 33 34c-16 5 -28 17 -33 33c-5 -16 -18 -28 -34 -33z" />
    <glyph glyph-name="braceleft" unicode="{" 
d="M185 237c0 29 22 53 52 53c29 0 53 -24 53 -53c0 -24 -16 -43 -37 -50c21 -7 37 -27 37 -50c0 -30 -24 -52 -53 -52c-30 0 -52 22 -52 52c0 23 14 43 35 50c-21 7 -35 26 -35 50zM185 537c0 29 22 53 52 53c29 0 53 -24 53 -53c0 -24 -16 -43 -37 -50
c21 -7 37 -27 37 -50c0 -30 -24 -52 -53 -52c-30 0 -52 22 -52 52c0 23 14 43 35 50c-21 7 -35 26 -35 50zM85 337c0 29 22 53 52 53c29 0 53 -24 53 -53c0 -30 -24 -52 -53 -52c-30 0 -52 22 -52 52zM285 37c0 29 22 53 52 53c29 0 53 -24 53 -53c0 -30 -24 -52 -53 -52
c-30 0 -52 22 -52 52zM285 637c0 29 22 53 52 53c29 0 53 -24 53 -53c0 -30 -24 -52 -53 -52c-30 0 -52 22 -52 52z" />
    <glyph glyph-name="bar" unicode="|" 
d="M185 637c0 29 22 53 52 53c29 0 53 -24 53 -53c0 -24 -16 -43 -37 -50c21 -7 37 -27 37 -50c0 -24 -16 -43 -37 -50c21 -7 37 -27 37 -50c0 -24 -16 -43 -37 -50c21 -7 37 -27 37 -50c0 -24 -16 -43 -37 -50c21 -7 37 -27 37 -50c0 -24 -16 -43 -37 -50
c21 -7 37 -27 37 -50c0 -24 -16 -43 -37 -50c21 -7 37 -27 37 -50c0 -30 -24 -52 -53 -52c-30 0 -52 22 -52 52c0 23 14 43 35 50c-21 7 -35 26 -35 50c0 23 14 43 35 50c-21 7 -35 26 -35 50c0 23 14 43 35 50c-21 7 -35 26 -35 50c0 23 14 43 35 50c-21 7 -35 26 -35 50
c0 23 14 43 35 50c-21 7 -35 26 -35 50c0 23 14 43 35 50c-21 7 -35 26 -35 50z" />
    <glyph glyph-name="braceright" unicode="}" 
d="M285 237c0 29 22 53 52 53c29 0 53 -24 53 -53c0 -24 -16 -43 -37 -50c21 -7 37 -27 37 -50c0 -30 -24 -52 -53 -52c-30 0 -52 22 -52 52c0 23 14 43 35 50c-21 7 -35 26 -35 50zM285 537c0 29 22 53 52 53c29 0 53 -24 53 -53c0 -24 -16 -43 -37 -50
c21 -7 37 -27 37 -50c0 -30 -24 -52 -53 -52c-30 0 -52 22 -52 52c0 23 14 43 35 50c-21 7 -35 26 -35 50zM385 337c0 29 22 53 52 53c29 0 53 -24 53 -53c0 -30 -24 -52 -53 -52c-30 0 -52 22 -52 52zM185 37c0 29 22 53 52 53c29 0 53 -24 53 -53c0 -30 -24 -52 -53 -52
c-30 0 -52 22 -52 52zM185 637c0 29 22 53 52 53c29 0 53 -24 53 -53c0 -30 -24 -52 -53 -52c-30 0 -52 22 -52 52z" />
    <glyph glyph-name="asciitilde" unicode="~" 
d="M285 237c0 29 22 53 52 53c29 0 53 -24 53 -53c0 -30 -24 -52 -53 -52c-30 0 -52 22 -52 52zM-15 337c0 29 22 53 52 53c29 0 53 -24 53 -53c0 -30 -24 -52 -53 -52c-30 0 -52 22 -52 52zM185 337c0 29 22 53 52 53c29 0 53 -24 53 -53c0 -30 -24 -52 -53 -52
c-30 0 -52 22 -52 52zM385 337c0 29 22 53 52 53c29 0 53 -24 53 -53c0 -30 -24 -52 -53 -52c-30 0 -52 22 -52 52zM85 437c0 29 22 53 52 53c29 0 53 -24 53 -53c0 -30 -24 -52 -53 -52c-30 0 -52 22 -52 52z" />
    <glyph glyph-name="Euro" unicode="&#x20ac;" 
d="M85 537c0 29 22 53 52 53c29 0 53 -24 53 -53c0 -24 -16 -43 -37 -50c16 -5 29 -18 34 -34c7 21 26 37 50 37c23 0 43 -16 50 -37c7 21 26 37 50 37c29 0 53 -24 53 -53c0 -30 -24 -52 -53 -52c-24 0 -43 14 -50 35c-7 -21 -27 -35 -50 -35c-24 0 -43 14 -50 35
c-5 -16 -18 -28 -34 -33c21 -7 37 -27 37 -50c0 -24 -16 -43 -37 -50c16 -5 29 -18 34 -34c7 21 26 37 50 37c29 0 53 -24 53 -53c0 -30 -24 -52 -53 -52c-24 0 -43 14 -50 35c-5 -16 -18 -28 -34 -33c21 -7 37 -27 37 -50c0 -30 -24 -52 -53 -52c-30 0 -52 22 -52 52
c0 23 14 43 35 50c-16 5 -28 17 -33 33c-7 -21 -27 -35 -50 -35c-30 0 -52 22 -52 52c0 29 22 53 52 53c23 0 43 -16 50 -37c5 16 17 29 33 34c-21 7 -35 26 -35 50c0 23 14 43 35 50c-16 5 -28 17 -33 33c-7 -21 -27 -35 -50 -35c-30 0 -52 22 -52 52c0 29 22 53 52 53
c23 0 43 -16 50 -37c5 16 17 29 33 34c-21 7 -35 26 -35 50zM185 37c0 29 22 53 52 53c23 0 43 -16 50 -37c7 21 26 37 50 37c23 0 43 -16 50 -37c7 21 26 37 50 37c29 0 53 -24 53 -53c0 -30 -24 -52 -53 -52c-24 0 -43 14 -50 35c-7 -21 -27 -35 -50 -35
c-24 0 -43 14 -50 35c-7 -21 -27 -35 -50 -35c-30 0 -52 22 -52 52zM185 637c0 29 22 53 52 53c23 0 43 -16 50 -37c7 21 26 37 50 37c23 0 43 -16 50 -37c7 21 26 37 50 37c29 0 53 -24 53 -53c0 -30 -24 -52 -53 -52c-24 0 -43 14 -50 35c-7 -21 -27 -35 -50 -35
c-24 0 -43 14 -50 35c-7 -21 -27 -35 -50 -35c-30 0 -52 22 -52 52z" />
    <glyph glyph-name="quotesinglbase" unicode="&#x201a;" 
d="M285 137c0 29 22 53 52 53c29 0 53 -24 53 -53c0 -24 -16 -43 -37 -50c21 -7 37 -27 37 -50c0 -30 -24 -52 -53 -52c-30 0 -52 22 -52 52c0 23 14 43 35 50c-21 7 -35 26 -35 50zM185 -63c0 29 22 53 52 53c29 0 53 -24 53 -53c0 -30 -24 -52 -53 -52
c-30 0 -52 22 -52 52z" />
    <glyph glyph-name="florin" unicode="&#x192;" 
d="M185 -63c0 23 14 44 35 51c-21 6 -35 25 -35 49c0 23 14 43 35 50c-21 7 -35 26 -35 50c0 23 14 43 35 50c-21 7 -35 26 -35 50c0 23 14 43 35 50c-21 7 -35 26 -35 50c0 23 14 43 35 50c-16 5 -28 17 -33 33c-7 -21 -27 -35 -50 -35c-30 0 -52 22 -52 52
c0 29 22 53 52 53c23 0 43 -16 50 -37c5 16 17 29 33 34c-21 7 -35 26 -35 50c0 29 22 53 52 53c29 0 53 -24 53 -53c0 -24 -16 -43 -37 -50c16 -5 29 -18 34 -34c7 21 26 37 50 37c23 0 43 -16 50 -37c7 21 26 37 50 37c29 0 53 -24 53 -53c0 -30 -24 -52 -53 -52
c-24 0 -43 14 -50 35c-7 -21 -27 -35 -50 -35c-24 0 -43 14 -50 35c-5 -16 -18 -28 -34 -33c21 -7 37 -27 37 -50c0 -24 -16 -43 -37 -50c21 -7 37 -27 37 -50c0 -24 -16 -43 -37 -50c21 -7 37 -27 37 -50c0 -24 -16 -43 -37 -50c21 -7 37 -27 37 -50c0 -24 -16 -43 -37 -49
c21 -7 37 -28 37 -51c0 -30 -24 -52 -53 -52c-30 0 -52 22 -52 52zM-15 -163c0 29 22 53 52 53c23 0 43 -15 50 -36c7 21 26 36 50 36c29 0 53 -24 53 -53c0 -30 -24 -52 -53 -52c-24 0 -43 14 -50 35c-7 -21 -27 -35 -50 -35c-30 0 -52 22 -52 52zM285 637
c0 29 22 53 52 53c23 0 43 -16 50 -37c7 21 26 37 50 37c29 0 53 -24 53 -53c0 -30 -24 -52 -53 -52c-24 0 -43 14 -50 35c-7 -21 -27 -35 -50 -35c-30 0 -52 22 -52 52z" />
    <glyph glyph-name="quotedblbase" unicode="&#x201e;" 
d="M185 137c0 29 22 53 52 53c29 0 53 -24 53 -53c0 -24 -16 -43 -37 -50c21 -7 37 -27 37 -50c0 -30 -24 -52 -53 -52c-30 0 -52 22 -52 52c0 23 14 43 35 50c-21 7 -35 26 -35 50zM385 137c0 29 22 53 52 53c29 0 53 -24 53 -53c0 -24 -16 -43 -37 -50
c21 -7 37 -27 37 -50c0 -30 -24 -52 -53 -52c-30 0 -52 22 -52 52c0 23 14 43 35 50c-21 7 -35 26 -35 50zM285 -63c0 29 22 53 52 53c29 0 53 -24 53 -53c0 -30 -24 -52 -53 -52c-30 0 -52 22 -52 52zM85 -63c0 29 22 53 52 53c29 0 53 -24 53 -53c0 -30 -24 -52 -53 -52
c-30 0 -52 22 -52 52z" />
    <glyph glyph-name="ellipsis" unicode="&#x2026;" 
d="M-15 137c0 29 22 53 52 53c29 0 53 -24 53 -53c0 -24 -16 -43 -37 -50c21 -7 37 -27 37 -50c0 -30 -24 -52 -53 -52c-30 0 -52 22 -52 52c0 23 14 43 35 50c-21 7 -35 26 -35 50zM385 137c0 29 22 53 52 53c29 0 53 -24 53 -53c0 -24 -16 -43 -37 -50
c21 -7 37 -27 37 -50c0 -30 -24 -52 -53 -52c-30 0 -52 22 -52 52c0 23 14 43 35 50c-21 7 -35 26 -35 50zM185 137c0 29 22 53 52 53c29 0 53 -24 53 -53c0 -24 -16 -43 -37 -50c21 -7 37 -27 37 -50c0 -30 -24 -52 -53 -52c-30 0 -52 22 -52 52c0 23 14 43 35 50
c-21 7 -35 26 -35 50z" />
    <glyph glyph-name="dagger" unicode="&#x2020;" 
d="M185 637c0 29 22 53 52 53c29 0 53 -24 53 -53c0 -24 -16 -43 -37 -50c21 -7 37 -27 37 -50c0 -24 -16 -43 -37 -50c16 -5 29 -18 34 -34c7 21 26 37 50 37c29 0 53 -24 53 -53c0 -30 -24 -52 -53 -52c-24 0 -43 14 -50 35c-5 -16 -18 -28 -34 -33c21 -7 37 -27 37 -50
c0 -24 -16 -43 -37 -50c21 -7 37 -27 37 -50c0 -24 -16 -43 -37 -50c21 -7 37 -27 37 -50c0 -24 -16 -43 -37 -50c21 -7 37 -27 37 -50c0 -30 -24 -52 -53 -52c-30 0 -52 22 -52 52c0 23 14 43 35 50c-21 7 -35 26 -35 50c0 23 14 43 35 50c-21 7 -35 26 -35 50
c0 23 14 43 35 50c-21 7 -35 26 -35 50c0 23 14 43 35 50c-16 5 -28 17 -33 33c-7 -21 -27 -35 -50 -35c-30 0 -52 22 -52 52c0 29 22 53 52 53c23 0 43 -16 50 -37c5 16 17 29 33 34c-21 7 -35 26 -35 50c0 23 14 43 35 50c-21 7 -35 26 -35 50z" />
    <glyph glyph-name="daggerdbl" unicode="&#x2021;" 
d="M185 637c0 29 22 53 52 53c29 0 53 -24 53 -53c0 -24 -16 -43 -37 -50c21 -7 37 -27 37 -50c0 -24 -16 -43 -37 -50c16 -5 29 -18 34 -34c7 21 26 37 50 37c29 0 53 -24 53 -53c0 -30 -24 -52 -53 -52c-24 0 -43 14 -50 35c-5 -16 -18 -28 -34 -33c21 -7 37 -27 37 -50
c0 -24 -16 -43 -37 -50c16 -5 29 -18 34 -34c7 21 26 37 50 37c29 0 53 -24 53 -53c0 -30 -24 -52 -53 -52c-24 0 -43 14 -50 35c-5 -16 -18 -28 -34 -33c21 -7 37 -27 37 -50c0 -24 -16 -43 -37 -50c21 -7 37 -27 37 -50c0 -30 -24 -52 -53 -52c-30 0 -52 22 -52 52
c0 23 14 43 35 50c-21 7 -35 26 -35 50c0 23 14 43 35 50c-16 5 -28 17 -33 33c-7 -21 -27 -35 -50 -35c-30 0 -52 22 -52 52c0 29 22 53 52 53c23 0 43 -16 50 -37c5 16 17 29 33 34c-21 7 -35 26 -35 50c0 23 14 43 35 50c-16 5 -28 17 -33 33c-7 -21 -27 -35 -50 -35
c-30 0 -52 22 -52 52c0 29 22 53 52 53c23 0 43 -16 50 -37c5 16 17 29 33 34c-21 7 -35 26 -35 50c0 23 14 43 35 50c-21 7 -35 26 -35 50z" />
    <glyph glyph-name="perthousand" unicode="&#x2030;" 
d="M-15 137c0 29 22 53 52 53c29 0 53 -24 53 -53c0 -24 -16 -43 -37 -50c21 -7 37 -27 37 -50c0 -30 -24 -52 -53 -52c-30 0 -52 22 -52 52c0 23 14 43 35 50c-21 7 -35 26 -35 50zM85 337c0 29 22 53 52 53c29 0 53 -24 53 -53c0 -24 -16 -43 -37 -50c21 -7 37 -27 37 -50
c0 -30 -24 -52 -53 -52c-30 0 -52 22 -52 52c0 23 14 43 35 50c-21 7 -35 26 -35 50zM-15 637c0 29 22 53 52 53c29 0 53 -24 53 -53c0 -24 -16 -43 -37 -50c21 -7 37 -27 37 -50c0 -30 -24 -52 -53 -52c-30 0 -52 22 -52 52c0 23 14 43 35 50c-21 7 -35 26 -35 50zM285 637
c0 29 22 53 52 53c29 0 53 -24 53 -53c0 -24 -16 -43 -37 -50c21 -7 37 -27 37 -50c0 -30 -24 -52 -53 -52c-30 0 -52 22 -52 52c0 23 14 43 35 50c-21 7 -35 26 -35 50zM185 137c0 29 22 53 52 53c29 0 53 -24 53 -53c0 -24 -16 -43 -37 -50c21 -7 37 -27 37 -50
c0 -30 -24 -52 -53 -52c-30 0 -52 22 -52 52c0 23 14 43 35 50c-21 7 -35 26 -35 50zM385 137c0 29 22 53 52 53c29 0 53 -24 53 -53c0 -24 -16 -43 -37 -50c21 -7 37 -27 37 -50c0 -30 -24 -52 -53 -52c-30 0 -52 22 -52 52c0 23 14 43 35 50c-21 7 -35 26 -35 50zM185 437
c0 29 22 53 52 53c29 0 53 -24 53 -53c0 -30 -24 -52 -53 -52c-30 0 -52 22 -52 52z" />
    <glyph glyph-name="guilsinglleft" unicode="&#x2039;" 
d="M285 37c0 29 22 53 52 53c29 0 53 -24 53 -53c0 -30 -24 -52 -53 -52c-30 0 -52 22 -52 52zM185 137c0 29 22 53 52 53c29 0 53 -24 53 -53c0 -30 -24 -52 -53 -52c-30 0 -52 22 -52 52zM85 237c0 29 22 53 52 53c29 0 53 -24 53 -53c0 -30 -24 -52 -53 -52
c-30 0 -52 22 -52 52zM185 337c0 29 22 53 52 53c29 0 53 -24 53 -53c0 -30 -24 -52 -53 -52c-30 0 -52 22 -52 52zM285 437c0 29 22 53 52 53c29 0 53 -24 53 -53c0 -30 -24 -52 -53 -52c-30 0 -52 22 -52 52z" />
    <glyph glyph-name="quoteleft" unicode="&#x2018;" 
d="M185 537c0 29 22 53 52 53c29 0 53 -24 53 -53c0 -24 -16 -43 -37 -50c21 -7 37 -27 37 -50c0 -30 -24 -52 -53 -52c-30 0 -52 22 -52 52c0 23 14 43 35 50c-21 7 -35 26 -35 50zM285 637c0 29 22 53 52 53c29 0 53 -24 53 -53c0 -30 -24 -52 -53 -52
c-30 0 -52 22 -52 52z" />
    <glyph glyph-name="quoteright" unicode="&#x2019;" 
d="M285 637c0 29 22 53 52 53c29 0 53 -24 53 -53c0 -24 -16 -43 -37 -50c21 -7 37 -27 37 -50c0 -30 -24 -52 -53 -52c-30 0 -52 22 -52 52c0 23 14 43 35 50c-21 7 -35 26 -35 50zM185 437c0 29 22 53 52 53c29 0 53 -24 53 -53c0 -30 -24 -52 -53 -52
c-30 0 -52 22 -52 52z" />
    <glyph glyph-name="quotedblleft" unicode="&#x201c;" 
d="M85 537c0 29 22 53 52 53c29 0 53 -24 53 -53c0 -24 -16 -43 -37 -50c21 -7 37 -27 37 -50c0 -30 -24 -52 -53 -52c-30 0 -52 22 -52 52c0 23 14 43 35 50c-21 7 -35 26 -35 50zM285 537c0 29 22 53 52 53c29 0 53 -24 53 -53c0 -24 -16 -43 -37 -50c21 -7 37 -27 37 -50
c0 -30 -24 -52 -53 -52c-30 0 -52 22 -52 52c0 23 14 43 35 50c-21 7 -35 26 -35 50zM185 637c0 29 22 53 52 53c29 0 53 -24 53 -53c0 -30 -24 -52 -53 -52c-30 0 -52 22 -52 52zM385 637c0 29 22 53 52 53c29 0 53 -24 53 -53c0 -30 -24 -52 -53 -52c-30 0 -52 22 -52 52z
" />
    <glyph glyph-name="quotedblright" unicode="&#x201d;" 
d="M185 637c0 29 22 53 52 53c29 0 53 -24 53 -53c0 -24 -16 -43 -37 -50c21 -7 37 -27 37 -50c0 -30 -24 -52 -53 -52c-30 0 -52 22 -52 52c0 23 14 43 35 50c-21 7 -35 26 -35 50zM385 637c0 29 22 53 52 53c29 0 53 -24 53 -53c0 -24 -16 -43 -37 -50
c21 -7 37 -27 37 -50c0 -30 -24 -52 -53 -52c-30 0 -52 22 -52 52c0 23 14 43 35 50c-21 7 -35 26 -35 50zM285 437c0 29 22 53 52 53c29 0 53 -24 53 -53c0 -30 -24 -52 -53 -52c-30 0 -52 22 -52 52zM85 437c0 29 22 53 52 53c29 0 53 -24 53 -53c0 -30 -24 -52 -53 -52
c-30 0 -52 22 -52 52z" />
    <glyph glyph-name="bullet" unicode="&#x2022;" 
d="M-15 437c0 29 22 53 52 53c23 0 43 -16 50 -37c7 21 26 37 50 37c23 0 43 -16 50 -37c7 21 26 37 50 37c29 0 53 -24 53 -53c0 -24 -16 -43 -37 -50c21 -7 37 -27 37 -50c0 -24 -16 -43 -37 -50c21 -7 37 -27 37 -50c0 -30 -24 -52 -53 -52c-24 0 -43 14 -50 35
c-7 -21 -27 -35 -50 -35c-24 0 -43 14 -50 35c-7 -21 -27 -35 -50 -35c-30 0 -52 22 -52 52c0 23 14 43 35 50c-21 7 -35 26 -35 50c0 23 14 43 35 50c-21 7 -35 26 -35 50zM53 387c16 -5 29 -18 34 -34c5 16 17 29 33 34c-16 5 -28 17 -33 33c-5 -16 -18 -28 -34 -33z
M53 287c16 -5 29 -18 34 -34c5 16 17 29 33 34c-16 5 -28 17 -33 33c-5 -16 -18 -28 -34 -33zM153 287c16 -5 29 -18 34 -34c5 16 17 29 33 34c-16 5 -28 17 -33 33c-5 -16 -18 -28 -34 -33zM153 387c16 -5 29 -18 34 -34c5 16 17 29 33 34c-16 5 -28 17 -33 33
c-5 -16 -18 -28 -34 -33z" />
    <glyph glyph-name="endash" unicode="&#x2013;" 
d="M85 237c0 29 22 53 52 53c23 0 43 -16 50 -37c7 21 26 37 50 37c23 0 43 -16 50 -37c7 21 26 37 50 37c29 0 53 -24 53 -53c0 -30 -24 -52 -53 -52c-24 0 -43 14 -50 35c-7 -21 -27 -35 -50 -35c-24 0 -43 14 -50 35c-7 -21 -27 -35 -50 -35c-30 0 -52 22 -52 52z" />
    <glyph glyph-name="emdash" unicode="&#x2014;" 
d="M-15 237c0 29 22 53 52 53c23 0 43 -16 50 -37c7 21 26 37 50 37c23 0 43 -16 50 -37c7 21 26 37 50 37c23 0 43 -16 50 -37c7 21 26 37 50 37c23 0 43 -16 50 -37c7 21 26 37 50 37c29 0 53 -24 53 -53c0 -30 -24 -52 -53 -52c-24 0 -43 14 -50 35
c-7 -21 -27 -35 -50 -35c-24 0 -43 14 -50 35c-7 -21 -27 -35 -50 -35c-24 0 -43 14 -50 35c-7 -21 -27 -35 -50 -35c-24 0 -43 14 -50 35c-7 -21 -27 -35 -50 -35c-30 0 -52 22 -52 52z" />
    <glyph glyph-name="trademark" unicode="&#x2122;" 
d="M285 537c0 23 14 43 35 50c-16 5 -28 17 -33 33c-7 -21 -27 -35 -50 -35c-24 0 -43 14 -50 35c-5 -16 -18 -28 -34 -33c21 -7 37 -27 37 -50c0 -24 -16 -43 -37 -50c21 -7 37 -27 37 -50c0 -30 -24 -52 -53 -52c-30 0 -52 22 -52 52c0 23 14 43 35 50
c-21 7 -35 26 -35 50c0 23 14 43 35 50c-16 5 -28 17 -33 33c-7 -21 -27 -35 -50 -35c-30 0 -52 22 -52 52c0 29 22 53 52 53c23 0 43 -16 50 -37c7 21 26 37 50 37c23 0 43 -16 50 -37c7 21 26 37 50 37c23 0 43 -16 50 -37c7 21 26 37 50 37c29 0 53 -24 53 -53
c0 -24 -16 -43 -37 -50c16 -5 29 -18 34 -34c7 21 26 37 50 37c23 0 43 -16 50 -37c5 16 17 29 33 34c-21 7 -35 26 -35 50c0 29 22 53 52 53c29 0 53 -24 53 -53c0 -24 -16 -43 -37 -50c21 -7 37 -27 37 -50c0 -24 -16 -43 -37 -50c21 -7 37 -27 37 -50
c0 -30 -24 -52 -53 -52c-30 0 -52 22 -52 52c0 23 14 43 35 50c-16 5 -28 17 -33 33c-7 -21 -27 -35 -50 -35c-24 0 -43 14 -50 35c-5 -16 -18 -28 -34 -33c21 -7 37 -27 37 -50c0 -30 -24 -52 -53 -52c-30 0 -52 22 -52 52c0 23 14 43 35 50c-21 7 -35 26 -35 50z" />
    <glyph glyph-name="guilsinglright" unicode="&#x203a;" 
d="M185 37c0 29 22 53 52 53c29 0 53 -24 53 -53c0 -30 -24 -52 -53 -52c-30 0 -52 22 -52 52zM285 137c0 29 22 53 52 53c29 0 53 -24 53 -53c0 -30 -24 -52 -53 -52c-30 0 -52 22 -52 52zM385 237c0 29 22 53 52 53c29 0 53 -24 53 -53c0 -30 -24 -52 -53 -52
c-30 0 -52 22 -52 52zM285 337c0 29 22 53 52 53c29 0 53 -24 53 -53c0 -30 -24 -52 -53 -52c-30 0 -52 22 -52 52zM185 437c0 29 22 53 52 53c29 0 53 -24 53 -53c0 -30 -24 -52 -53 -52c-30 0 -52 22 -52 52z" />
    <glyph glyph-name="sterling" unicode="&#xa3;" 
d="M85 537c0 29 22 53 52 53c29 0 53 -24 53 -53c0 -24 -16 -43 -37 -50c21 -7 37 -27 37 -50c0 -24 -16 -43 -37 -50c16 -5 29 -18 34 -34c7 21 26 37 50 37c23 0 43 -16 50 -37c7 21 26 37 50 37c29 0 53 -24 53 -53c0 -30 -24 -52 -53 -52c-24 0 -43 14 -50 35
c-7 -21 -27 -35 -50 -35c-24 0 -43 14 -50 35c-5 -16 -18 -28 -34 -33c21 -7 37 -27 37 -50c0 -24 -16 -43 -37 -50c21 -7 37 -27 37 -50c0 -24 -16 -43 -37 -50c16 -5 29 -18 34 -34c7 21 26 37 50 37c23 0 43 -16 50 -37c7 21 26 37 50 37c23 0 43 -16 50 -37
c7 21 26 37 50 37c29 0 53 -24 53 -53c0 -30 -24 -52 -53 -52c-24 0 -43 14 -50 35c-7 -21 -27 -35 -50 -35c-24 0 -43 14 -50 35c-7 -21 -27 -35 -50 -35c-24 0 -43 14 -50 35c-7 -21 -27 -35 -50 -35c-24 0 -43 14 -50 35c-7 -21 -27 -35 -50 -35c-30 0 -52 22 -52 52
c0 29 22 53 52 53c23 0 43 -16 50 -37c5 16 17 29 33 34c-21 7 -35 26 -35 50c0 23 14 43 35 50c-21 7 -35 26 -35 50c0 23 14 43 35 50c-16 5 -28 17 -33 33c-7 -21 -27 -35 -50 -35c-30 0 -52 22 -52 52c0 29 22 53 52 53c23 0 43 -16 50 -37c5 16 17 29 33 34
c-21 7 -35 26 -35 50c0 23 14 43 35 50c-21 7 -35 26 -35 50zM185 637c0 29 22 53 52 53c23 0 43 -16 50 -37c7 21 26 37 50 37c29 0 53 -24 53 -53c0 -30 -24 -52 -53 -52c-24 0 -43 14 -50 35c-7 -21 -27 -35 -50 -35c-30 0 -52 22 -52 52zM385 537c0 29 22 53 52 53
c29 0 53 -24 53 -53c0 -30 -24 -52 -53 -52c-30 0 -52 22 -52 52z" />
    <glyph glyph-name="currency" unicode="&#xa4;" 
d="M85 337c0 29 22 53 52 53c23 0 43 -16 50 -37c7 21 26 37 50 37c23 0 43 -16 50 -37c7 21 26 37 50 37c29 0 53 -24 53 -53c0 -24 -16 -43 -37 -50c21 -7 37 -27 37 -50c0 -24 -16 -43 -37 -50c21 -7 37 -27 37 -50c0 -30 -24 -52 -53 -52c-24 0 -43 14 -50 35
c-7 -21 -27 -35 -50 -35c-24 0 -43 14 -50 35c-7 -21 -27 -35 -50 -35c-30 0 -52 22 -52 52c0 23 14 43 35 50c-21 7 -35 26 -35 50c0 23 14 43 35 50c-21 7 -35 26 -35 50zM285 237c0 23 14 43 35 50c-16 5 -28 17 -33 33c-7 -21 -27 -35 -50 -35c-24 0 -43 14 -50 35
c-5 -16 -18 -28 -34 -33c21 -7 37 -27 37 -50c0 -24 -16 -43 -37 -50c16 -5 29 -18 34 -34c7 21 26 37 50 37c23 0 43 -16 50 -37c5 16 17 29 33 34c-21 7 -35 26 -35 50zM385 37c0 29 22 53 52 53c29 0 53 -24 53 -53c0 -30 -24 -52 -53 -52c-30 0 -52 22 -52 52zM-15 37
c0 29 22 53 52 53c29 0 53 -24 53 -53c0 -30 -24 -52 -53 -52c-30 0 -52 22 -52 52zM-15 437c0 29 22 53 52 53c29 0 53 -24 53 -53c0 -30 -24 -52 -53 -52c-30 0 -52 22 -52 52zM385 437c0 29 22 53 52 53c29 0 53 -24 53 -53c0 -30 -24 -52 -53 -52c-30 0 -52 22 -52 52z
" />
    <glyph glyph-name="yen" unicode="&#xa5;" 
d="M185 337c0 29 22 53 52 53c29 0 53 -24 53 -53c0 -24 -16 -43 -37 -50c16 -5 29 -18 34 -34c7 21 26 37 50 37c23 0 43 -16 50 -37c7 21 26 37 50 37c29 0 53 -24 53 -53c0 -30 -24 -52 -53 -52c-24 0 -43 14 -50 35c-7 -21 -27 -35 -50 -35c-24 0 -43 14 -50 35
c-5 -16 -18 -28 -34 -33c21 -7 37 -27 37 -50c0 -24 -16 -43 -37 -50c21 -7 37 -27 37 -50c0 -30 -24 -52 -53 -52c-30 0 -52 22 -52 52c0 23 14 43 35 50c-21 7 -35 26 -35 50c0 23 14 43 35 50c-16 5 -28 17 -33 33c-7 -21 -27 -35 -50 -35c-24 0 -43 14 -50 35
c-7 -21 -27 -35 -50 -35c-30 0 -52 22 -52 52c0 29 22 53 52 53c23 0 43 -16 50 -37c7 21 26 37 50 37c23 0 43 -16 50 -37c5 16 17 29 33 34c-21 7 -35 26 -35 50zM-15 637c0 29 22 53 52 53c29 0 53 -24 53 -53c0 -24 -16 -43 -37 -50c21 -7 37 -27 37 -50
c0 -30 -24 -52 -53 -52c-30 0 -52 22 -52 52c0 23 14 43 35 50c-21 7 -35 26 -35 50zM385 637c0 29 22 53 52 53c29 0 53 -24 53 -53c0 -24 -16 -43 -37 -50c21 -7 37 -27 37 -50c0 -30 -24 -52 -53 -52c-30 0 -52 22 -52 52c0 23 14 43 35 50c-21 7 -35 26 -35 50zM285 437
c0 29 22 53 52 53c29 0 53 -24 53 -53c0 -30 -24 -52 -53 -52c-30 0 -52 22 -52 52zM85 437c0 29 22 53 52 53c29 0 53 -24 53 -53c0 -30 -24 -52 -53 -52c-30 0 -52 22 -52 52z" />
    <glyph glyph-name="brokenbar" unicode="&#xa6;" 
d="M185 237c0 29 22 53 52 53c29 0 53 -24 53 -53c0 -24 -16 -43 -37 -50c21 -7 37 -27 37 -50c0 -24 -16 -43 -37 -50c21 -7 37 -27 37 -50c0 -30 -24 -52 -53 -52c-30 0 -52 22 -52 52c0 23 14 43 35 50c-21 7 -35 26 -35 50c0 23 14 43 35 50c-21 7 -35 26 -35 50z
M185 637c0 29 22 53 52 53c29 0 53 -24 53 -53c0 -24 -16 -43 -37 -50c21 -7 37 -27 37 -50c0 -24 -16 -43 -37 -50c21 -7 37 -27 37 -50c0 -30 -24 -52 -53 -52c-30 0 -52 22 -52 52c0 23 14 43 35 50c-21 7 -35 26 -35 50c0 23 14 43 35 50c-21 7 -35 26 -35 50z" />
    <glyph glyph-name="section" unicode="&#xa7;" 
d="M85 37c0 29 22 53 52 53c23 0 43 -16 50 -37c7 21 26 37 50 37c23 0 43 -16 50 -37c7 21 26 37 50 37c29 0 53 -24 53 -53c0 -30 -24 -52 -53 -52c-24 0 -43 14 -50 35c-7 -21 -27 -35 -50 -35c-24 0 -43 14 -50 35c-7 -21 -27 -35 -50 -35c-30 0 -52 22 -52 52zM185 637
c0 29 22 53 52 53c23 0 43 -16 50 -37c7 21 26 37 50 37c23 0 43 -16 50 -37c7 21 26 37 50 37c29 0 53 -24 53 -53c0 -30 -24 -52 -53 -52c-24 0 -43 14 -50 35c-7 -21 -27 -35 -50 -35c-24 0 -43 14 -50 35c-7 -21 -27 -35 -50 -35c-30 0 -52 22 -52 52zM185 237
c0 29 22 53 52 53c23 0 43 -16 50 -37c7 21 26 37 50 37c29 0 53 -24 53 -53c0 -30 -24 -52 -53 -52c-24 0 -43 14 -50 35c-7 -21 -27 -35 -50 -35c-30 0 -52 22 -52 52zM185 437c0 29 22 53 52 53c23 0 43 -16 50 -37c7 21 26 37 50 37c29 0 53 -24 53 -53
c0 -30 -24 -52 -53 -52c-24 0 -43 14 -50 35c-7 -21 -27 -35 -50 -35c-30 0 -52 22 -52 52zM85 537c0 29 22 53 52 53c29 0 53 -24 53 -53c0 -30 -24 -52 -53 -52c-30 0 -52 22 -52 52zM385 337c0 29 22 53 52 53c29 0 53 -24 53 -53c0 -30 -24 -52 -53 -52
c-30 0 -52 22 -52 52zM385 137c0 29 22 53 52 53c29 0 53 -24 53 -53c0 -30 -24 -52 -53 -52c-30 0 -52 22 -52 52zM85 337c0 29 22 53 52 53c29 0 53 -24 53 -53c0 -30 -24 -52 -53 -52c-30 0 -52 22 -52 52z" />
    <glyph glyph-name="dieresis" unicode="&#xa8;" 
d="M-15 737c0 29 22 53 52 53c29 0 53 -24 53 -53c0 -24 -16 -43 -37 -50c21 -7 37 -27 37 -50c0 -30 -24 -52 -53 -52c-30 0 -52 22 -52 52c0 23 14 43 35 50c-21 7 -35 26 -35 50zM385 737c0 29 22 53 52 53c29 0 53 -24 53 -53c0 -24 -16 -43 -37 -50
c21 -7 37 -27 37 -50c0 -30 -24 -52 -53 -52c-30 0 -52 22 -52 52c0 23 14 43 35 50c-21 7 -35 26 -35 50z" />
    <glyph glyph-name="copyright" unicode="&#xa9;" 
d="M185 137c0 29 22 53 52 53c29 0 53 -24 53 -53c0 -24 -16 -43 -37 -50c16 -5 29 -18 34 -34c7 21 26 37 50 37c29 0 53 -24 53 -53c0 -30 -24 -52 -53 -52c-24 0 -43 14 -50 35c-7 -21 -27 -35 -50 -35c-24 0 -43 14 -50 35c-7 -21 -27 -35 -50 -35c-30 0 -52 22 -52 52
c0 29 22 53 52 53c23 0 43 -16 50 -37c5 16 17 29 33 34c-21 7 -35 26 -35 50zM-15 337c0 29 22 53 52 53c29 0 53 -24 53 -53c0 -24 -16 -43 -37 -50c16 -5 29 -18 34 -34c7 21 26 37 50 37c29 0 53 -24 53 -53c0 -30 -24 -52 -53 -52c-24 0 -43 14 -50 35
c-5 -16 -18 -28 -34 -33c21 -7 37 -27 37 -50c0 -30 -24 -52 -53 -52c-30 0 -52 22 -52 52c0 23 14 43 35 50c-21 7 -35 26 -35 50c0 23 14 43 35 50c-21 7 -35 26 -35 50zM85 437c0 29 22 53 52 53c23 0 43 -16 50 -37c7 21 26 37 50 37c23 0 43 -16 50 -37
c7 21 26 37 50 37c29 0 53 -24 53 -53c0 -30 -24 -52 -53 -52c-24 0 -43 14 -50 35c-5 -16 -18 -28 -34 -33c21 -7 37 -27 37 -50c0 -30 -24 -52 -53 -52c-30 0 -52 22 -52 52c0 23 14 43 35 50c-16 5 -28 17 -33 33c-7 -21 -27 -35 -50 -35c-30 0 -52 22 -52 52zM385 337
c0 29 22 53 52 53c29 0 53 -24 53 -53c0 -24 -16 -43 -37 -50c21 -7 37 -27 37 -50c0 -24 -16 -43 -37 -50c21 -7 37 -27 37 -50c0 -30 -24 -52 -53 -52c-30 0 -52 22 -52 52c0 23 14 43 35 50c-21 7 -35 26 -35 50c0 23 14 43 35 50c-21 7 -35 26 -35 50z" />
    <glyph glyph-name="guillemotleft" unicode="&#xab;" 
d="M385 37c0 29 22 53 52 53c29 0 53 -24 53 -53c0 -30 -24 -52 -53 -52c-30 0 -52 22 -52 52zM285 137c0 29 22 53 52 53c29 0 53 -24 53 -53c0 -30 -24 -52 -53 -52c-30 0 -52 22 -52 52zM185 237c0 29 22 53 52 53c29 0 53 -24 53 -53c0 -30 -24 -52 -53 -52
c-30 0 -52 22 -52 52zM285 337c0 29 22 53 52 53c29 0 53 -24 53 -53c0 -30 -24 -52 -53 -52c-30 0 -52 22 -52 52zM385 437c0 29 22 53 52 53c29 0 53 -24 53 -53c0 -30 -24 -52 -53 -52c-30 0 -52 22 -52 52zM185 37c0 29 22 53 52 53c29 0 53 -24 53 -53
c0 -30 -24 -52 -53 -52c-30 0 -52 22 -52 52zM85 137c0 29 22 53 52 53c29 0 53 -24 53 -53c0 -30 -24 -52 -53 -52c-30 0 -52 22 -52 52zM-15 237c0 29 22 53 52 53c29 0 53 -24 53 -53c0 -30 -24 -52 -53 -52c-30 0 -52 22 -52 52zM85 337c0 29 22 53 52 53
c29 0 53 -24 53 -53c0 -30 -24 -52 -53 -52c-30 0 -52 22 -52 52zM185 437c0 29 22 53 52 53c29 0 53 -24 53 -53c0 -30 -24 -52 -53 -52c-30 0 -52 22 -52 52z" />
    <glyph glyph-name="logicalnot" unicode="&#xac;" 
d="M385 37c0 23 14 43 35 50c-21 7 -35 26 -35 50c0 23 14 43 35 50c-16 5 -28 17 -33 33c-7 -21 -27 -35 -50 -35c-24 0 -43 14 -50 35c-7 -21 -27 -35 -50 -35c-24 0 -43 14 -50 35c-7 -21 -27 -35 -50 -35c-24 0 -43 14 -50 35c-7 -21 -27 -35 -50 -35
c-30 0 -52 22 -52 52c0 29 22 53 52 53c23 0 43 -16 50 -37c7 21 26 37 50 37c23 0 43 -16 50 -37c7 21 26 37 50 37c23 0 43 -16 50 -37c7 21 26 37 50 37c23 0 43 -16 50 -37c7 21 26 37 50 37c29 0 53 -24 53 -53c0 -24 -16 -43 -37 -50c21 -7 37 -27 37 -50
c0 -24 -16 -43 -37 -50c21 -7 37 -27 37 -50c0 -30 -24 -52 -53 -52c-30 0 -52 22 -52 52z" />
    <glyph glyph-name="uni00AD" unicode="&#xad;" 
d="M85 237c0 29 22 53 52 53c23 0 43 -16 50 -37c7 21 26 37 50 37c23 0 43 -16 50 -37c7 21 26 37 50 37c29 0 53 -24 53 -53c0 -30 -24 -52 -53 -52c-24 0 -43 14 -50 35c-7 -21 -27 -35 -50 -35c-24 0 -43 14 -50 35c-7 -21 -27 -35 -50 -35c-30 0 -52 22 -52 52z" />
    <glyph glyph-name="registered" unicode="&#xae;" 
d="M85 637c0 29 22 53 52 53c23 0 43 -16 50 -37c7 21 26 37 50 37c23 0 43 -16 50 -37c7 21 26 37 50 37c29 0 53 -24 53 -53c0 -24 -16 -43 -37 -50c16 -5 29 -18 34 -34c7 21 26 37 50 37c29 0 53 -24 53 -53c0 -24 -16 -43 -37 -50c21 -7 37 -27 37 -50
c0 -24 -16 -43 -37 -50c21 -7 37 -27 37 -50c0 -30 -24 -52 -53 -52c-24 0 -43 14 -50 35c-5 -16 -18 -28 -34 -33c21 -7 37 -27 37 -50c0 -30 -24 -52 -53 -52c-24 0 -43 14 -50 35c-7 -21 -27 -35 -50 -35c-24 0 -43 14 -50 35c-7 -21 -27 -35 -50 -35
c-30 0 -52 22 -52 52c0 29 22 53 52 53c23 0 43 -16 50 -37c7 21 26 37 50 37c23 0 43 -16 50 -37c5 16 17 29 33 34c-21 7 -35 26 -35 50c0 29 22 53 52 53c23 0 43 -16 50 -37c5 16 17 29 33 34c-21 7 -35 26 -35 50c0 23 14 43 35 50c-16 5 -28 17 -33 33
c-7 -21 -27 -35 -50 -35c-24 0 -43 14 -50 35c-5 -16 -18 -28 -34 -33c21 -7 37 -27 37 -50c0 -30 -24 -52 -53 -52c-30 0 -52 22 -52 52c0 23 14 43 35 50c-21 7 -35 26 -35 50c0 23 14 43 35 50c-16 5 -28 17 -33 33c-7 -21 -27 -35 -50 -35c-30 0 -52 22 -52 52zM-15 537
c0 29 22 53 52 53c29 0 53 -24 53 -53c0 -24 -16 -43 -37 -50c21 -7 37 -27 37 -50c0 -24 -16 -43 -37 -50c21 -7 37 -27 37 -50c0 -30 -24 -52 -53 -52c-30 0 -52 22 -52 52c0 23 14 43 35 50c-21 7 -35 26 -35 50c0 23 14 43 35 50c-21 7 -35 26 -35 50zM287 553
c5 16 17 29 33 34c-16 5 -28 17 -33 33c-5 -16 -18 -28 -34 -33c16 -5 29 -18 34 -34z" />
    <glyph glyph-name="degree" unicode="&#xb0;" 
d="M85 437c0 29 22 53 52 53c29 0 53 -24 53 -53c0 -30 -24 -52 -53 -52c-30 0 -52 22 -52 52zM-15 537c0 29 22 53 52 53c29 0 53 -24 53 -53c0 -30 -24 -52 -53 -52c-30 0 -52 22 -52 52zM185 537c0 29 22 53 52 53c29 0 53 -24 53 -53c0 -30 -24 -52 -53 -52
c-30 0 -52 22 -52 52zM85 637c0 29 22 53 52 53c29 0 53 -24 53 -53c0 -30 -24 -52 -53 -52c-30 0 -52 22 -52 52z" />
    <glyph glyph-name="plusminus" unicode="&#xb1;" 
d="M185 437c0 29 22 53 52 53c29 0 53 -24 53 -53c0 -24 -16 -43 -37 -50c16 -5 29 -18 34 -34c7 21 26 37 50 37c23 0 43 -16 50 -37c7 21 26 37 50 37c29 0 53 -24 53 -53c0 -30 -24 -52 -53 -52c-24 0 -43 14 -50 35c-7 -21 -27 -35 -50 -35c-24 0 -43 14 -50 35
c-5 -16 -18 -28 -34 -33c21 -7 37 -27 37 -50c0 -30 -24 -52 -53 -52c-30 0 -52 22 -52 52c0 23 14 43 35 50c-16 5 -28 17 -33 33c-7 -21 -27 -35 -50 -35c-24 0 -43 14 -50 35c-7 -21 -27 -35 -50 -35c-30 0 -52 22 -52 52c0 29 22 53 52 53c23 0 43 -16 50 -37
c7 21 26 37 50 37c23 0 43 -16 50 -37c5 16 17 29 33 34c-21 7 -35 26 -35 50zM-15 37c0 29 22 53 52 53c23 0 43 -16 50 -37c7 21 26 37 50 37c23 0 43 -16 50 -37c7 21 26 37 50 37c23 0 43 -16 50 -37c7 21 26 37 50 37c23 0 43 -16 50 -37c7 21 26 37 50 37
c29 0 53 -24 53 -53c0 -30 -24 -52 -53 -52c-24 0 -43 14 -50 35c-7 -21 -27 -35 -50 -35c-24 0 -43 14 -50 35c-7 -21 -27 -35 -50 -35c-24 0 -43 14 -50 35c-7 -21 -27 -35 -50 -35c-24 0 -43 14 -50 35c-7 -21 -27 -35 -50 -35c-30 0 -52 22 -52 52z" />
    <glyph glyph-name="twosuperior" unicode="&#xb2;" 
d="M-15 437c0 29 22 53 52 53c29 0 53 -24 53 -53c0 -24 -16 -43 -37 -50c16 -5 29 -18 34 -34c7 21 26 37 50 37c29 0 53 -24 53 -53c0 -30 -24 -52 -53 -52c-24 0 -43 14 -50 35c-7 -21 -27 -35 -50 -35c-30 0 -52 22 -52 52c0 23 14 43 35 50c-21 7 -35 26 -35 50z
M-15 637c0 29 22 53 52 53c29 0 53 -24 53 -53c0 -30 -24 -52 -53 -52c-30 0 -52 22 -52 52zM85 537c0 29 22 53 52 53c29 0 53 -24 53 -53c0 -30 -24 -52 -53 -52c-30 0 -52 22 -52 52z" />
    <glyph glyph-name="threesuperior" unicode="&#xb3;" 
d="M85 537c0 29 22 53 52 53c29 0 53 -24 53 -53c0 -24 -16 -43 -37 -50c21 -7 37 -27 37 -50c0 -24 -16 -43 -37 -50c21 -7 37 -27 37 -50c0 -30 -24 -52 -53 -52c-24 0 -43 14 -50 35c-7 -21 -27 -35 -50 -35c-30 0 -52 22 -52 52c0 29 22 53 52 53c23 0 43 -16 50 -37
c5 16 17 29 33 34c-21 7 -35 26 -35 50c0 23 14 43 35 50c-21 7 -35 26 -35 50zM-15 637c0 29 22 53 52 53c29 0 53 -24 53 -53c0 -30 -24 -52 -53 -52c-30 0 -52 22 -52 52z" />
    <glyph glyph-name="mu" unicode="&#xb5;" 
d="M-15 -63c0 23 14 44 35 51c-21 6 -35 25 -35 49c0 23 14 43 35 50c-21 7 -35 26 -35 50c0 23 14 43 35 50c-21 7 -35 26 -35 50c0 23 14 43 35 50c-21 7 -35 26 -35 50c0 23 14 43 35 50c-21 7 -35 26 -35 50c0 29 22 53 52 53c29 0 53 -24 53 -53c0 -24 -16 -43 -37 -50
c21 -7 37 -27 37 -50c0 -24 -16 -43 -37 -50c21 -7 37 -27 37 -50c0 -24 -16 -43 -37 -50c21 -7 37 -27 37 -50c0 -24 -16 -43 -37 -50c16 -5 29 -18 34 -34c7 21 26 37 50 37c23 0 43 -16 50 -37c7 21 26 37 50 37c29 0 53 -24 53 -53c0 -30 -24 -52 -53 -52
c-24 0 -43 14 -50 35c-7 -21 -27 -35 -50 -35c-24 0 -43 14 -50 35c-5 -16 -18 -27 -34 -32c21 -7 37 -28 37 -51c0 -24 -16 -43 -37 -49c21 -7 37 -28 37 -51c0 -30 -24 -52 -53 -52c-30 0 -52 22 -52 52c0 23 14 44 35 51c-21 6 -35 25 -35 49zM385 37c0 23 14 43 35 50
c-16 5 -28 17 -33 33c-7 -21 -27 -35 -50 -35c-30 0 -52 22 -52 52c0 29 22 53 52 53c23 0 43 -16 50 -37c5 16 17 29 33 34c-21 7 -35 26 -35 50c0 23 14 43 35 50c-21 7 -35 26 -35 50c0 23 14 43 35 50c-21 7 -35 26 -35 50c0 29 22 53 52 53c29 0 53 -24 53 -53
c0 -24 -16 -43 -37 -50c21 -7 37 -27 37 -50c0 -24 -16 -43 -37 -50c21 -7 37 -27 37 -50c0 -24 -16 -43 -37 -50c21 -7 37 -27 37 -50c0 -24 -16 -43 -37 -50c21 -7 37 -27 37 -50c0 -30 -24 -52 -53 -52c-30 0 -52 22 -52 52z" />
    <glyph glyph-name="paragraph" unicode="&#xb6;" 
d="M185 237c0 23 14 43 35 50c-16 5 -28 17 -33 33c-7 -21 -27 -35 -50 -35c-30 0 -52 22 -52 52c0 23 14 43 35 50c-16 5 -28 17 -33 33c-7 -21 -27 -35 -50 -35c-30 0 -52 22 -52 52c0 23 14 43 35 50c-21 7 -35 26 -35 50c0 29 22 53 52 53c23 0 43 -16 50 -37
c5 16 17 29 33 34c-21 7 -35 26 -35 50c0 29 22 53 52 53c23 0 43 -16 50 -37c7 21 26 37 50 37c29 0 53 -24 53 -53c0 -24 -16 -43 -37 -50c21 -7 37 -27 37 -50c0 -24 -16 -43 -37 -50c21 -7 37 -27 37 -50c0 -24 -16 -43 -37 -50c21 -7 37 -27 37 -50
c0 -24 -16 -43 -37 -50c21 -7 37 -27 37 -50c0 -24 -16 -43 -37 -50c21 -7 37 -27 37 -50c0 -24 -16 -43 -37 -50c21 -7 37 -27 37 -50c0 -30 -24 -52 -53 -52c-30 0 -52 22 -52 52c0 23 14 43 35 50c-21 7 -35 26 -35 50c0 23 14 43 35 50c-21 7 -35 26 -35 50zM385 637
c0 29 22 53 52 53c29 0 53 -24 53 -53c0 -24 -16 -43 -37 -50c21 -7 37 -27 37 -50c0 -24 -16 -43 -37 -50c21 -7 37 -27 37 -50c0 -24 -16 -43 -37 -50c21 -7 37 -27 37 -50c0 -24 -16 -43 -37 -50c21 -7 37 -27 37 -50c0 -24 -16 -43 -37 -50c21 -7 37 -27 37 -50
c0 -24 -16 -43 -37 -50c21 -7 37 -27 37 -50c0 -30 -24 -52 -53 -52c-30 0 -52 22 -52 52c0 23 14 43 35 50c-21 7 -35 26 -35 50c0 23 14 43 35 50c-21 7 -35 26 -35 50c0 23 14 43 35 50c-21 7 -35 26 -35 50c0 23 14 43 35 50c-21 7 -35 26 -35 50c0 23 14 43 35 50
c-21 7 -35 26 -35 50c0 23 14 43 35 50c-21 7 -35 26 -35 50zM153 587c16 -5 29 -18 34 -34c5 16 17 29 33 34c-16 5 -28 17 -33 33c-5 -16 -18 -28 -34 -33zM53 487c16 -5 29 -18 34 -34c5 16 17 29 33 34c-16 5 -28 17 -33 33c-5 -16 -18 -28 -34 -33zM153 387
c16 -5 29 -18 34 -34c5 16 17 29 33 34c-16 5 -28 17 -33 33c-5 -16 -18 -28 -34 -33zM153 487c16 -5 29 -18 34 -34c5 16 17 29 33 34c-16 5 -28 17 -33 33c-5 -16 -18 -28 -34 -33z" />
    <glyph glyph-name="periodcentered" unicode="&#xb7;" 
d="M85 337c0 29 22 53 52 53c29 0 53 -24 53 -53c0 -24 -16 -43 -37 -50c21 -7 37 -27 37 -50c0 -30 -24 -52 -53 -52c-30 0 -52 22 -52 52c0 23 14 43 35 50c-21 7 -35 26 -35 50z" />
    <glyph glyph-name="guillemotright" unicode="&#xbb;" 
d="M-15 37c0 29 22 53 52 53c29 0 53 -24 53 -53c0 -30 -24 -52 -53 -52c-30 0 -52 22 -52 52zM85 137c0 29 22 53 52 53c29 0 53 -24 53 -53c0 -30 -24 -52 -53 -52c-30 0 -52 22 -52 52zM185 237c0 29 22 53 52 53c29 0 53 -24 53 -53c0 -30 -24 -52 -53 -52
c-30 0 -52 22 -52 52zM85 337c0 29 22 53 52 53c29 0 53 -24 53 -53c0 -30 -24 -52 -53 -52c-30 0 -52 22 -52 52zM-15 437c0 29 22 53 52 53c29 0 53 -24 53 -53c0 -30 -24 -52 -53 -52c-30 0 -52 22 -52 52zM185 37c0 29 22 53 52 53c29 0 53 -24 53 -53
c0 -30 -24 -52 -53 -52c-30 0 -52 22 -52 52zM285 137c0 29 22 53 52 53c29 0 53 -24 53 -53c0 -30 -24 -52 -53 -52c-30 0 -52 22 -52 52zM385 237c0 29 22 53 52 53c29 0 53 -24 53 -53c0 -30 -24 -52 -53 -52c-30 0 -52 22 -52 52zM285 337c0 29 22 53 52 53
c29 0 53 -24 53 -53c0 -30 -24 -52 -53 -52c-30 0 -52 22 -52 52zM185 437c0 29 22 53 52 53c29 0 53 -24 53 -53c0 -30 -24 -52 -53 -52c-30 0 -52 22 -52 52z" />
    <glyph glyph-name="onehalf" unicode="&#xbd;" 
d="M-15 637c0 29 22 53 52 53c23 0 43 -16 50 -37c7 21 26 37 50 37c29 0 53 -24 53 -53c0 -24 -16 -43 -37 -50c21 -7 37 -27 37 -50c0 -24 -16 -43 -37 -50c21 -7 37 -27 37 -50c0 -30 -24 -52 -53 -52c-30 0 -52 22 -52 52c0 23 14 43 35 50c-21 7 -35 26 -35 50
c0 23 14 43 35 50c-16 5 -28 17 -33 33c-7 -21 -27 -35 -50 -35c-30 0 -52 22 -52 52zM385 137c0 29 22 53 52 53c29 0 53 -24 53 -53c0 -24 -16 -43 -37 -50c16 -5 29 -18 34 -34c7 21 26 37 50 37c29 0 53 -24 53 -53c0 -30 -24 -52 -53 -52c-24 0 -43 14 -50 35
c-7 -21 -27 -35 -50 -35c-30 0 -52 22 -52 52c0 23 14 43 35 50c-21 7 -35 26 -35 50zM85 137c0 29 22 53 52 53c29 0 53 -24 53 -53c0 -24 -16 -43 -37 -50c21 -7 37 -27 37 -50c0 -30 -24 -52 -53 -52c-30 0 -52 22 -52 52c0 23 14 43 35 50c-21 7 -35 26 -35 50zM185 337
c0 29 22 53 52 53c29 0 53 -24 53 -53c0 -24 -16 -43 -37 -50c21 -7 37 -27 37 -50c0 -30 -24 -52 -53 -52c-30 0 -52 22 -52 52c0 23 14 43 35 50c-21 7 -35 26 -35 50zM385 637c0 29 22 53 52 53c29 0 53 -24 53 -53c0 -24 -16 -43 -37 -50c21 -7 37 -27 37 -50
c0 -30 -24 -52 -53 -52c-30 0 -52 22 -52 52c0 23 14 43 35 50c-21 7 -35 26 -35 50zM385 337c0 29 22 53 52 53c29 0 53 -24 53 -53c0 -30 -24 -52 -53 -52c-30 0 -52 22 -52 52zM485 237c0 29 22 53 52 53c29 0 53 -24 53 -53c0 -30 -24 -52 -53 -52c-30 0 -52 22 -52 52z
M285 437c0 29 22 53 52 53c29 0 53 -24 53 -53c0 -30 -24 -52 -53 -52c-30 0 -52 22 -52 52z" />
    <glyph glyph-name="a" unicode="a" 
d="M385 337c0 29 22 53 52 53c29 0 53 -24 53 -53c0 -24 -16 -43 -37 -50c21 -7 37 -27 37 -50c0 -24 -16 -43 -37 -50c21 -7 37 -27 37 -50c0 -24 -16 -43 -37 -50c21 -7 37 -27 37 -50c0 -30 -24 -52 -53 -52c-24 0 -43 14 -50 35c-7 -21 -27 -35 -50 -35
c-24 0 -43 14 -50 35c-7 -21 -27 -35 -50 -35c-24 0 -43 14 -50 35c-7 -21 -27 -35 -50 -35c-30 0 -52 22 -52 52c0 29 22 53 52 53c23 0 43 -16 50 -37c7 21 26 37 50 37c23 0 43 -16 50 -37c7 21 26 37 50 37c23 0 43 -16 50 -37c5 16 17 29 33 34c-21 7 -35 26 -35 50
c0 23 14 43 35 50c-16 5 -28 17 -33 33c-7 -21 -27 -35 -50 -35c-24 0 -43 14 -50 35c-7 -21 -27 -35 -50 -35c-24 0 -43 14 -50 35c-7 -21 -27 -35 -50 -35c-30 0 -52 22 -52 52c0 29 22 53 52 53c23 0 43 -16 50 -37c7 21 26 37 50 37c23 0 43 -16 50 -37
c7 21 26 37 50 37c23 0 43 -16 50 -37c5 16 17 29 33 34c-21 7 -35 26 -35 50zM85 437c0 29 22 53 52 53c23 0 43 -16 50 -37c7 21 26 37 50 37c23 0 43 -16 50 -37c7 21 26 37 50 37c29 0 53 -24 53 -53c0 -30 -24 -52 -53 -52c-24 0 -43 14 -50 35c-7 -21 -27 -35 -50 -35
c-24 0 -43 14 -50 35c-7 -21 -27 -35 -50 -35c-30 0 -52 22 -52 52zM-15 137c0 29 22 53 52 53c29 0 53 -24 53 -53c0 -30 -24 -52 -53 -52c-30 0 -52 22 -52 52z" />
    <glyph glyph-name="b" unicode="b" 
d="M53 487c19 -6 37 -28 37 -50c0 -21 -16 -43 -37 -50c16 -6 29 -19 34 -35c7 22 25 38 50 38c29 0 53 -24 53 -53c0 -30 -24 -52 -53 -52c-25 0 -43 14 -50 36c-5 -17 -18 -29 -34 -34c21 -7 37 -27 37 -50c0 -24 -16 -43 -37 -50c21 -7 37 -27 37 -50
c0 -24 -16 -43 -37 -50c16 -5 29 -18 34 -34c7 21 26 37 50 37c23 0 43 -16 50 -37c7 21 26 37 50 37c23 0 43 -16 50 -37c7 21 26 37 50 37c29 0 53 -24 53 -53c0 -30 -24 -52 -53 -52c-24 0 -43 14 -50 35c-7 -21 -27 -35 -50 -35c-24 0 -43 14 -50 35
c-7 -21 -27 -35 -50 -35c-24 0 -43 14 -50 35c-7 -21 -27 -35 -50 -35c-30 0 -52 22 -52 52c0 23 14 43 35 50c-21 7 -35 26 -35 50c0 23 14 43 35 50c-21 7 -35 26 -35 50c0 23 14 43 35 50c-21 7 -35 26 -35 50c0 23 14 43 35 50c-21 7 -35 26 -35 50c0 23 14 43 35 50
c-21 7 -35 26 -35 50c0 23 14 43 35 50c-21 7 -35 26 -35 50c0 29 22 53 52 53c29 0 53 -24 53 -53c0 -24 -16 -43 -37 -50c21 -7 37 -27 37 -50c0 -24 -16 -43 -37 -50zM385 337c0 29 22 53 52 53c29 0 53 -24 53 -53c0 -24 -16 -43 -37 -50c21 -7 37 -27 37 -50
c0 -24 -16 -43 -37 -50c21 -7 37 -27 37 -50c0 -30 -24 -52 -53 -52c-30 0 -52 22 -52 52c0 23 14 43 35 50c-21 7 -35 26 -35 50c0 23 14 43 35 50c-21 7 -35 26 -35 50zM237 385c-28 0 -53 21 -53 51c0 27 22 54 53 54c23 0 43 -16 50 -37c7 21 26 37 50 37
c29 0 53 -24 53 -53c0 -30 -24 -52 -53 -52c-24 0 -43 14 -50 35c-7 -21 -27 -35 -50 -35z" />
    <glyph glyph-name="c" unicode="c" 
d="M85 37c0 29 22 53 52 53c23 0 43 -16 50 -37c7 21 26 37 50 37c23 0 43 -16 50 -37c7 21 26 37 50 37c29 0 53 -24 53 -53c0 -30 -24 -52 -53 -52c-24 0 -43 14 -50 35c-7 -21 -27 -35 -50 -35c-24 0 -43 14 -50 35c-7 -21 -27 -35 -50 -35c-30 0 -52 22 -52 52zM-15 337
c0 29 22 53 52 53c29 0 53 -24 53 -53c0 -24 -16 -43 -37 -50c21 -7 37 -27 37 -50c0 -24 -16 -43 -37 -50c21 -7 37 -27 37 -50c0 -30 -24 -52 -53 -52c-30 0 -52 22 -52 52c0 23 14 43 35 50c-21 7 -35 26 -35 50c0 23 14 43 35 50c-21 7 -35 26 -35 50zM85 437
c0 29 22 53 52 53c23 0 43 -16 50 -37c7 21 26 37 50 37c23 0 43 -16 50 -37c7 21 26 37 50 37c29 0 53 -24 53 -53c0 -30 -24 -52 -53 -52c-24 0 -43 14 -50 35c-7 -21 -27 -35 -50 -35c-24 0 -43 14 -50 35c-7 -21 -27 -35 -50 -35c-30 0 -52 22 -52 52zM385 337
c0 29 22 53 52 53c29 0 53 -24 53 -53c0 -30 -24 -52 -53 -52c-30 0 -52 22 -52 52zM385 137c0 29 22 53 52 53c29 0 53 -24 53 -53c0 -30 -24 -52 -53 -52c-30 0 -52 22 -52 52z" />
    <glyph glyph-name="e" unicode="e" 
d="M385 337c0 29 22 53 52 53c29 0 53 -24 53 -53c0 -24 -16 -43 -37 -50c21 -7 37 -27 37 -50c0 -30 -24 -52 -53 -52c-24 0 -43 14 -50 35c-7 -21 -27 -35 -50 -35c-24 0 -43 14 -50 35c-7 -21 -27 -35 -50 -35c-24 0 -43 14 -50 35c-7 -21 -27 -35 -50 -35
c-24 0 -43 14 -50 35c-5 -16 -18 -28 -34 -33c21 -7 37 -27 37 -50c0 -30 -24 -52 -53 -52c-30 0 -52 22 -52 52c0 23 14 43 35 50c-21 7 -35 26 -35 50c0 23 14 43 35 50c-21 7 -35 26 -35 50c0 29 22 53 52 53c29 0 53 -24 53 -53c0 -24 -16 -43 -37 -50
c16 -5 29 -18 34 -34c7 21 26 37 50 37c23 0 43 -16 50 -37c7 21 26 37 50 37c23 0 43 -16 50 -37c7 21 26 37 50 37c23 0 43 -16 50 -37c5 16 17 29 33 34c-21 7 -35 26 -35 50zM85 37c0 29 22 53 52 53c23 0 43 -16 50 -37c7 21 26 37 50 37c23 0 43 -16 50 -37
c7 21 26 37 50 37c23 0 43 -16 50 -37c7 21 26 37 50 37c29 0 53 -24 53 -53c0 -30 -24 -52 -53 -52c-24 0 -43 14 -50 35c-7 -21 -27 -35 -50 -35c-24 0 -43 14 -50 35c-7 -21 -27 -35 -50 -35c-24 0 -43 14 -50 35c-7 -21 -27 -35 -50 -35c-30 0 -52 22 -52 52zM85 437
c0 29 22 53 52 53c23 0 43 -16 50 -37c7 21 26 37 50 37c23 0 43 -16 50 -37c7 21 26 37 50 37c29 0 53 -24 53 -53c0 -30 -24 -52 -53 -52c-24 0 -43 14 -50 35c-7 -21 -27 -35 -50 -35c-24 0 -43 14 -50 35c-7 -21 -27 -35 -50 -35c-30 0 -52 22 -52 52z" />
    <glyph glyph-name="d" unicode="d" 
d="M385 637c0 29 22 53 52 53c29 0 53 -24 53 -53c0 -24 -16 -43 -37 -50c21 -7 37 -27 37 -50c0 -24 -16 -43 -37 -50c21 -7 37 -27 37 -50c0 -24 -16 -43 -37 -50c21 -7 37 -27 37 -50c0 -24 -16 -43 -37 -50c21 -7 37 -27 37 -50c0 -24 -16 -43 -37 -50
c21 -7 37 -27 37 -50c0 -24 -16 -43 -37 -50c21 -7 37 -27 37 -50c0 -30 -24 -52 -53 -52c-30 0 -52 22 -52 52c0 23 14 43 35 50c-16 5 -28 17 -33 33c-7 -21 -27 -35 -50 -35c-30 0 -52 22 -52 52c0 29 22 53 52 53c23 0 43 -16 50 -37c5 16 17 29 33 34
c-21 7 -35 26 -35 50c0 23 14 43 35 50c-21 7 -35 26 -35 50c0 23 14 43 35 50c-16 5 -28 17 -33 33c-7 -21 -27 -35 -50 -35c-24 0 -43 14 -50 35c-7 -21 -27 -35 -50 -35c-24 0 -43 14 -50 35c-7 -21 -27 -35 -50 -35c-30 0 -52 22 -52 52c0 29 22 53 52 53
c23 0 43 -16 50 -37c7 21 26 37 50 37c23 0 43 -16 50 -37c7 21 26 37 50 37c23 0 43 -16 50 -37c5 16 17 29 33 34c-21 7 -35 26 -35 50c0 23 14 43 35 50c-21 7 -35 26 -35 50zM-15 337c0 29 22 53 52 53c29 0 53 -24 53 -53c0 -24 -16 -43 -37 -50c21 -7 37 -27 37 -50
c0 -24 -16 -43 -37 -50c21 -7 37 -27 37 -50c0 -30 -24 -52 -53 -52c-30 0 -52 22 -52 52c0 23 14 43 35 50c-21 7 -35 26 -35 50c0 23 14 43 35 50c-21 7 -35 26 -35 50zM85 37c0 29 22 53 52 53c23 0 43 -16 50 -37c7 21 26 37 50 37c29 0 53 -24 53 -53
c0 -30 -24 -52 -53 -52c-24 0 -43 14 -50 35c-7 -21 -27 -35 -50 -35c-30 0 -52 22 -52 52z" />
    <glyph glyph-name="f" unicode="f" 
d="M185 537c0 29 22 53 52 53c29 0 53 -24 53 -53c0 -24 -16 -43 -37 -50c16 -5 29 -18 34 -34c7 21 26 37 50 37c23 0 43 -16 50 -37c7 21 26 37 50 37c29 0 53 -24 53 -53c0 -30 -24 -52 -53 -52c-24 0 -43 14 -50 35c-7 -21 -27 -35 -50 -35c-24 0 -43 14 -50 35
c-5 -16 -18 -28 -34 -33c21 -7 37 -27 37 -50c0 -24 -16 -43 -37 -50c21 -7 37 -27 37 -50c0 -24 -16 -43 -37 -50c21 -7 37 -27 37 -50c0 -24 -16 -43 -37 -50c16 -5 29 -18 34 -34c7 21 26 37 50 37c23 0 43 -16 50 -37c7 21 26 37 50 37c29 0 53 -24 53 -53
c0 -30 -24 -52 -53 -52c-24 0 -43 14 -50 35c-7 -21 -27 -35 -50 -35c-24 0 -43 14 -50 35c-7 -21 -27 -35 -50 -35c-24 0 -43 14 -50 35c-7 -21 -27 -35 -50 -35c-24 0 -43 14 -50 35c-7 -21 -27 -35 -50 -35c-30 0 -52 22 -52 52c0 29 22 53 52 53c23 0 43 -16 50 -37
c7 21 26 37 50 37c23 0 43 -16 50 -37c5 16 17 29 33 34c-21 7 -35 26 -35 50c0 23 14 43 35 50c-21 7 -35 26 -35 50c0 23 14 43 35 50c-21 7 -35 26 -35 50c0 23 14 43 35 50c-16 5 -28 17 -33 33c-7 -21 -27 -35 -50 -35c-30 0 -52 22 -52 52c0 29 22 53 52 53
c23 0 43 -16 50 -37c5 16 17 29 33 34c-21 7 -35 26 -35 50zM285 637c0 29 22 53 52 53c23 0 43 -16 50 -37c7 21 26 37 50 37c29 0 53 -24 53 -53c0 -30 -24 -52 -53 -52c-24 0 -43 14 -50 35c-7 -21 -27 -35 -50 -35c-30 0 -52 22 -52 52z" />
    <glyph glyph-name="h" unicode="h" 
d="M-15 637c0 29 22 53 52 53c29 0 53 -24 53 -53c0 -24 -16 -43 -37 -50c21 -7 37 -27 37 -50c0 -24 -16 -43 -37 -50c16 -5 29 -18 34 -34c7 21 26 37 50 37c23 0 43 -16 50 -37c7 21 26 37 50 37c23 0 43 -16 50 -37c7 21 26 37 50 37c29 0 53 -24 53 -53
c0 -30 -24 -52 -53 -52c-24 0 -43 14 -50 35c-7 -21 -27 -35 -50 -35c-24 0 -43 14 -50 35c-7 -21 -27 -35 -50 -35c-24 0 -43 14 -50 35c-5 -16 -18 -28 -34 -33c21 -7 37 -27 37 -50c0 -24 -16 -43 -37 -50c21 -7 37 -27 37 -50c0 -24 -16 -43 -37 -50
c21 -7 37 -27 37 -50c0 -24 -16 -43 -37 -50c21 -7 37 -27 37 -50c0 -30 -24 -52 -53 -52c-30 0 -52 22 -52 52c0 23 14 43 35 50c-21 7 -35 26 -35 50c0 23 14 43 35 50c-21 7 -35 26 -35 50c0 23 14 43 35 50c-21 7 -35 26 -35 50c0 23 14 43 35 50c-21 7 -35 26 -35 50
c0 23 14 43 35 50c-21 7 -35 26 -35 50c0 23 14 43 35 50c-21 7 -35 26 -35 50zM385 337c0 29 22 53 52 53c29 0 53 -24 53 -53c0 -24 -16 -43 -37 -50c21 -7 37 -27 37 -50c0 -24 -16 -43 -37 -50c21 -7 37 -27 37 -50c0 -24 -16 -43 -37 -50c21 -7 37 -27 37 -50
c0 -30 -24 -52 -53 -52c-30 0 -52 22 -52 52c0 23 14 43 35 50c-21 7 -35 26 -35 50c0 23 14 43 35 50c-21 7 -35 26 -35 50c0 23 14 43 35 50c-21 7 -35 26 -35 50z" />
    <glyph glyph-name="i" unicode="i" 
d="M-15 437c0 29 22 53 52 53c23 0 43 -16 50 -37c7 21 26 37 50 37c23 0 43 -16 50 -37c7 21 26 37 50 37c29 0 53 -24 53 -53c0 -24 -16 -43 -37 -50c21 -7 37 -27 37 -50c0 -24 -16 -43 -37 -50c21 -7 37 -27 37 -50c0 -24 -16 -43 -37 -50c21 -7 37 -27 37 -50
c0 -24 -16 -43 -37 -50c16 -5 29 -18 34 -34c7 21 26 37 50 37c23 0 43 -16 50 -37c7 21 26 37 50 37c29 0 53 -24 53 -53c0 -30 -24 -52 -53 -52c-24 0 -43 14 -50 35c-7 -21 -27 -35 -50 -35c-24 0 -43 14 -50 35c-7 -21 -27 -35 -50 -35c-24 0 -43 14 -50 35
c-7 -21 -27 -35 -50 -35c-24 0 -43 14 -50 35c-7 -21 -27 -35 -50 -35c-30 0 -52 22 -52 52c0 29 22 53 52 53c23 0 43 -16 50 -37c7 21 26 37 50 37c23 0 43 -16 50 -37c5 16 17 29 33 34c-21 7 -35 26 -35 50c0 23 14 43 35 50c-21 7 -35 26 -35 50c0 23 14 43 35 50
c-21 7 -35 26 -35 50c0 23 14 43 35 50c-16 5 -28 17 -33 33c-7 -21 -27 -35 -50 -35c-24 0 -43 14 -50 35c-7 -21 -27 -35 -50 -35c-30 0 -52 22 -52 52zM185 637c0 29 22 53 52 53c29 0 53 -24 53 -53c0 -30 -24 -52 -53 -52c-30 0 -52 22 -52 52z" />
    <glyph glyph-name="j" unicode="j" 
d="M385 -63c0 23 14 44 35 51c-21 6 -35 25 -35 49c0 23 14 43 35 50c-21 7 -35 26 -35 50c0 23 14 43 35 50c-21 7 -35 26 -35 50c0 23 14 43 35 50c-21 7 -35 26 -35 50c0 23 14 43 35 50c-16 5 -28 17 -33 33c-7 -21 -27 -35 -50 -35c-24 0 -43 14 -50 35
c-7 -21 -27 -35 -50 -35c-24 0 -43 14 -50 35c-7 -21 -27 -35 -50 -35c-30 0 -52 22 -52 52c0 29 22 53 52 53c23 0 43 -16 50 -37c7 21 26 37 50 37c23 0 43 -16 50 -37c7 21 26 37 50 37c23 0 43 -16 50 -37c7 21 26 37 50 37c29 0 53 -24 53 -53c0 -24 -16 -43 -37 -50
c21 -7 37 -27 37 -50c0 -24 -16 -43 -37 -50c21 -7 37 -27 37 -50c0 -24 -16 -43 -37 -50c21 -7 37 -27 37 -50c0 -24 -16 -43 -37 -50c21 -7 37 -27 37 -50c0 -24 -16 -43 -37 -49c21 -7 37 -28 37 -51c0 -30 -24 -52 -53 -52c-30 0 -52 22 -52 52zM85 -163
c0 29 22 53 52 53c23 0 43 -15 50 -36c7 21 26 36 50 36c23 0 43 -15 50 -36c7 21 26 36 50 36c29 0 53 -24 53 -53c0 -30 -24 -52 -53 -52c-24 0 -43 14 -50 35c-7 -21 -27 -35 -50 -35c-24 0 -43 14 -50 35c-7 -21 -27 -35 -50 -35c-30 0 -52 22 -52 52zM-15 -63
c0 29 22 53 52 53c29 0 53 -24 53 -53c0 -30 -24 -52 -53 -52c-30 0 -52 22 -52 52zM385 637c0 29 22 53 52 53c29 0 53 -24 53 -53c0 -30 -24 -52 -53 -52c-30 0 -52 22 -52 52z" />
    <glyph glyph-name="k" unicode="k" 
d="M-15 637c0 29 22 53 52 53c29 0 53 -24 53 -53c0 -24 -16 -43 -37 -50c21 -7 37 -27 37 -50c0 -24 -16 -43 -37 -50c21 -7 37 -27 37 -50c0 -24 -16 -43 -37 -50c21 -7 37 -27 37 -50c0 -24 -16 -43 -37 -50c16 -5 29 -18 34 -34c7 21 26 37 50 37c23 0 43 -16 50 -37
c7 21 26 37 50 37c29 0 53 -24 53 -53c0 -30 -24 -52 -53 -52c-24 0 -43 14 -50 35c-7 -21 -27 -35 -50 -35c-24 0 -43 14 -50 35c-5 -16 -18 -28 -34 -33c21 -7 37 -27 37 -50c0 -24 -16 -43 -37 -50c21 -7 37 -27 37 -50c0 -30 -24 -52 -53 -52c-30 0 -52 22 -52 52
c0 23 14 43 35 50c-21 7 -35 26 -35 50c0 23 14 43 35 50c-21 7 -35 26 -35 50c0 23 14 43 35 50c-21 7 -35 26 -35 50c0 23 14 43 35 50c-21 7 -35 26 -35 50c0 23 14 43 35 50c-21 7 -35 26 -35 50c0 23 14 43 35 50c-21 7 -35 26 -35 50zM285 437c0 29 22 53 52 53
c29 0 53 -24 53 -53c0 -24 -16 -43 -37 -50c21 -7 37 -27 37 -50c0 -30 -24 -52 -53 -52c-30 0 -52 22 -52 52c0 23 14 43 35 50c-21 7 -35 26 -35 50zM285 137c0 29 22 53 52 53c29 0 53 -24 53 -53c0 -30 -24 -52 -53 -52c-30 0 -52 22 -52 52zM385 37c0 29 22 53 52 53
c29 0 53 -24 53 -53c0 -30 -24 -52 -53 -52c-30 0 -52 22 -52 52z" />
    <glyph glyph-name="l" unicode="l" 
d="M-15 637c0 29 22 53 52 53c23 0 43 -16 50 -37c7 21 26 37 50 37c23 0 43 -16 50 -37c7 21 26 37 50 37c29 0 53 -24 53 -53c0 -24 -16 -43 -37 -50c21 -7 37 -27 37 -50c0 -24 -16 -43 -37 -50c21 -7 37 -27 37 -50c0 -24 -16 -43 -37 -50c21 -7 37 -27 37 -50
c0 -24 -16 -43 -37 -50c21 -7 37 -27 37 -50c0 -24 -16 -43 -37 -50c21 -7 37 -27 37 -50c0 -24 -16 -43 -37 -50c16 -5 29 -18 34 -34c7 21 26 37 50 37c23 0 43 -16 50 -37c7 21 26 37 50 37c29 0 53 -24 53 -53c0 -30 -24 -52 -53 -52c-24 0 -43 14 -50 35
c-7 -21 -27 -35 -50 -35c-24 0 -43 14 -50 35c-7 -21 -27 -35 -50 -35c-24 0 -43 14 -50 35c-7 -21 -27 -35 -50 -35c-24 0 -43 14 -50 35c-7 -21 -27 -35 -50 -35c-30 0 -52 22 -52 52c0 29 22 53 52 53c23 0 43 -16 50 -37c7 21 26 37 50 37c23 0 43 -16 50 -37
c5 16 17 29 33 34c-21 7 -35 26 -35 50c0 23 14 43 35 50c-21 7 -35 26 -35 50c0 23 14 43 35 50c-21 7 -35 26 -35 50c0 23 14 43 35 50c-21 7 -35 26 -35 50c0 23 14 43 35 50c-21 7 -35 26 -35 50c0 23 14 43 35 50c-16 5 -28 17 -33 33c-7 -21 -27 -35 -50 -35
c-24 0 -43 14 -50 35c-7 -21 -27 -35 -50 -35c-30 0 -52 22 -52 52z" />
    <glyph glyph-name="m" unicode="m" 
d="M185 237c0 23 14 43 35 50c-16 5 -28 17 -33 33c-7 -21 -27 -35 -50 -35c-24 0 -43 14 -50 35c-5 -16 -18 -28 -34 -33c21 -7 37 -27 37 -50c0 -24 -16 -43 -37 -50c21 -7 37 -27 37 -50c0 -24 -16 -43 -37 -50c21 -7 37 -27 37 -50c0 -30 -24 -52 -53 -52
c-30 0 -52 22 -52 52c0 23 14 43 35 50c-21 7 -35 26 -35 50c0 23 14 43 35 50c-21 7 -35 26 -35 50c0 23 14 43 35 50c-21 7 -35 26 -35 50c0 23 14 43 35 50c-21 7 -35 26 -35 50c0 29 22 53 52 53c29 0 53 -24 53 -53c0 -24 -16 -43 -37 -50c16 -5 29 -18 34 -34
c7 21 26 37 50 37c23 0 43 -16 50 -37c5 16 17 29 33 34c-21 7 -35 26 -35 50c0 29 22 53 52 53c29 0 53 -24 53 -53c0 -24 -16 -43 -37 -50c16 -5 29 -18 34 -34c7 21 26 37 50 37c23 0 43 -16 50 -37c5 16 17 29 33 34c-21 7 -35 26 -35 50c0 29 22 53 52 53
c29 0 53 -24 53 -53c0 -24 -16 -43 -37 -50c21 -7 37 -27 37 -50c0 -24 -16 -43 -37 -50c21 -7 37 -27 37 -50c0 -24 -16 -43 -37 -50c21 -7 37 -27 37 -50c0 -24 -16 -43 -37 -50c21 -7 37 -27 37 -50c0 -30 -24 -52 -53 -52c-30 0 -52 22 -52 52c0 23 14 43 35 50
c-21 7 -35 26 -35 50c0 23 14 43 35 50c-21 7 -35 26 -35 50c0 23 14 43 35 50c-16 5 -28 17 -33 33c-7 -21 -27 -35 -50 -35c-24 0 -43 14 -50 35c-5 -16 -18 -28 -34 -33c21 -7 37 -27 37 -50c0 -24 -16 -43 -37 -50c21 -7 37 -27 37 -50c0 -24 -16 -43 -37 -50
c21 -7 37 -27 37 -50c0 -30 -24 -52 -53 -52c-30 0 -52 22 -52 52c0 23 14 43 35 50c-21 7 -35 26 -35 50c0 23 14 43 35 50c-21 7 -35 26 -35 50z" />
    <glyph glyph-name="n" unicode="n" 
d="M-15 437c0 29 22 53 52 53c29 0 53 -24 53 -53c0 -24 -16 -43 -37 -50c16 -5 29 -18 34 -34c7 21 26 37 50 37c29 0 53 -24 53 -53c0 -30 -24 -52 -53 -52c-24 0 -43 14 -50 35c-5 -16 -18 -28 -34 -33c21 -7 37 -27 37 -50c0 -24 -16 -43 -37 -50c21 -7 37 -27 37 -50
c0 -24 -16 -43 -37 -50c21 -7 37 -27 37 -50c0 -30 -24 -52 -53 -52c-30 0 -52 22 -52 52c0 23 14 43 35 50c-21 7 -35 26 -35 50c0 23 14 43 35 50c-21 7 -35 26 -35 50c0 23 14 43 35 50c-21 7 -35 26 -35 50c0 23 14 43 35 50c-21 7 -35 26 -35 50zM385 337
c0 29 22 53 52 53c29 0 53 -24 53 -53c0 -24 -16 -43 -37 -50c21 -7 37 -27 37 -50c0 -24 -16 -43 -37 -50c21 -7 37 -27 37 -50c0 -24 -16 -43 -37 -50c21 -7 37 -27 37 -50c0 -30 -24 -52 -53 -52c-30 0 -52 22 -52 52c0 23 14 43 35 50c-21 7 -35 26 -35 50
c0 23 14 43 35 50c-21 7 -35 26 -35 50c0 23 14 43 35 50c-21 7 -35 26 -35 50zM185 437c0 29 22 53 52 53c23 0 43 -16 50 -37c7 21 26 37 50 37c29 0 53 -24 53 -53c0 -30 -24 -52 -53 -52c-24 0 -43 14 -50 35c-7 -21 -27 -35 -50 -35c-30 0 -52 22 -52 52z" />
    <glyph glyph-name="o" unicode="o" 
d="M85 37c0 29 22 53 52 53c23 0 43 -16 50 -37c7 21 26 37 50 37c23 0 43 -16 50 -37c7 21 26 37 50 37c29 0 53 -24 53 -53c0 -30 -24 -52 -53 -52c-24 0 -43 14 -50 35c-7 -21 -27 -35 -50 -35c-24 0 -43 14 -50 35c-7 -21 -27 -35 -50 -35c-30 0 -52 22 -52 52zM-15 337
c0 29 22 53 52 53c29 0 53 -24 53 -53c0 -24 -16 -43 -37 -50c21 -7 37 -27 37 -50c0 -24 -16 -43 -37 -50c21 -7 37 -27 37 -50c0 -30 -24 -52 -53 -52c-30 0 -52 22 -52 52c0 23 14 43 35 50c-21 7 -35 26 -35 50c0 23 14 43 35 50c-21 7 -35 26 -35 50zM85 437
c0 29 22 53 52 53c23 0 43 -16 50 -37c7 21 26 37 50 37c23 0 43 -16 50 -37c7 21 26 37 50 37c29 0 53 -24 53 -53c0 -30 -24 -52 -53 -52c-24 0 -43 14 -50 35c-7 -21 -27 -35 -50 -35c-24 0 -43 14 -50 35c-7 -21 -27 -35 -50 -35c-30 0 -52 22 -52 52zM385 337
c0 29 22 53 52 53c29 0 53 -24 53 -53c0 -24 -16 -43 -37 -50c21 -7 37 -27 37 -50c0 -24 -16 -43 -37 -50c21 -7 37 -27 37 -50c0 -30 -24 -52 -53 -52c-30 0 -52 22 -52 52c0 23 14 43 35 50c-21 7 -35 26 -35 50c0 23 14 43 35 50c-21 7 -35 26 -35 50z" />
    <glyph glyph-name="p" unicode="p" 
d="M-15 -63c0 23 14 44 35 51c-21 6 -35 25 -35 49c0 23 14 43 35 50c-21 7 -35 26 -35 50c0 23 14 43 35 50c-21 7 -35 26 -35 50c0 23 14 43 35 50c-21 7 -35 26 -35 50c0 23 14 43 35 50c-21 7 -35 26 -35 50c0 29 22 53 52 53c29 0 53 -24 53 -53c0 -24 -16 -43 -37 -50
c16 -6 27 -17 34 -33c7 21 26 36 50 36c29 0 53 -24 53 -53c0 -30 -24 -52 -53 -52c-24 0 -43 14 -50 35c-5 -16 -18 -28 -34 -33c21 -7 37 -27 37 -50c0 -24 -16 -43 -37 -50c21 -7 37 -27 37 -50c0 -24 -16 -43 -37 -50c16 -5 29 -18 34 -34c7 21 26 37 50 37
c23 0 43 -16 50 -37c7 21 26 37 50 37c23 0 43 -16 50 -37c7 21 26 37 50 37c29 0 53 -24 53 -53c0 -30 -24 -52 -53 -52c-24 0 -43 14 -50 35c-7 -21 -27 -35 -50 -35c-24 0 -43 14 -50 35c-7 -21 -27 -35 -50 -35c-24 0 -43 14 -50 35c-5 -16 -18 -27 -34 -32
c21 -7 37 -28 37 -51c0 -24 -16 -43 -37 -49c21 -7 37 -28 37 -51c0 -30 -24 -52 -53 -52c-30 0 -52 22 -52 52c0 23 14 44 35 51c-21 6 -35 25 -35 49zM385 337c0 29 22 53 52 53c29 0 53 -24 53 -53c0 -24 -16 -43 -37 -50c21 -7 37 -27 37 -50c0 -24 -16 -43 -37 -50
c21 -7 37 -27 37 -50c0 -30 -24 -52 -53 -52c-30 0 -52 22 -52 52c0 23 14 43 35 50c-21 7 -35 26 -35 50c0 23 14 43 35 50c-21 7 -35 26 -35 50zM185 437c0 29 22 53 52 53c23 0 43 -16 50 -37c7 21 26 37 50 37c29 0 53 -24 53 -53c0 -30 -24 -52 -53 -52
c-24 0 -43 14 -50 35c-7 -21 -27 -35 -50 -35c-30 0 -52 22 -52 52z" />
    <glyph glyph-name="q" unicode="q" 
d="M385 -63c0 23 14 44 35 51c-21 6 -35 25 -35 49c0 23 14 43 35 50c-16 5 -28 17 -33 33c-7 -21 -27 -35 -50 -35c-30 0 -52 22 -52 52c0 29 22 53 52 53c23 0 43 -16 50 -37c5 16 17 29 33 34c-21 7 -35 26 -35 50c0 23 14 43 35 50c-21 7 -35 26 -35 50
c0 23 14 43 35 50c-16 5 -28 17 -33 33c-7 -21 -27 -35 -50 -35c-24 0 -43 14 -50 35c-7 -21 -27 -35 -50 -35c-24 0 -43 14 -50 35c-7 -21 -27 -35 -50 -35c-30 0 -52 22 -52 52c0 29 22 53 52 53c23 0 43 -16 50 -37c7 21 26 37 50 37c23 0 43 -16 50 -37
c7 21 26 37 50 37c23 0 43 -16 50 -37c7 21 26 37 50 37c29 0 53 -24 53 -53c0 -24 -16 -43 -37 -50c21 -7 37 -27 37 -50c0 -24 -16 -43 -37 -50c21 -7 37 -27 37 -50c0 -24 -16 -43 -37 -50c21 -7 37 -27 37 -50c0 -24 -16 -43 -37 -50c21 -7 37 -27 37 -50
c0 -24 -16 -43 -37 -49c21 -7 37 -28 37 -51c0 -24 -16 -43 -37 -49c21 -7 37 -28 37 -51c0 -30 -24 -52 -53 -52c-30 0 -52 22 -52 52c0 23 14 44 35 51c-21 6 -35 25 -35 49zM-15 337c0 29 22 53 52 53c29 0 53 -24 53 -53c0 -24 -16 -43 -37 -50c21 -7 37 -27 37 -50
c0 -24 -16 -43 -37 -50c21 -7 37 -27 37 -50c0 -30 -24 -52 -53 -52c-30 0 -52 22 -52 52c0 23 14 43 35 50c-21 7 -35 26 -35 50c0 23 14 43 35 50c-21 7 -35 26 -35 50zM85 37c0 29 22 53 52 53c23 0 43 -16 50 -37c7 21 26 37 50 37c29 0 53 -24 53 -53
c0 -30 -24 -52 -53 -52c-24 0 -43 14 -50 35c-7 -21 -27 -35 -50 -35c-30 0 -52 22 -52 52z" />
    <glyph glyph-name="r" unicode="r" 
d="M-15 437c0 29 22 53 52 53c23 0 43 -16 50 -37c7 21 26 37 50 37c29 0 53 -24 53 -53c0 -24 -16 -43 -37 -50c16 -5 29 -18 34 -34c7 21 26 37 50 37c29 0 53 -24 53 -53c0 -30 -24 -52 -53 -52c-24 0 -43 14 -50 35c-5 -16 -18 -28 -34 -33c21 -7 37 -27 37 -50
c0 -24 -16 -43 -37 -50c21 -7 37 -27 37 -50c0 -24 -16 -43 -37 -50c16 -5 29 -18 34 -34c7 21 26 37 50 37c23 0 43 -16 50 -37c7 21 26 37 50 37c29 0 53 -24 53 -53c0 -30 -24 -52 -53 -52c-24 0 -43 14 -50 35c-7 -21 -27 -35 -50 -35c-24 0 -43 14 -50 35
c-7 -21 -27 -35 -50 -35c-24 0 -43 14 -50 35c-7 -21 -27 -35 -50 -35c-30 0 -52 22 -52 52c0 29 22 53 52 53c23 0 43 -16 50 -37c5 16 17 29 33 34c-21 7 -35 26 -35 50c0 23 14 43 35 50c-21 7 -35 26 -35 50c0 23 14 43 35 50c-21 7 -35 26 -35 50c0 23 14 43 35 50
c-16 5 -28 17 -33 33c-7 -21 -27 -35 -50 -35c-30 0 -52 22 -52 52zM285 437c0 29 22 53 52 53c23 0 43 -16 50 -37c7 21 26 37 50 37c29 0 53 -24 53 -53c0 -30 -24 -52 -53 -52c-24 0 -43 14 -50 35c-7 -21 -27 -35 -50 -35c-30 0 -52 22 -52 52z" />
    <glyph glyph-name="s" unicode="s" 
d="M-15 37c0 29 22 53 52 53c23 0 43 -16 50 -37c7 21 26 37 50 37c23 0 43 -16 50 -37c7 21 26 37 50 37c23 0 43 -16 50 -37c7 21 26 37 50 37c29 0 53 -24 53 -53c0 -30 -24 -52 -53 -52c-24 0 -43 14 -50 35c-7 -21 -27 -35 -50 -35c-24 0 -43 14 -50 35
c-7 -21 -27 -35 -50 -35c-24 0 -43 14 -50 35c-7 -21 -27 -35 -50 -35c-30 0 -52 22 -52 52zM85 437c0 29 22 53 52 53c23 0 43 -16 50 -37c7 21 26 37 50 37c23 0 43 -16 50 -37c7 21 26 37 50 37c23 0 43 -16 50 -37c7 21 26 37 50 37c29 0 53 -24 53 -53
c0 -30 -24 -52 -53 -52c-24 0 -43 14 -50 35c-7 -21 -27 -35 -50 -35c-24 0 -43 14 -50 35c-7 -21 -27 -35 -50 -35c-24 0 -43 14 -50 35c-7 -21 -27 -35 -50 -35c-30 0 -52 22 -52 52zM85 237c0 29 22 53 52 53c23 0 43 -16 50 -37c7 21 26 37 50 37c23 0 43 -16 50 -37
c7 21 26 37 50 37c29 0 53 -24 53 -53c0 -30 -24 -52 -53 -52c-24 0 -43 14 -50 35c-7 -21 -27 -35 -50 -35c-24 0 -43 14 -50 35c-7 -21 -27 -35 -50 -35c-30 0 -52 22 -52 52zM-15 337c0 29 22 53 52 53c29 0 53 -24 53 -53c0 -30 -24 -52 -53 -52c-30 0 -52 22 -52 52z
M385 137c0 29 22 53 52 53c29 0 53 -24 53 -53c0 -30 -24 -52 -53 -52c-30 0 -52 22 -52 52z" />
    <glyph glyph-name="t" unicode="t" 
d="M185 537c0 29 22 53 52 53c29 0 53 -24 53 -53c0 -24 -16 -43 -37 -50c16 -5 29 -18 34 -34c7 21 26 37 50 37c23 0 43 -16 50 -37c7 21 26 37 50 37c29 0 53 -24 53 -53c0 -30 -24 -52 -53 -52c-24 0 -43 14 -50 35c-7 -21 -27 -35 -50 -35c-24 0 -43 14 -50 35
c-5 -16 -18 -28 -34 -33c21 -7 37 -27 37 -50c0 -24 -16 -43 -37 -50c21 -7 37 -27 37 -50c0 -24 -16 -43 -37 -50c21 -7 37 -27 37 -50c0 -30 -24 -52 -53 -52c-30 0 -52 22 -52 52c0 23 14 43 35 50c-21 7 -35 26 -35 50c0 23 14 43 35 50c-21 7 -35 26 -35 50
c0 23 14 43 35 50c-16 5 -28 17 -33 33c-7 -21 -27 -35 -50 -35c-24 0 -43 14 -50 35c-7 -21 -27 -35 -50 -35c-30 0 -52 22 -52 52c0 29 22 53 52 53c23 0 43 -16 50 -37c7 21 26 37 50 37c23 0 43 -16 50 -37c5 16 17 29 33 34c-21 7 -35 26 -35 50zM285 37
c0 29 22 53 52 53c23 0 43 -16 50 -37c7 21 26 37 50 37c29 0 53 -24 53 -53c0 -30 -24 -52 -53 -52c-24 0 -43 14 -50 35c-7 -21 -27 -35 -50 -35c-30 0 -52 22 -52 52z" />
    <glyph glyph-name="u" unicode="u" 
d="M385 437c0 29 22 53 52 53c29 0 53 -24 53 -53c0 -24 -16 -43 -37 -50c21 -7 37 -27 37 -50c0 -24 -16 -43 -37 -50c21 -7 37 -27 37 -50c0 -24 -16 -43 -37 -50c21 -7 37 -27 37 -50c0 -24 -16 -43 -37 -50c21 -7 37 -27 37 -50c0 -30 -24 -52 -53 -52
c-30 0 -52 22 -52 52c0 23 14 43 35 50c-16 5 -28 17 -33 33c-7 -21 -27 -35 -50 -35c-30 0 -52 22 -52 52c0 29 22 53 52 53c23 0 43 -16 50 -37c5 16 17 29 33 34c-21 7 -35 26 -35 50c0 23 14 43 35 50c-21 7 -35 26 -35 50c0 23 14 43 35 50c-21 7 -35 26 -35 50z
M-15 437c0 29 22 53 52 53c29 0 53 -24 53 -53c0 -24 -16 -43 -37 -50c21 -7 37 -27 37 -50c0 -24 -16 -43 -37 -50c21 -7 37 -27 37 -50c0 -24 -16 -43 -37 -50c21 -7 37 -27 37 -50c0 -30 -24 -52 -53 -52c-30 0 -52 22 -52 52c0 23 14 43 35 50c-21 7 -35 26 -35 50
c0 23 14 43 35 50c-21 7 -35 26 -35 50c0 23 14 43 35 50c-21 7 -35 26 -35 50zM85 37c0 29 22 53 52 53c23 0 43 -16 50 -37c7 21 26 37 50 37c29 0 53 -24 53 -53c0 -30 -24 -52 -53 -52c-24 0 -43 14 -50 35c-7 -21 -27 -35 -50 -35c-30 0 -52 22 -52 52z" />
    <glyph glyph-name="v" unicode="v" 
d="M85 237c0 29 22 53 52 53c29 0 53 -24 53 -53c0 -24 -16 -43 -37 -50c21 -7 37 -27 37 -50c0 -30 -24 -52 -53 -52c-30 0 -52 22 -52 52c0 23 14 43 35 50c-21 7 -35 26 -35 50zM285 237c0 29 22 53 52 53c29 0 53 -24 53 -53c0 -24 -16 -43 -37 -50c21 -7 37 -27 37 -50
c0 -30 -24 -52 -53 -52c-30 0 -52 22 -52 52c0 23 14 43 35 50c-21 7 -35 26 -35 50zM385 437c0 29 22 53 52 53c29 0 53 -24 53 -53c0 -24 -16 -43 -37 -50c21 -7 37 -27 37 -50c0 -30 -24 -52 -53 -52c-30 0 -52 22 -52 52c0 23 14 43 35 50c-21 7 -35 26 -35 50zM-15 437
c0 29 22 53 52 53c29 0 53 -24 53 -53c0 -24 -16 -43 -37 -50c21 -7 37 -27 37 -50c0 -30 -24 -52 -53 -52c-30 0 -52 22 -52 52c0 23 14 43 35 50c-21 7 -35 26 -35 50zM185 37c0 29 22 53 52 53c29 0 53 -24 53 -53c0 -30 -24 -52 -53 -52c-30 0 -52 22 -52 52z" />
    <glyph glyph-name="w" unicode="w" 
d="M-15 437c0 29 22 53 52 53c29 0 53 -24 53 -53c0 -24 -16 -43 -37 -50c21 -7 37 -27 37 -50c0 -24 -16 -43 -37 -50c21 -7 37 -27 37 -50c0 -30 -24 -52 -53 -52c-30 0 -52 22 -52 52c0 23 14 43 35 50c-21 7 -35 26 -35 50c0 23 14 43 35 50c-21 7 -35 26 -35 50z
M385 437c0 29 22 53 52 53c29 0 53 -24 53 -53c0 -24 -16 -43 -37 -50c21 -7 37 -27 37 -50c0 -24 -16 -43 -37 -50c21 -7 37 -27 37 -50c0 -30 -24 -52 -53 -52c-30 0 -52 22 -52 52c0 23 14 43 35 50c-21 7 -35 26 -35 50c0 23 14 43 35 50c-21 7 -35 26 -35 50zM85 137
c0 29 22 53 52 53c29 0 53 -24 53 -53c0 -24 -16 -43 -37 -50c21 -7 37 -27 37 -50c0 -30 -24 -52 -53 -52c-30 0 -52 22 -52 52c0 23 14 43 35 50c-21 7 -35 26 -35 50zM285 137c0 29 22 53 52 53c29 0 53 -24 53 -53c0 -24 -16 -43 -37 -50c21 -7 37 -27 37 -50
c0 -30 -24 -52 -53 -52c-30 0 -52 22 -52 52c0 23 14 43 35 50c-21 7 -35 26 -35 50zM185 337c0 29 22 53 52 53c29 0 53 -24 53 -53c0 -24 -16 -43 -37 -50c21 -7 37 -27 37 -50c0 -30 -24 -52 -53 -52c-30 0 -52 22 -52 52c0 23 14 43 35 50c-21 7 -35 26 -35 50z" />
    <glyph glyph-name="x" unicode="x" 
d="M85 237c0 29 22 53 52 53c23 0 43 -16 50 -37c7 21 26 37 50 37c23 0 43 -16 50 -37c7 21 26 37 50 37c29 0 53 -24 53 -53c0 -30 -24 -52 -53 -52c-24 0 -43 14 -50 35c-7 -21 -27 -35 -50 -35c-24 0 -43 14 -50 35c-7 -21 -27 -35 -50 -35c-30 0 -52 22 -52 52z
M-15 137c0 29 22 53 52 53c29 0 53 -24 53 -53c0 -24 -16 -43 -37 -50c21 -7 37 -27 37 -50c0 -30 -24 -52 -53 -52c-30 0 -52 22 -52 52c0 23 14 43 35 50c-21 7 -35 26 -35 50zM-15 337c0 23 14 43 35 50c-21 7 -35 26 -35 50c0 29 22 53 52 53c29 0 53 -24 53 -53
c0 -24 -16 -43 -37 -50c21 -7 37 -27 37 -50c0 -30 -24 -52 -53 -52c-30 0 -52 22 -52 52zM385 337c0 23 14 43 35 50c-21 7 -35 26 -35 50c0 29 22 53 52 53c29 0 53 -24 53 -53c0 -24 -16 -43 -37 -50c21 -7 37 -27 37 -50c0 -30 -24 -52 -53 -52c-30 0 -52 22 -52 52z
M385 137c0 29 22 53 52 53c29 0 53 -24 53 -53c0 -24 -16 -43 -37 -50c21 -7 37 -27 37 -50c0 -30 -24 -52 -53 -52c-30 0 -52 22 -52 52c0 23 14 43 35 50c-21 7 -35 26 -35 50z" />
    <glyph glyph-name="y" unicode="y" 
d="M185 -63c0 23 14 44 35 51c-21 6 -35 25 -35 49c0 29 22 53 52 53c29 0 53 -24 53 -53c0 -24 -16 -43 -37 -49c21 -7 37 -28 37 -51c0 -30 -24 -52 -53 -52c-30 0 -52 22 -52 52zM285 237c0 29 22 53 52 53c29 0 53 -24 53 -53c0 -24 -16 -43 -37 -50
c21 -7 37 -27 37 -50c0 -30 -24 -52 -53 -52c-30 0 -52 22 -52 52c0 23 14 43 35 50c-21 7 -35 26 -35 50zM385 437c0 29 22 53 52 53c29 0 53 -24 53 -53c0 -24 -16 -43 -37 -50c21 -7 37 -27 37 -50c0 -30 -24 -52 -53 -52c-30 0 -52 22 -52 52c0 23 14 43 35 50
c-21 7 -35 26 -35 50zM-15 -163c0 29 22 53 52 53c23 0 43 -15 50 -36c7 21 26 36 50 36c29 0 53 -24 53 -53c0 -30 -24 -52 -53 -52c-24 0 -43 14 -50 35c-7 -21 -27 -35 -50 -35c-30 0 -52 22 -52 52zM85 237c0 29 22 53 52 53c29 0 53 -24 53 -53c0 -24 -16 -43 -37 -50
c21 -7 37 -27 37 -50c0 -30 -24 -52 -53 -52c-30 0 -52 22 -52 52c0 23 14 43 35 50c-21 7 -35 26 -35 50zM-15 437c0 29 22 53 52 53c29 0 53 -24 53 -53c0 -24 -16 -43 -37 -50c21 -7 37 -27 37 -50c0 -30 -24 -52 -53 -52c-30 0 -52 22 -52 52c0 23 14 43 35 50
c-21 7 -35 26 -35 50z" />
    <glyph glyph-name="z" unicode="z" 
d="M85 137c0 29 22 53 52 53c29 0 53 -24 53 -53c0 -24 -16 -43 -37 -50c16 -5 29 -18 34 -34c7 21 26 37 50 37c23 0 43 -16 50 -37c7 21 26 37 50 37c23 0 43 -16 50 -37c7 21 26 37 50 37c29 0 53 -24 53 -53c0 -30 -24 -52 -53 -52c-24 0 -43 14 -50 35
c-7 -21 -27 -35 -50 -35c-24 0 -43 14 -50 35c-7 -21 -27 -35 -50 -35c-24 0 -43 14 -50 35c-7 -21 -27 -35 -50 -35c-24 0 -43 14 -50 35c-7 -21 -27 -35 -50 -35c-30 0 -52 22 -52 52c0 29 22 53 52 53c23 0 43 -16 50 -37c5 16 17 29 33 34c-21 7 -35 26 -35 50zM-15 437
c0 29 22 53 52 53c23 0 43 -16 50 -37c7 21 26 37 50 37c23 0 43 -16 50 -37c7 21 26 37 50 37c23 0 43 -16 50 -37c7 21 26 37 50 37c23 0 43 -16 50 -37c7 21 26 37 50 37c29 0 53 -24 53 -53c0 -30 -24 -52 -53 -52c-24 0 -43 14 -50 35c-5 -16 -18 -28 -34 -33
c21 -7 37 -27 37 -50c0 -30 -24 -52 -53 -52c-30 0 -52 22 -52 52c0 23 14 43 35 50c-16 5 -28 17 -33 33c-7 -21 -27 -35 -50 -35c-24 0 -43 14 -50 35c-7 -21 -27 -35 -50 -35c-24 0 -43 14 -50 35c-7 -21 -27 -35 -50 -35c-30 0 -52 22 -52 52zM185 237c0 29 22 53 52 53
c29 0 53 -24 53 -53c0 -30 -24 -52 -53 -52c-30 0 -52 22 -52 52z" />
    <glyph glyph-name="beta" unicode="&#x3b2;" 
d="M-15 -63c0 23 14 44 35 51c-21 6 -35 25 -35 49c0 23 14 43 35 50c-21 7 -35 26 -35 50c0 23 14 43 35 50c-21 7 -35 26 -35 50c0 23 14 43 35 50c-21 7 -35 26 -35 50c0 23 14 43 35 50c-21 7 -35 26 -35 50c0 23 14 43 35 50c-21 7 -35 26 -35 50c0 29 22 53 52 53
c29 0 53 -24 53 -53c0 -24 -16 -43 -37 -50c21 -7 37 -27 37 -50c0 -24 -16 -43 -37 -50c21 -7 37 -27 37 -50c0 -24 -16 -43 -37 -50c21 -7 37 -27 37 -50c0 -24 -16 -43 -37 -50c21 -7 37 -27 37 -50c0 -24 -16 -43 -37 -50c16 -5 29 -18 34 -34c7 21 26 37 50 37
c23 0 43 -16 50 -37c7 21 26 37 50 37c23 0 43 -16 50 -37c7 21 26 37 50 37c29 0 53 -24 53 -53c0 -30 -24 -52 -53 -52c-24 0 -43 14 -50 35c-7 -21 -27 -35 -50 -35c-24 0 -43 14 -50 35c-7 -21 -27 -35 -50 -35c-24 0 -43 14 -50 35c-5 -16 -18 -27 -34 -32
c21 -7 37 -28 37 -51c0 -24 -16 -43 -37 -49c21 -7 37 -28 37 -51c0 -30 -24 -52 -53 -52c-30 0 -52 22 -52 52c0 23 14 44 35 51c-21 6 -35 25 -35 49zM85 637c0 29 22 53 52 53c23 0 43 -16 50 -37c7 21 26 37 50 37c23 0 43 -16 50 -37c7 21 26 37 50 37
c29 0 53 -24 53 -53c0 -30 -24 -52 -53 -52c-24 0 -43 14 -50 35c-7 -21 -27 -35 -50 -35c-24 0 -43 14 -50 35c-7 -21 -27 -35 -50 -35c-30 0 -52 22 -52 52zM385 237c0 29 22 53 52 53c29 0 53 -24 53 -53c0 -24 -16 -43 -37 -50c21 -7 37 -27 37 -50
c0 -30 -24 -52 -53 -52c-30 0 -52 22 -52 52c0 23 14 43 35 50c-21 7 -35 26 -35 50zM185 337c0 29 22 53 52 53c23 0 43 -16 50 -37c7 21 26 37 50 37c29 0 53 -24 53 -53c0 -30 -24 -52 -53 -52c-24 0 -43 14 -50 35c-7 -21 -27 -35 -50 -35c-30 0 -52 22 -52 52zM385 537
c0 29 22 53 52 53c29 0 53 -24 53 -53c0 -24 -16 -43 -37 -50c21 -7 37 -27 37 -50c0 -30 -24 -52 -53 -52c-30 0 -52 22 -52 52c0 23 14 43 35 50c-21 7 -35 26 -35 50z" />
    <glyph glyph-name="bracketleft" unicode="[" 
d="M185 637c0 29 22 53 52 53c23 0 43 -16 50 -37c7 21 26 37 50 37c29 0 53 -24 53 -53c0 -30 -24 -52 -53 -52c-24 0 -43 14 -50 35c-5 -16 -18 -28 -34 -33c21 -7 37 -27 37 -50c0 -24 -16 -43 -37 -50c21 -7 37 -27 37 -50c0 -24 -16 -43 -37 -50c21 -7 37 -27 37 -50
c0 -24 -16 -43 -37 -50c21 -7 37 -27 37 -50c0 -24 -16 -43 -37 -50c21 -7 37 -27 37 -50c0 -24 -16 -43 -37 -50c16 -5 29 -18 34 -34c7 21 26 37 50 37c29 0 53 -24 53 -53c0 -30 -24 -52 -53 -52c-24 0 -43 14 -50 35c-7 -21 -27 -35 -50 -35c-30 0 -52 22 -52 52
c0 23 14 43 35 50c-21 7 -35 26 -35 50c0 23 14 43 35 50c-21 7 -35 26 -35 50c0 23 14 43 35 50c-21 7 -35 26 -35 50c0 23 14 43 35 50c-21 7 -35 26 -35 50c0 23 14 43 35 50c-21 7 -35 26 -35 50c0 23 14 43 35 50c-21 7 -35 26 -35 50z" />
    <glyph glyph-name="g" unicode="g" 
d="M385 -63c0 23 14 44 35 51c-21 6 -35 25 -35 49c0 23 14 43 35 50c-16 5 -28 17 -33 33c-7 -21 -27 -35 -50 -35c-30 0 -52 22 -52 52c0 29 22 53 52 53c23 0 43 -16 50 -37c5 16 17 29 33 34c-21 7 -35 26 -35 50c0 23 14 43 35 50c-21 7 -35 26 -35 50
c0 23 14 43 35 50c-16 5 -28 17 -33 33c-7 -21 -27 -35 -50 -35c-24 0 -43 14 -50 35c-7 -21 -27 -35 -50 -35c-24 0 -43 14 -50 35c-7 -21 -27 -35 -50 -35c-30 0 -52 22 -52 52c0 29 22 53 52 53c23 0 43 -16 50 -37c7 21 26 37 50 37c23 0 43 -16 50 -37
c7 21 26 37 50 37c23 0 43 -16 50 -37c7 21 26 37 50 37c29 0 53 -24 53 -53c0 -24 -16 -43 -37 -50c21 -7 37 -27 37 -50c0 -24 -16 -43 -37 -50c21 -7 37 -27 37 -50c0 -24 -16 -43 -37 -50c21 -7 37 -27 37 -50c0 -24 -16 -43 -37 -50c21 -7 37 -27 37 -50
c0 -24 -16 -43 -37 -49c21 -7 37 -28 37 -51c0 -30 -24 -52 -53 -52c-30 0 -52 22 -52 52zM85 -163c0 29 22 53 52 53c23 0 43 -15 50 -36c7 21 26 36 50 36c23 0 43 -15 50 -36c7 21 26 36 50 36c29 0 53 -24 53 -53c0 -30 -24 -52 -53 -52c-24 0 -43 14 -50 35
c-7 -21 -27 -35 -50 -35c-24 0 -43 14 -50 35c-7 -21 -27 -35 -50 -35c-30 0 -52 22 -52 52zM-15 337c0 29 22 53 52 53c29 0 53 -24 53 -53c0 -24 -16 -43 -37 -50c21 -7 37 -27 37 -50c0 -24 -16 -43 -37 -50c21 -7 37 -27 37 -50c0 -30 -24 -52 -53 -52
c-30 0 -52 22 -52 52c0 23 14 43 35 50c-21 7 -35 26 -35 50c0 23 14 43 35 50c-21 7 -35 26 -35 50zM85 37c0 29 22 53 52 53c23 0 43 -16 50 -37c7 21 26 37 50 37c29 0 53 -24 53 -53c0 -30 -24 -52 -53 -52c-24 0 -43 14 -50 35c-7 -21 -27 -35 -50 -35
c-30 0 -52 22 -52 52z" />
    <glyph glyph-name="D" unicode="D" 
d="M-15 637c0 29 22 53 52 53c23 0 43 -16 50 -37c7 21 26 37 50 37c23 0 43 -16 50 -37c7 21 26 37 50 37c23 0 43 -16 50 -37c7 21 26 37 50 37c29 0 53 -24 53 -53c0 -30 -24 -52 -53 -52c-24 0 -43 14 -50 35c-7 -21 -27 -35 -50 -35c-24 0 -43 14 -50 35
c-7 -21 -27 -35 -50 -35c-24 0 -43 14 -50 35c-5 -16 -18 -28 -34 -33c21 -7 37 -27 37 -50c0 -24 -16 -43 -37 -50c21 -7 37 -27 37 -50c0 -24 -16 -43 -37 -50c21 -7 37 -27 37 -50c0 -24 -16 -43 -37 -50c21 -7 37 -27 37 -50c0 -24 -16 -43 -37 -50c21 -7 37 -27 37 -50
c0 -24 -16 -43 -37 -50c16 -5 29 -18 34 -34c7 21 26 37 50 37c23 0 43 -16 50 -37c7 21 26 37 50 37c23 0 43 -16 50 -37c7 21 26 37 50 37c29 0 53 -24 53 -53c0 -30 -24 -52 -53 -52c-24 0 -43 14 -50 35c-7 -21 -27 -35 -50 -35c-24 0 -43 14 -50 35
c-7 -21 -27 -35 -50 -35c-24 0 -43 14 -50 35c-7 -21 -27 -35 -50 -35c-30 0 -52 22 -52 52c0 23 14 43 35 50c-21 7 -35 26 -35 50c0 23 14 43 35 50c-21 7 -35 26 -35 50c0 23 14 43 35 50c-21 7 -35 26 -35 50c0 23 14 43 35 50c-21 7 -35 26 -35 50c0 23 14 43 35 50
c-21 7 -35 26 -35 50c0 23 14 43 35 50c-21 7 -35 26 -35 50zM385 537c0 29 22 53 52 53c29 0 53 -24 53 -53c0 -24 -16 -43 -37 -50c21 -7 37 -27 37 -50c0 -24 -16 -43 -37 -50c21 -7 37 -27 37 -50c0 -24 -16 -43 -37 -50c21 -7 37 -27 37 -50c0 -24 -16 -43 -37 -50
c21 -7 37 -27 37 -50c0 -30 -24 -52 -53 -52c-30 0 -52 22 -52 52c0 23 14 43 35 50c-21 7 -35 26 -35 50c0 23 14 43 35 50c-21 7 -35 26 -35 50c0 23 14 43 35 50c-21 7 -35 26 -35 50c0 23 14 43 35 50c-21 7 -35 26 -35 50z" />
    <glyph glyph-name="L.smcp" 
d="M-15 437c0 29 22 53 52 53c29 0 53 -24 53 -53c0 -24 -16 -43 -37 -50c21 -7 37 -27 37 -50c0 -24 -16 -43 -37 -50c21 -7 37 -27 37 -50c0 -24 -16 -43 -37 -50c21 -7 37 -27 37 -50c0 -24 -16 -43 -37 -50c16 -5 29 -18 34 -34c7 21 26 37 50 37c23 0 43 -16 50 -37
c7 21 26 37 50 37c23 0 43 -16 50 -37c7 21 26 37 50 37c23 0 43 -16 50 -37c7 21 26 37 50 37c29 0 53 -24 53 -53c0 -30 -24 -52 -53 -52c-24 0 -43 14 -50 35c-7 -21 -27 -35 -50 -35c-24 0 -43 14 -50 35c-7 -21 -27 -35 -50 -35c-24 0 -43 14 -50 35
c-7 -21 -27 -35 -50 -35c-24 0 -43 14 -50 35c-7 -21 -27 -35 -50 -35c-30 0 -52 22 -52 52c0 23 14 43 35 50c-21 7 -35 26 -35 50c0 23 14 43 35 50c-21 7 -35 26 -35 50c0 23 14 43 35 50c-21 7 -35 26 -35 50c0 23 14 43 35 50c-21 7 -35 26 -35 50z" />
    <glyph glyph-name="M.smcp" 
d="M-15 437c0 29 22 53 52 53c29 0 53 -24 53 -53c0 -24 -16 -43 -37 -50c16 -5 29 -18 34 -34c7 21 26 37 50 37c29 0 53 -24 53 -53c0 -30 -24 -52 -53 -52c-24 0 -43 14 -50 35c-5 -16 -18 -28 -34 -33c21 -7 37 -27 37 -50c0 -24 -16 -43 -37 -50c21 -7 37 -27 37 -50
c0 -24 -16 -43 -37 -50c21 -7 37 -27 37 -50c0 -30 -24 -52 -53 -52c-30 0 -52 22 -52 52c0 23 14 43 35 50c-21 7 -35 26 -35 50c0 23 14 43 35 50c-21 7 -35 26 -35 50c0 23 14 43 35 50c-21 7 -35 26 -35 50c0 23 14 43 35 50c-21 7 -35 26 -35 50zM385 437
c0 29 22 53 52 53c29 0 53 -24 53 -53c0 -24 -16 -43 -37 -50c21 -7 37 -27 37 -50c0 -24 -16 -43 -37 -50c21 -7 37 -27 37 -50c0 -24 -16 -43 -37 -50c21 -7 37 -27 37 -50c0 -24 -16 -43 -37 -50c21 -7 37 -27 37 -50c0 -30 -24 -52 -53 -52c-30 0 -52 22 -52 52
c0 23 14 43 35 50c-21 7 -35 26 -35 50c0 23 14 43 35 50c-21 7 -35 26 -35 50c0 23 14 43 35 50c-16 5 -28 17 -33 33c-7 -21 -27 -35 -50 -35c-30 0 -52 22 -52 52c0 29 22 53 52 53c23 0 43 -16 50 -37c5 16 17 29 33 34c-21 7 -35 26 -35 50zM185 237c0 29 22 53 52 53
c29 0 53 -24 53 -53c0 -24 -16 -43 -37 -50c21 -7 37 -27 37 -50c0 -30 -24 -52 -53 -52c-30 0 -52 22 -52 52c0 23 14 43 35 50c-21 7 -35 26 -35 50z" />
    <glyph glyph-name="Upsilon.smcp" 
d="M185 137c0 29 22 53 52 53c29 0 53 -24 53 -53c0 -24 -16 -43 -37 -50c21 -7 37 -27 37 -50c0 -30 -24 -52 -53 -52c-30 0 -52 22 -52 52c0 23 14 43 35 50c-21 7 -35 26 -35 50zM-15 437c0 29 22 53 52 53c29 0 53 -24 53 -53c0 -24 -16 -43 -37 -50
c21 -7 37 -27 37 -50c0 -30 -24 -52 -53 -52c-30 0 -52 22 -52 52c0 23 14 43 35 50c-21 7 -35 26 -35 50zM385 437c0 29 22 53 52 53c29 0 53 -24 53 -53c0 -24 -16 -43 -37 -50c21 -7 37 -27 37 -50c0 -30 -24 -52 -53 -52c-30 0 -52 22 -52 52c0 23 14 43 35 50
c-21 7 -35 26 -35 50zM285 237c0 29 22 53 52 53c29 0 53 -24 53 -53c0 -30 -24 -52 -53 -52c-30 0 -52 22 -52 52zM85 237c0 29 22 53 52 53c29 0 53 -24 53 -53c0 -30 -24 -52 -53 -52c-30 0 -52 22 -52 52z" />
    <glyph glyph-name="adieresis" unicode="&#xe4;" 
d="M385 337c0 29 22 53 52 53c29 0 53 -24 53 -53c0 -24 -16 -43 -37 -50c21 -7 37 -27 37 -50c0 -24 -16 -43 -37 -50c21 -7 37 -27 37 -50c0 -24 -16 -43 -37 -50c21 -7 37 -27 37 -50c0 -30 -24 -52 -53 -52c-24 0 -43 14 -50 35c-7 -21 -27 -35 -50 -35
c-24 0 -43 14 -50 35c-7 -21 -27 -35 -50 -35c-24 0 -43 14 -50 35c-7 -21 -27 -35 -50 -35c-30 0 -52 22 -52 52c0 29 22 53 52 53c23 0 43 -16 50 -37c7 21 26 37 50 37c23 0 43 -16 50 -37c7 21 26 37 50 37c23 0 43 -16 50 -37c5 16 17 29 33 34c-21 7 -35 26 -35 50
c0 23 14 43 35 50c-16 5 -28 17 -33 33c-7 -21 -27 -35 -50 -35c-24 0 -43 14 -50 35c-7 -21 -27 -35 -50 -35c-24 0 -43 14 -50 35c-7 -21 -27 -35 -50 -35c-30 0 -52 22 -52 52c0 29 22 53 52 53c23 0 43 -16 50 -37c7 21 26 37 50 37c23 0 43 -16 50 -37
c7 21 26 37 50 37c23 0 43 -16 50 -37c5 16 17 29 33 34c-21 7 -35 26 -35 50zM85 437c0 29 22 53 52 53c23 0 43 -16 50 -37c7 21 26 37 50 37c23 0 43 -16 50 -37c7 21 26 37 50 37c29 0 53 -24 53 -53c0 -30 -24 -52 -53 -52c-24 0 -43 14 -50 35c-7 -21 -27 -35 -50 -35
c-24 0 -43 14 -50 35c-7 -21 -27 -35 -50 -35c-30 0 -52 22 -52 52zM-15 137c0 29 22 53 52 53c29 0 53 -24 53 -53c0 -30 -24 -52 -53 -52c-30 0 -52 22 -52 52zM-15 737c0 29 22 53 52 53c29 0 53 -24 53 -53c0 -24 -16 -43 -37 -50c21 -7 37 -27 37 -50
c0 -30 -24 -52 -53 -52c-30 0 -52 22 -52 52c0 23 14 43 35 50c-21 7 -35 26 -35 50zM385 737c0 29 22 53 52 53c29 0 53 -24 53 -53c0 -24 -16 -43 -37 -50c21 -7 37 -27 37 -50c0 -30 -24 -52 -53 -52c-30 0 -52 22 -52 52c0 23 14 43 35 50c-21 7 -35 26 -35 50z" />
    <glyph glyph-name="oe" unicode="&#x153;" 
d="M385 337c0 29 22 53 52 53c29 0 53 -24 53 -53c0 -24 -16 -43 -37 -50c21 -7 37 -27 37 -50c0 -30 -24 -52 -53 -52c-24 0 -43 14 -50 35c-7 -21 -27 -35 -50 -35c-24 0 -43 14 -50 35c-5 -16 -18 -28 -34 -33c21 -7 37 -27 37 -50c0 -30 -24 -52 -53 -52
c-30 0 -52 22 -52 52c0 23 14 43 35 50c-21 7 -35 26 -35 50c0 23 14 43 35 50c-21 7 -35 26 -35 50c0 29 22 53 52 53c29 0 53 -24 53 -53c0 -24 -16 -43 -37 -50c16 -5 29 -18 34 -34c7 21 26 37 50 37c23 0 43 -16 50 -37c5 16 17 29 33 34c-21 7 -35 26 -35 50zM-15 337
c0 29 22 53 52 53c29 0 53 -24 53 -53c0 -24 -16 -43 -37 -50c21 -7 37 -27 37 -50c0 -24 -16 -43 -37 -50c21 -7 37 -27 37 -50c0 -30 -24 -52 -53 -52c-30 0 -52 22 -52 52c0 23 14 43 35 50c-21 7 -35 26 -35 50c0 23 14 43 35 50c-21 7 -35 26 -35 50zM285 37
c0 29 22 53 52 53c23 0 43 -16 50 -37c7 21 26 37 50 37c29 0 53 -24 53 -53c0 -30 -24 -52 -53 -52c-24 0 -43 14 -50 35c-7 -21 -27 -35 -50 -35c-30 0 -52 22 -52 52zM85 37c0 29 22 53 52 53c29 0 53 -24 53 -53c0 -30 -24 -52 -53 -52c-30 0 -52 22 -52 52zM85 437
c0 29 22 53 52 53c29 0 53 -24 53 -53c0 -30 -24 -52 -53 -52c-30 0 -52 22 -52 52zM285 437c0 29 22 53 52 53c29 0 53 -24 53 -53c0 -30 -24 -52 -53 -52c-30 0 -52 22 -52 52z" />
    <glyph glyph-name="odieresis" unicode="&#xf6;" 
d="M85 37c0 29 22 53 52 53c23 0 43 -16 50 -37c7 21 26 37 50 37c23 0 43 -16 50 -37c7 21 26 37 50 37c29 0 53 -24 53 -53c0 -30 -24 -52 -53 -52c-24 0 -43 14 -50 35c-7 -21 -27 -35 -50 -35c-24 0 -43 14 -50 35c-7 -21 -27 -35 -50 -35c-30 0 -52 22 -52 52zM-15 337
c0 29 22 53 52 53c29 0 53 -24 53 -53c0 -24 -16 -43 -37 -50c21 -7 37 -27 37 -50c0 -24 -16 -43 -37 -50c21 -7 37 -27 37 -50c0 -30 -24 -52 -53 -52c-30 0 -52 22 -52 52c0 23 14 43 35 50c-21 7 -35 26 -35 50c0 23 14 43 35 50c-21 7 -35 26 -35 50zM85 437
c0 29 22 53 52 53c23 0 43 -16 50 -37c7 21 26 37 50 37c23 0 43 -16 50 -37c7 21 26 37 50 37c29 0 53 -24 53 -53c0 -30 -24 -52 -53 -52c-24 0 -43 14 -50 35c-7 -21 -27 -35 -50 -35c-24 0 -43 14 -50 35c-7 -21 -27 -35 -50 -35c-30 0 -52 22 -52 52zM385 337
c0 29 22 53 52 53c29 0 53 -24 53 -53c0 -24 -16 -43 -37 -50c21 -7 37 -27 37 -50c0 -24 -16 -43 -37 -50c21 -7 37 -27 37 -50c0 -30 -24 -52 -53 -52c-30 0 -52 22 -52 52c0 23 14 43 35 50c-21 7 -35 26 -35 50c0 23 14 43 35 50c-21 7 -35 26 -35 50zM-15 737
c0 29 22 53 52 53c29 0 53 -24 53 -53c0 -24 -16 -43 -37 -50c21 -7 37 -27 37 -50c0 -30 -24 -52 -53 -52c-30 0 -52 22 -52 52c0 23 14 43 35 50c-21 7 -35 26 -35 50zM385 737c0 29 22 53 52 53c29 0 53 -24 53 -53c0 -24 -16 -43 -37 -50c21 -7 37 -27 37 -50
c0 -30 -24 -52 -53 -52c-30 0 -52 22 -52 52c0 23 14 43 35 50c-21 7 -35 26 -35 50z" />
    <glyph glyph-name="agrave" unicode="&#xe0;" 
d="M385 337c0 29 22 53 52 53c29 0 53 -24 53 -53c0 -24 -16 -43 -37 -50c21 -7 37 -27 37 -50c0 -24 -16 -43 -37 -50c21 -7 37 -27 37 -50c0 -24 -16 -43 -37 -50c21 -7 37 -27 37 -50c0 -30 -24 -52 -53 -52c-24 0 -43 14 -50 35c-7 -21 -27 -35 -50 -35
c-24 0 -43 14 -50 35c-7 -21 -27 -35 -50 -35c-24 0 -43 14 -50 35c-7 -21 -27 -35 -50 -35c-30 0 -52 22 -52 52c0 29 22 53 52 53c23 0 43 -16 50 -37c7 21 26 37 50 37c23 0 43 -16 50 -37c7 21 26 37 50 37c23 0 43 -16 50 -37c5 16 17 29 33 34c-21 7 -35 26 -35 50
c0 23 14 43 35 50c-16 5 -28 17 -33 33c-7 -21 -27 -35 -50 -35c-24 0 -43 14 -50 35c-7 -21 -27 -35 -50 -35c-24 0 -43 14 -50 35c-7 -21 -27 -35 -50 -35c-30 0 -52 22 -52 52c0 29 22 53 52 53c23 0 43 -16 50 -37c7 21 26 37 50 37c23 0 43 -16 50 -37
c7 21 26 37 50 37c23 0 43 -16 50 -37c5 16 17 29 33 34c-21 7 -35 26 -35 50zM85 437c0 29 22 53 52 53c23 0 43 -16 50 -37c7 21 26 37 50 37c23 0 43 -16 50 -37c7 21 26 37 50 37c29 0 53 -24 53 -53c0 -30 -24 -52 -53 -52c-24 0 -43 14 -50 35c-7 -21 -27 -35 -50 -35
c-24 0 -43 14 -50 35c-7 -21 -27 -35 -50 -35c-30 0 -52 22 -52 52zM-15 137c0 29 22 53 52 53c29 0 53 -24 53 -53c0 -30 -24 -52 -53 -52c-30 0 -52 22 -52 52zM185 637c0 29 22 53 52 53c23 0 43 -16 50 -37c7 21 26 37 50 37c29 0 53 -24 53 -53c0 -30 -24 -52 -53 -52
c-24 0 -43 14 -50 35c-7 -21 -27 -35 -50 -35c-30 0 -52 22 -52 52zM85 737c0 29 22 53 52 53c29 0 53 -24 53 -53c0 -30 -24 -52 -53 -52c-30 0 -52 22 -52 52z" />
    <glyph glyph-name="Odieresis" unicode="&#xd6;" 
d="M-15 962c0 29 22 53 52 53c29 0 53 -24 53 -53c0 -24 -16 -43 -37 -50c21 -7 37 -27 37 -50c0 -30 -24 -52 -53 -52c-30 0 -52 22 -52 52c0 23 14 43 35 50c-21 7 -35 26 -35 50zM385 962c0 29 22 53 52 53c29 0 53 -24 53 -53c0 -24 -16 -43 -37 -50
c21 -7 37 -27 37 -50c0 -30 -24 -52 -53 -52c-30 0 -52 22 -52 52c0 23 14 43 35 50c-21 7 -35 26 -35 50zM-15 537c0 29 22 53 52 53c29 0 53 -24 53 -53c0 -24 -16 -43 -37 -50c21 -7 37 -27 37 -50c0 -24 -16 -43 -37 -50c21 -7 37 -27 37 -50c0 -24 -16 -43 -37 -50
c21 -7 37 -27 37 -50c0 -24 -16 -43 -37 -50c21 -7 37 -27 37 -50c0 -30 -24 -52 -53 -52c-30 0 -52 22 -52 52c0 23 14 43 35 50c-21 7 -35 26 -35 50c0 23 14 43 35 50c-21 7 -35 26 -35 50c0 23 14 43 35 50c-21 7 -35 26 -35 50c0 23 14 43 35 50c-21 7 -35 26 -35 50z
M385 537c0 29 22 53 52 53c29 0 53 -24 53 -53c0 -24 -16 -43 -37 -50c21 -7 37 -27 37 -50c0 -24 -16 -43 -37 -50c21 -7 37 -27 37 -50c0 -24 -16 -43 -37 -50c21 -7 37 -27 37 -50c0 -24 -16 -43 -37 -50c21 -7 37 -27 37 -50c0 -30 -24 -52 -53 -52c-30 0 -52 22 -52 52
c0 23 14 43 35 50c-21 7 -35 26 -35 50c0 23 14 43 35 50c-21 7 -35 26 -35 50c0 23 14 43 35 50c-21 7 -35 26 -35 50c0 23 14 43 35 50c-21 7 -35 26 -35 50zM85 37c0 29 22 53 52 53c23 0 43 -16 50 -37c7 21 26 37 50 37c23 0 43 -16 50 -37c7 21 26 37 50 37
c29 0 53 -24 53 -53c0 -30 -24 -52 -53 -52c-24 0 -43 14 -50 35c-7 -21 -27 -35 -50 -35c-24 0 -43 14 -50 35c-7 -21 -27 -35 -50 -35c-30 0 -52 22 -52 52zM85 637c0 29 22 53 52 53c23 0 43 -16 50 -37c7 21 26 37 50 37c23 0 43 -16 50 -37c7 21 26 37 50 37
c29 0 53 -24 53 -53c0 -30 -24 -52 -53 -52c-24 0 -43 14 -50 35c-7 -21 -27 -35 -50 -35c-24 0 -43 14 -50 35c-7 -21 -27 -35 -50 -35c-30 0 -52 22 -52 52z" />
    <glyph glyph-name="Adieresis" unicode="&#xc4;" 
d="M385 137c0 23 14 43 35 50c-16 5 -28 17 -33 33c-7 -21 -27 -35 -50 -35c-24 0 -43 14 -50 35c-7 -21 -27 -35 -50 -35c-24 0 -43 14 -50 35c-7 -21 -27 -35 -50 -35c-24 0 -43 14 -50 35c-5 -16 -18 -28 -34 -33c21 -7 37 -27 37 -50c0 -24 -16 -43 -37 -50
c21 -7 37 -27 37 -50c0 -30 -24 -52 -53 -52c-30 0 -52 22 -52 52c0 23 14 43 35 50c-21 7 -35 26 -35 50c0 23 14 43 35 50c-21 7 -35 26 -35 50c0 23 14 43 35 50c-21 7 -35 26 -35 50c0 23 14 43 35 50c-21 7 -35 26 -35 50c0 23 14 43 35 50c-21 7 -35 26 -35 50
c0 29 22 53 52 53c29 0 53 -24 53 -53c0 -24 -16 -43 -37 -50c21 -7 37 -27 37 -50c0 -24 -16 -43 -37 -50c21 -7 37 -27 37 -50c0 -24 -16 -43 -37 -50c16 -5 29 -18 34 -34c7 21 26 37 50 37c23 0 43 -16 50 -37c7 21 26 37 50 37c23 0 43 -16 50 -37c7 21 26 37 50 37
c23 0 43 -16 50 -37c5 16 17 29 33 34c-21 7 -35 26 -35 50c0 23 14 43 35 50c-21 7 -35 26 -35 50c0 23 14 43 35 50c-21 7 -35 26 -35 50c0 29 22 53 52 53c29 0 53 -24 53 -53c0 -24 -16 -43 -37 -50c21 -7 37 -27 37 -50c0 -24 -16 -43 -37 -50c21 -7 37 -27 37 -50
c0 -24 -16 -43 -37 -50c21 -7 37 -27 37 -50c0 -24 -16 -43 -37 -50c21 -7 37 -27 37 -50c0 -24 -16 -43 -37 -50c21 -7 37 -27 37 -50c0 -30 -24 -52 -53 -52c-30 0 -52 22 -52 52c0 23 14 43 35 50c-21 7 -35 26 -35 50zM85 637c0 29 22 53 52 53c23 0 43 -16 50 -37
c7 21 26 37 50 37c23 0 43 -16 50 -37c7 21 26 37 50 37c29 0 53 -24 53 -53c0 -30 -24 -52 -53 -52c-24 0 -43 14 -50 35c-7 -21 -27 -35 -50 -35c-24 0 -43 14 -50 35c-7 -21 -27 -35 -50 -35c-30 0 -52 22 -52 52zM-15 962c0 29 22 53 52 53c29 0 53 -24 53 -53
c0 -24 -16 -43 -37 -50c21 -7 37 -27 37 -50c0 -30 -24 -52 -53 -52c-30 0 -52 22 -52 52c0 23 14 43 35 50c-21 7 -35 26 -35 50zM385 962c0 29 22 53 52 53c29 0 53 -24 53 -53c0 -24 -16 -43 -37 -50c21 -7 37 -27 37 -50c0 -30 -24 -52 -53 -52c-30 0 -52 22 -52 52
c0 23 14 43 35 50c-21 7 -35 26 -35 50z" />
    <glyph glyph-name="idieresis" unicode="&#xef;" 
d="M-15 437c0 29 22 53 52 53c23 0 43 -16 50 -37c7 21 26 37 50 37c23 0 43 -16 50 -37c7 21 26 37 50 37c29 0 53 -24 53 -53c0 -24 -16 -43 -37 -50c21 -7 37 -27 37 -50c0 -24 -16 -43 -37 -50c21 -7 37 -27 37 -50c0 -24 -16 -43 -37 -50c21 -7 37 -27 37 -50
c0 -24 -16 -43 -37 -50c16 -5 29 -18 34 -34c7 21 26 37 50 37c23 0 43 -16 50 -37c7 21 26 37 50 37c29 0 53 -24 53 -53c0 -30 -24 -52 -53 -52c-24 0 -43 14 -50 35c-7 -21 -27 -35 -50 -35c-24 0 -43 14 -50 35c-7 -21 -27 -35 -50 -35c-24 0 -43 14 -50 35
c-7 -21 -27 -35 -50 -35c-24 0 -43 14 -50 35c-7 -21 -27 -35 -50 -35c-30 0 -52 22 -52 52c0 29 22 53 52 53c23 0 43 -16 50 -37c7 21 26 37 50 37c23 0 43 -16 50 -37c5 16 17 29 33 34c-21 7 -35 26 -35 50c0 23 14 43 35 50c-21 7 -35 26 -35 50c0 23 14 43 35 50
c-21 7 -35 26 -35 50c0 23 14 43 35 50c-16 5 -28 17 -33 33c-7 -21 -27 -35 -50 -35c-24 0 -43 14 -50 35c-7 -21 -27 -35 -50 -35c-30 0 -52 22 -52 52zM-15 737c0 29 22 53 52 53c29 0 53 -24 53 -53c0 -24 -16 -43 -37 -50c21 -7 37 -27 37 -50c0 -30 -24 -52 -53 -52
c-30 0 -52 22 -52 52c0 23 14 43 35 50c-21 7 -35 26 -35 50zM385 737c0 29 22 53 52 53c29 0 53 -24 53 -53c0 -24 -16 -43 -37 -50c21 -7 37 -27 37 -50c0 -30 -24 -52 -53 -52c-30 0 -52 22 -52 52c0 23 14 43 35 50c-21 7 -35 26 -35 50z" />
    <glyph glyph-name="edieresis" unicode="&#xeb;" 
d="M385 337c0 29 22 53 52 53c29 0 53 -24 53 -53c0 -24 -16 -43 -37 -50c21 -7 37 -27 37 -50c0 -30 -24 -52 -53 -52c-24 0 -43 14 -50 35c-7 -21 -27 -35 -50 -35c-24 0 -43 14 -50 35c-7 -21 -27 -35 -50 -35c-24 0 -43 14 -50 35c-7 -21 -27 -35 -50 -35
c-24 0 -43 14 -50 35c-5 -16 -18 -28 -34 -33c21 -7 37 -27 37 -50c0 -30 -24 -52 -53 -52c-30 0 -52 22 -52 52c0 23 14 43 35 50c-21 7 -35 26 -35 50c0 23 14 43 35 50c-21 7 -35 26 -35 50c0 29 22 53 52 53c29 0 53 -24 53 -53c0 -24 -16 -43 -37 -50
c16 -5 29 -18 34 -34c7 21 26 37 50 37c23 0 43 -16 50 -37c7 21 26 37 50 37c23 0 43 -16 50 -37c7 21 26 37 50 37c23 0 43 -16 50 -37c5 16 17 29 33 34c-21 7 -35 26 -35 50zM85 37c0 29 22 53 52 53c23 0 43 -16 50 -37c7 21 26 37 50 37c23 0 43 -16 50 -37
c7 21 26 37 50 37c23 0 43 -16 50 -37c7 21 26 37 50 37c29 0 53 -24 53 -53c0 -30 -24 -52 -53 -52c-24 0 -43 14 -50 35c-7 -21 -27 -35 -50 -35c-24 0 -43 14 -50 35c-7 -21 -27 -35 -50 -35c-24 0 -43 14 -50 35c-7 -21 -27 -35 -50 -35c-30 0 -52 22 -52 52zM85 437
c0 29 22 53 52 53c23 0 43 -16 50 -37c7 21 26 37 50 37c23 0 43 -16 50 -37c7 21 26 37 50 37c29 0 53 -24 53 -53c0 -30 -24 -52 -53 -52c-24 0 -43 14 -50 35c-7 -21 -27 -35 -50 -35c-24 0 -43 14 -50 35c-7 -21 -27 -35 -50 -35c-30 0 -52 22 -52 52zM-15 737
c0 29 22 53 52 53c29 0 53 -24 53 -53c0 -24 -16 -43 -37 -50c21 -7 37 -27 37 -50c0 -30 -24 -52 -53 -52c-30 0 -52 22 -52 52c0 23 14 43 35 50c-21 7 -35 26 -35 50zM385 737c0 29 22 53 52 53c29 0 53 -24 53 -53c0 -24 -16 -43 -37 -50c21 -7 37 -27 37 -50
c0 -30 -24 -52 -53 -52c-30 0 -52 22 -52 52c0 23 14 43 35 50c-21 7 -35 26 -35 50z" />
    <glyph glyph-name="egrave" unicode="&#xe8;" 
d="M385 337c0 29 22 53 52 53c29 0 53 -24 53 -53c0 -24 -16 -43 -37 -50c21 -7 37 -27 37 -50c0 -30 -24 -52 -53 -52c-24 0 -43 14 -50 35c-7 -21 -27 -35 -50 -35c-24 0 -43 14 -50 35c-7 -21 -27 -35 -50 -35c-24 0 -43 14 -50 35c-7 -21 -27 -35 -50 -35
c-24 0 -43 14 -50 35c-5 -16 -18 -28 -34 -33c21 -7 37 -27 37 -50c0 -30 -24 -52 -53 -52c-30 0 -52 22 -52 52c0 23 14 43 35 50c-21 7 -35 26 -35 50c0 23 14 43 35 50c-21 7 -35 26 -35 50c0 29 22 53 52 53c29 0 53 -24 53 -53c0 -24 -16 -43 -37 -50
c16 -5 29 -18 34 -34c7 21 26 37 50 37c23 0 43 -16 50 -37c7 21 26 37 50 37c23 0 43 -16 50 -37c7 21 26 37 50 37c23 0 43 -16 50 -37c5 16 17 29 33 34c-21 7 -35 26 -35 50zM85 37c0 29 22 53 52 53c23 0 43 -16 50 -37c7 21 26 37 50 37c23 0 43 -16 50 -37
c7 21 26 37 50 37c23 0 43 -16 50 -37c7 21 26 37 50 37c29 0 53 -24 53 -53c0 -30 -24 -52 -53 -52c-24 0 -43 14 -50 35c-7 -21 -27 -35 -50 -35c-24 0 -43 14 -50 35c-7 -21 -27 -35 -50 -35c-24 0 -43 14 -50 35c-7 -21 -27 -35 -50 -35c-30 0 -52 22 -52 52zM85 437
c0 29 22 53 52 53c23 0 43 -16 50 -37c7 21 26 37 50 37c23 0 43 -16 50 -37c7 21 26 37 50 37c29 0 53 -24 53 -53c0 -30 -24 -52 -53 -52c-24 0 -43 14 -50 35c-7 -21 -27 -35 -50 -35c-24 0 -43 14 -50 35c-7 -21 -27 -35 -50 -35c-30 0 -52 22 -52 52zM185 637
c0 29 22 53 52 53c23 0 43 -16 50 -37c7 21 26 37 50 37c29 0 53 -24 53 -53c0 -30 -24 -52 -53 -52c-24 0 -43 14 -50 35c-7 -21 -27 -35 -50 -35c-30 0 -52 22 -52 52zM85 737c0 29 22 53 52 53c29 0 53 -24 53 -53c0 -30 -24 -52 -53 -52c-30 0 -52 22 -52 52z" />
    <glyph glyph-name="divide" unicode="&#xf7;" 
d="M-15 237c0 29 22 53 52 53c23 0 43 -16 50 -37c7 21 26 37 50 37c23 0 43 -16 50 -37c7 21 26 37 50 37c23 0 43 -16 50 -37c7 21 26 37 50 37c23 0 43 -16 50 -37c7 21 26 37 50 37c29 0 53 -24 53 -53c0 -30 -24 -52 -53 -52c-24 0 -43 14 -50 35
c-7 -21 -27 -35 -50 -35c-24 0 -43 14 -50 35c-7 -21 -27 -35 -50 -35c-24 0 -43 14 -50 35c-7 -21 -27 -35 -50 -35c-24 0 -43 14 -50 35c-7 -21 -27 -35 -50 -35c-30 0 -52 22 -52 52zM185 37c0 29 22 53 52 53c29 0 53 -24 53 -53c0 -30 -24 -52 -53 -52
c-30 0 -52 22 -52 52zM185 437c0 29 22 53 52 53c29 0 53 -24 53 -53c0 -30 -24 -52 -53 -52c-30 0 -52 22 -52 52z" />
    <glyph glyph-name="ugrave" unicode="&#xf9;" 
d="M385 437c0 29 22 53 52 53c29 0 53 -24 53 -53c0 -24 -16 -43 -37 -50c21 -7 37 -27 37 -50c0 -24 -16 -43 -37 -50c21 -7 37 -27 37 -50c0 -24 -16 -43 -37 -50c21 -7 37 -27 37 -50c0 -24 -16 -43 -37 -50c21 -7 37 -27 37 -50c0 -30 -24 -52 -53 -52
c-30 0 -52 22 -52 52c0 23 14 43 35 50c-16 5 -28 17 -33 33c-7 -21 -27 -35 -50 -35c-30 0 -52 22 -52 52c0 29 22 53 52 53c23 0 43 -16 50 -37c5 16 17 29 33 34c-21 7 -35 26 -35 50c0 23 14 43 35 50c-21 7 -35 26 -35 50c0 23 14 43 35 50c-21 7 -35 26 -35 50z
M-15 437c0 29 22 53 52 53c29 0 53 -24 53 -53c0 -24 -16 -43 -37 -50c21 -7 37 -27 37 -50c0 -24 -16 -43 -37 -50c21 -7 37 -27 37 -50c0 -24 -16 -43 -37 -50c21 -7 37 -27 37 -50c0 -30 -24 -52 -53 -52c-30 0 -52 22 -52 52c0 23 14 43 35 50c-21 7 -35 26 -35 50
c0 23 14 43 35 50c-21 7 -35 26 -35 50c0 23 14 43 35 50c-21 7 -35 26 -35 50zM85 37c0 29 22 53 52 53c23 0 43 -16 50 -37c7 21 26 37 50 37c29 0 53 -24 53 -53c0 -30 -24 -52 -53 -52c-24 0 -43 14 -50 35c-7 -21 -27 -35 -50 -35c-30 0 -52 22 -52 52zM185 637
c0 29 22 53 52 53c23 0 43 -16 50 -37c7 21 26 37 50 37c29 0 53 -24 53 -53c0 -30 -24 -52 -53 -52c-24 0 -43 14 -50 35c-7 -21 -27 -35 -50 -35c-30 0 -52 22 -52 52zM85 737c0 29 22 53 52 53c29 0 53 -24 53 -53c0 -30 -24 -52 -53 -52c-30 0 -52 22 -52 52z" />
    <glyph glyph-name="udieresis" unicode="&#xfc;" 
d="M385 437c0 29 22 53 52 53c29 0 53 -24 53 -53c0 -24 -16 -43 -37 -50c21 -7 37 -27 37 -50c0 -24 -16 -43 -37 -50c21 -7 37 -27 37 -50c0 -24 -16 -43 -37 -50c21 -7 37 -27 37 -50c0 -24 -16 -43 -37 -50c21 -7 37 -27 37 -50c0 -30 -24 -52 -53 -52
c-30 0 -52 22 -52 52c0 23 14 43 35 50c-16 5 -28 17 -33 33c-7 -21 -27 -35 -50 -35c-30 0 -52 22 -52 52c0 29 22 53 52 53c23 0 43 -16 50 -37c5 16 17 29 33 34c-21 7 -35 26 -35 50c0 23 14 43 35 50c-21 7 -35 26 -35 50c0 23 14 43 35 50c-21 7 -35 26 -35 50z
M-15 437c0 29 22 53 52 53c29 0 53 -24 53 -53c0 -24 -16 -43 -37 -50c21 -7 37 -27 37 -50c0 -24 -16 -43 -37 -50c21 -7 37 -27 37 -50c0 -24 -16 -43 -37 -50c21 -7 37 -27 37 -50c0 -30 -24 -52 -53 -52c-30 0 -52 22 -52 52c0 23 14 43 35 50c-21 7 -35 26 -35 50
c0 23 14 43 35 50c-21 7 -35 26 -35 50c0 23 14 43 35 50c-21 7 -35 26 -35 50zM85 37c0 29 22 53 52 53c23 0 43 -16 50 -37c7 21 26 37 50 37c29 0 53 -24 53 -53c0 -30 -24 -52 -53 -52c-24 0 -43 14 -50 35c-7 -21 -27 -35 -50 -35c-30 0 -52 22 -52 52zM-15 737
c0 29 22 53 52 53c29 0 53 -24 53 -53c0 -24 -16 -43 -37 -50c21 -7 37 -27 37 -50c0 -30 -24 -52 -53 -52c-30 0 -52 22 -52 52c0 23 14 43 35 50c-21 7 -35 26 -35 50zM385 737c0 29 22 53 52 53c29 0 53 -24 53 -53c0 -24 -16 -43 -37 -50c21 -7 37 -27 37 -50
c0 -30 -24 -52 -53 -52c-30 0 -52 22 -52 52c0 23 14 43 35 50c-21 7 -35 26 -35 50z" />
    <glyph glyph-name="ccedilla" unicode="&#xe7;" 
d="M185 -63c0 23 14 44 35 51c-16 5 -28 16 -33 32c-7 -21 -27 -35 -50 -35c-30 0 -52 22 -52 52c0 29 22 53 52 53c23 0 43 -16 50 -37c7 21 26 37 50 37c23 0 43 -16 50 -37c7 21 26 37 50 37c29 0 53 -24 53 -53c0 -30 -24 -52 -53 -52c-24 0 -43 14 -50 35
c-6 -16 -18 -27 -34 -32c21 -7 37 -28 37 -51c0 -30 -24 -52 -53 -52c-30 0 -52 22 -52 52zM85 437c0 29 22 53 52 53c23 0 43 -16 50 -37c7 21 26 37 50 37c23 0 43 -16 50 -37c7 21 26 37 50 37c29 0 53 -24 53 -53c0 -30 -24 -52 -53 -52c-24 0 -43 14 -50 35
c-7 -21 -27 -35 -50 -35c-24 0 -43 14 -50 35c-7 -21 -27 -35 -50 -35c-30 0 -52 22 -52 52zM-15 337c0 29 22 53 52 53c29 0 53 -24 53 -53c0 -24 -16 -43 -37 -50c21 -7 37 -27 37 -50c0 -24 -16 -43 -37 -50c21 -7 37 -27 37 -50c0 -30 -24 -52 -53 -52
c-30 0 -52 22 -52 52c0 23 14 43 35 50c-21 7 -35 26 -35 50c0 23 14 43 35 50c-21 7 -35 26 -35 50zM385 337c0 29 22 53 52 53c29 0 53 -24 53 -53c0 -30 -24 -52 -53 -52c-30 0 -52 22 -52 52zM85 -163c0 29 22 53 52 53c29 0 53 -24 53 -53c0 -30 -24 -52 -53 -52
c-30 0 -52 22 -52 52zM385 137c0 29 22 53 52 53c29 0 53 -24 53 -53c0 -30 -24 -52 -53 -52c-30 0 -52 22 -52 52z" />
    <glyph glyph-name="acircumflex" unicode="&#xe2;" 
d="M385 337c0 29 22 53 52 53c29 0 53 -24 53 -53c0 -24 -16 -43 -37 -50c21 -7 37 -27 37 -50c0 -24 -16 -43 -37 -50c21 -7 37 -27 37 -50c0 -24 -16 -43 -37 -50c21 -7 37 -27 37 -50c0 -30 -24 -52 -53 -52c-24 0 -43 14 -50 35c-7 -21 -27 -35 -50 -35
c-24 0 -43 14 -50 35c-7 -21 -27 -35 -50 -35c-24 0 -43 14 -50 35c-7 -21 -27 -35 -50 -35c-30 0 -52 22 -52 52c0 29 22 53 52 53c23 0 43 -16 50 -37c7 21 26 37 50 37c23 0 43 -16 50 -37c7 21 26 37 50 37c23 0 43 -16 50 -37c5 16 17 29 33 34c-21 7 -35 26 -35 50
c0 23 14 43 35 50c-16 5 -28 17 -33 33c-7 -21 -27 -35 -50 -35c-24 0 -43 14 -50 35c-7 -21 -27 -35 -50 -35c-24 0 -43 14 -50 35c-7 -21 -27 -35 -50 -35c-30 0 -52 22 -52 52c0 29 22 53 52 53c23 0 43 -16 50 -37c7 21 26 37 50 37c23 0 43 -16 50 -37
c7 21 26 37 50 37c23 0 43 -16 50 -37c5 16 17 29 33 34c-21 7 -35 26 -35 50zM85 437c0 29 22 53 52 53c23 0 43 -16 50 -37c7 21 26 37 50 37c23 0 43 -16 50 -37c7 21 26 37 50 37c29 0 53 -24 53 -53c0 -30 -24 -52 -53 -52c-24 0 -43 14 -50 35c-7 -21 -27 -35 -50 -35
c-24 0 -43 14 -50 35c-7 -21 -27 -35 -50 -35c-30 0 -52 22 -52 52zM-15 137c0 29 22 53 52 53c29 0 53 -24 53 -53c0 -30 -24 -52 -53 -52c-30 0 -52 22 -52 52z" />
    <glyph glyph-name="circumflex" unicode="&#x2c6;" 
d="M85 637c0 29 22 53 52 53c29 0 53 -24 53 -53c0 -30 -24 -52 -53 -52c-30 0 -52 22 -52 52zM285 637c0 29 22 53 52 53c29 0 53 -24 53 -53c0 -30 -24 -52 -53 -52c-30 0 -52 22 -52 52zM185 737c0 29 22 53 52 53c29 0 53 -24 53 -53c0 -30 -24 -52 -53 -52
c-30 0 -52 22 -52 52z" />
    <glyph glyph-name="acute" unicode="&#xb4;" 
d="M85 637c0 29 22 53 52 53c23 0 43 -16 50 -37c7 21 26 37 50 37c29 0 53 -24 53 -53c0 -30 -24 -52 -53 -52c-24 0 -43 14 -50 35c-7 -21 -27 -35 -50 -35c-30 0 -52 22 -52 52zM285 737c0 29 22 53 52 53c29 0 53 -24 53 -53c0 -30 -24 -52 -53 -52c-30 0 -52 22 -52 52
z" />
    <glyph glyph-name="Eacute" unicode="&#xc9;" 
d="M-15 637c0 29 22 53 52 53c23 0 43 -16 50 -37c7 21 26 37 50 37c23 0 43 -16 50 -37c7 21 26 37 50 37c23 0 43 -16 50 -37c7 21 26 37 50 37c23 0 43 -16 50 -37c7 21 26 37 50 37c29 0 53 -24 53 -53c0 -30 -24 -52 -53 -52c-24 0 -43 14 -50 35
c-7 -21 -27 -35 -50 -35c-24 0 -43 14 -50 35c-7 -21 -27 -35 -50 -35c-24 0 -43 14 -50 35c-7 -21 -27 -35 -50 -35c-24 0 -43 14 -50 35c-5 -16 -18 -28 -34 -33c21 -7 37 -27 37 -50c0 -24 -16 -43 -37 -50c21 -7 37 -27 37 -50c0 -24 -16 -43 -37 -50
c16 -5 29 -18 34 -34c7 21 26 37 50 37c23 0 43 -16 50 -37c7 21 26 37 50 37c23 0 43 -16 50 -37c7 21 26 37 50 37c29 0 53 -24 53 -53c0 -30 -24 -52 -53 -52c-24 0 -43 14 -50 35c-7 -21 -27 -35 -50 -35c-24 0 -43 14 -50 35c-7 -21 -27 -35 -50 -35
c-24 0 -43 14 -50 35c-5 -16 -18 -28 -34 -33c21 -7 37 -27 37 -50c0 -24 -16 -43 -37 -50c21 -7 37 -27 37 -50c0 -24 -16 -43 -37 -50c16 -5 29 -18 34 -34c7 21 26 37 50 37c23 0 43 -16 50 -37c7 21 26 37 50 37c23 0 43 -16 50 -37c7 21 26 37 50 37
c23 0 43 -16 50 -37c7 21 26 37 50 37c29 0 53 -24 53 -53c0 -30 -24 -52 -53 -52c-24 0 -43 14 -50 35c-7 -21 -27 -35 -50 -35c-24 0 -43 14 -50 35c-7 -21 -27 -35 -50 -35c-24 0 -43 14 -50 35c-7 -21 -27 -35 -50 -35c-24 0 -43 14 -50 35c-7 -21 -27 -35 -50 -35
c-30 0 -52 22 -52 52c0 23 14 43 35 50c-21 7 -35 26 -35 50c0 23 14 43 35 50c-21 7 -35 26 -35 50c0 23 14 43 35 50c-21 7 -35 26 -35 50c0 23 14 43 35 50c-21 7 -35 26 -35 50c0 23 14 43 35 50c-21 7 -35 26 -35 50c0 23 14 43 35 50c-21 7 -35 26 -35 50zM85 862
c0 29 22 53 52 53c23 0 43 -16 50 -37c7 21 26 37 50 37c29 0 53 -24 53 -53c0 -30 -24 -52 -53 -52c-24 0 -43 14 -50 35c-7 -21 -27 -35 -50 -35c-30 0 -52 22 -52 52zM285 962c0 29 22 53 52 53c29 0 53 -24 53 -53c0 -30 -24 -52 -53 -52c-30 0 -52 22 -52 52z" />
    <glyph glyph-name="Udieresis" unicode="&#xdc;" 
d="M-15 637c0 29 22 53 52 53c29 0 53 -24 53 -53c0 -24 -16 -43 -37 -50c21 -7 37 -27 37 -50c0 -24 -16 -43 -37 -50c21 -7 37 -27 37 -50c0 -24 -16 -43 -37 -50c21 -7 37 -27 37 -50c0 -24 -16 -43 -37 -50c21 -7 37 -27 37 -50c0 -24 -16 -43 -37 -50
c21 -7 37 -27 37 -50c0 -30 -24 -52 -53 -52c-30 0 -52 22 -52 52c0 23 14 43 35 50c-21 7 -35 26 -35 50c0 23 14 43 35 50c-21 7 -35 26 -35 50c0 23 14 43 35 50c-21 7 -35 26 -35 50c0 23 14 43 35 50c-21 7 -35 26 -35 50c0 23 14 43 35 50c-21 7 -35 26 -35 50z
M385 637c0 29 22 53 52 53c29 0 53 -24 53 -53c0 -24 -16 -43 -37 -50c21 -7 37 -27 37 -50c0 -24 -16 -43 -37 -50c21 -7 37 -27 37 -50c0 -24 -16 -43 -37 -50c21 -7 37 -27 37 -50c0 -24 -16 -43 -37 -50c21 -7 37 -27 37 -50c0 -24 -16 -43 -37 -50c21 -7 37 -27 37 -50
c0 -30 -24 -52 -53 -52c-30 0 -52 22 -52 52c0 23 14 43 35 50c-21 7 -35 26 -35 50c0 23 14 43 35 50c-21 7 -35 26 -35 50c0 23 14 43 35 50c-21 7 -35 26 -35 50c0 23 14 43 35 50c-21 7 -35 26 -35 50c0 23 14 43 35 50c-21 7 -35 26 -35 50zM85 37c0 29 22 53 52 53
c23 0 43 -16 50 -37c7 21 26 37 50 37c23 0 43 -16 50 -37c7 21 26 37 50 37c29 0 53 -24 53 -53c0 -30 -24 -52 -53 -52c-24 0 -43 14 -50 35c-7 -21 -27 -35 -50 -35c-24 0 -43 14 -50 35c-7 -21 -27 -35 -50 -35c-30 0 -52 22 -52 52zM-15 962c0 29 22 53 52 53
c29 0 53 -24 53 -53c0 -24 -16 -43 -37 -50c21 -7 37 -27 37 -50c0 -30 -24 -52 -53 -52c-30 0 -52 22 -52 52c0 23 14 43 35 50c-21 7 -35 26 -35 50zM385 962c0 29 22 53 52 53c29 0 53 -24 53 -53c0 -24 -16 -43 -37 -50c21 -7 37 -27 37 -50c0 -30 -24 -52 -53 -52
c-30 0 -52 22 -52 52c0 23 14 43 35 50c-21 7 -35 26 -35 50z" />
    <glyph glyph-name="onesuperior" unicode="&#xb9;" 
d="M-15 637c0 29 22 53 52 53c23 0 43 -16 50 -37c7 21 26 37 50 37c29 0 53 -24 53 -53c0 -24 -16 -43 -37 -50c21 -7 37 -27 37 -50c0 -24 -16 -43 -37 -50c21 -7 37 -27 37 -50c0 -24 -16 -43 -37 -50c16 -5 29 -18 34 -34c7 21 26 37 50 37c29 0 53 -24 53 -53
c0 -30 -24 -52 -53 -52c-24 0 -43 14 -50 35c-7 -21 -27 -35 -50 -35c-24 0 -43 14 -50 35c-7 -21 -27 -35 -50 -35c-30 0 -52 22 -52 52c0 29 22 53 52 53c23 0 43 -16 50 -37c5 16 17 29 33 34c-21 7 -35 26 -35 50c0 23 14 43 35 50c-21 7 -35 26 -35 50
c0 23 14 43 35 50c-16 5 -28 17 -33 33c-7 -21 -27 -35 -50 -35c-30 0 -52 22 -52 52z" />
    <glyph glyph-name="eacute" unicode="&#xe9;" 
d="M385 337c0 29 22 53 52 53c29 0 53 -24 53 -53c0 -24 -16 -43 -37 -50c21 -7 37 -27 37 -50c0 -30 -24 -52 -53 -52c-24 0 -43 14 -50 35c-7 -21 -27 -35 -50 -35c-24 0 -43 14 -50 35c-7 -21 -27 -35 -50 -35c-24 0 -43 14 -50 35c-7 -21 -27 -35 -50 -35
c-24 0 -43 14 -50 35c-5 -16 -18 -28 -34 -33c21 -7 37 -27 37 -50c0 -30 -24 -52 -53 -52c-30 0 -52 22 -52 52c0 23 14 43 35 50c-21 7 -35 26 -35 50c0 23 14 43 35 50c-21 7 -35 26 -35 50c0 29 22 53 52 53c29 0 53 -24 53 -53c0 -24 -16 -43 -37 -50
c16 -5 29 -18 34 -34c7 21 26 37 50 37c23 0 43 -16 50 -37c7 21 26 37 50 37c23 0 43 -16 50 -37c7 21 26 37 50 37c23 0 43 -16 50 -37c5 16 17 29 33 34c-21 7 -35 26 -35 50zM85 37c0 29 22 53 52 53c23 0 43 -16 50 -37c7 21 26 37 50 37c23 0 43 -16 50 -37
c7 21 26 37 50 37c23 0 43 -16 50 -37c7 21 26 37 50 37c29 0 53 -24 53 -53c0 -30 -24 -52 -53 -52c-24 0 -43 14 -50 35c-7 -21 -27 -35 -50 -35c-24 0 -43 14 -50 35c-7 -21 -27 -35 -50 -35c-24 0 -43 14 -50 35c-7 -21 -27 -35 -50 -35c-30 0 -52 22 -52 52zM85 437
c0 29 22 53 52 53c23 0 43 -16 50 -37c7 21 26 37 50 37c23 0 43 -16 50 -37c7 21 26 37 50 37c29 0 53 -24 53 -53c0 -30 -24 -52 -53 -52c-24 0 -43 14 -50 35c-7 -21 -27 -35 -50 -35c-24 0 -43 14 -50 35c-7 -21 -27 -35 -50 -35c-30 0 -52 22 -52 52zM85 637
c0 29 22 53 52 53c23 0 43 -16 50 -37c7 21 26 37 50 37c29 0 53 -24 53 -53c0 -30 -24 -52 -53 -52c-24 0 -43 14 -50 35c-7 -21 -27 -35 -50 -35c-30 0 -52 22 -52 52zM285 737c0 29 22 53 52 53c29 0 53 -24 53 -53c0 -30 -24 -52 -53 -52c-30 0 -52 22 -52 52z" />
    <glyph glyph-name="ecircumflex" unicode="&#xea;" 
d="M385 337c0 29 22 53 52 53c29 0 53 -24 53 -53c0 -24 -16 -43 -37 -50c21 -7 37 -27 37 -50c0 -30 -24 -52 -53 -52c-24 0 -43 14 -50 35c-7 -21 -27 -35 -50 -35c-24 0 -43 14 -50 35c-7 -21 -27 -35 -50 -35c-24 0 -43 14 -50 35c-7 -21 -27 -35 -50 -35
c-24 0 -43 14 -50 35c-5 -16 -18 -28 -34 -33c21 -7 37 -27 37 -50c0 -30 -24 -52 -53 -52c-30 0 -52 22 -52 52c0 23 14 43 35 50c-21 7 -35 26 -35 50c0 23 14 43 35 50c-21 7 -35 26 -35 50c0 29 22 53 52 53c29 0 53 -24 53 -53c0 -24 -16 -43 -37 -50
c16 -5 29 -18 34 -34c7 21 26 37 50 37c23 0 43 -16 50 -37c7 21 26 37 50 37c23 0 43 -16 50 -37c7 21 26 37 50 37c23 0 43 -16 50 -37c5 16 17 29 33 34c-21 7 -35 26 -35 50zM85 37c0 29 22 53 52 53c23 0 43 -16 50 -37c7 21 26 37 50 37c23 0 43 -16 50 -37
c7 21 26 37 50 37c23 0 43 -16 50 -37c7 21 26 37 50 37c29 0 53 -24 53 -53c0 -30 -24 -52 -53 -52c-24 0 -43 14 -50 35c-7 -21 -27 -35 -50 -35c-24 0 -43 14 -50 35c-7 -21 -27 -35 -50 -35c-24 0 -43 14 -50 35c-7 -21 -27 -35 -50 -35c-30 0 -52 22 -52 52zM85 437
c0 29 22 53 52 53c23 0 43 -16 50 -37c7 21 26 37 50 37c23 0 43 -16 50 -37c7 21 26 37 50 37c29 0 53 -24 53 -53c0 -30 -24 -52 -53 -52c-24 0 -43 14 -50 35c-7 -21 -27 -35 -50 -35c-24 0 -43 14 -50 35c-7 -21 -27 -35 -50 -35c-30 0 -52 22 -52 52zM85 637
c0 29 22 53 52 53c29 0 53 -24 53 -53c0 -30 -24 -52 -53 -52c-30 0 -52 22 -52 52zM285 637c0 29 22 53 52 53c29 0 53 -24 53 -53c0 -30 -24 -52 -53 -52c-30 0 -52 22 -52 52zM185 737c0 29 22 53 52 53c29 0 53 -24 53 -53c0 -30 -24 -52 -53 -52c-30 0 -52 22 -52 52z
" />
    <glyph glyph-name="icircumflex" unicode="&#xee;" 
d="M-15 437c0 29 22 53 52 53c23 0 43 -16 50 -37c7 21 26 37 50 37c23 0 43 -16 50 -37c7 21 26 37 50 37c29 0 53 -24 53 -53c0 -24 -16 -43 -37 -50c21 -7 37 -27 37 -50c0 -24 -16 -43 -37 -50c21 -7 37 -27 37 -50c0 -24 -16 -43 -37 -50c21 -7 37 -27 37 -50
c0 -24 -16 -43 -37 -50c16 -5 29 -18 34 -34c7 21 26 37 50 37c23 0 43 -16 50 -37c7 21 26 37 50 37c29 0 53 -24 53 -53c0 -30 -24 -52 -53 -52c-24 0 -43 14 -50 35c-7 -21 -27 -35 -50 -35c-24 0 -43 14 -50 35c-7 -21 -27 -35 -50 -35c-24 0 -43 14 -50 35
c-7 -21 -27 -35 -50 -35c-24 0 -43 14 -50 35c-7 -21 -27 -35 -50 -35c-30 0 -52 22 -52 52c0 29 22 53 52 53c23 0 43 -16 50 -37c7 21 26 37 50 37c23 0 43 -16 50 -37c5 16 17 29 33 34c-21 7 -35 26 -35 50c0 23 14 43 35 50c-21 7 -35 26 -35 50c0 23 14 43 35 50
c-21 7 -35 26 -35 50c0 23 14 43 35 50c-16 5 -28 17 -33 33c-7 -21 -27 -35 -50 -35c-24 0 -43 14 -50 35c-7 -21 -27 -35 -50 -35c-30 0 -52 22 -52 52zM85 637c0 29 22 53 52 53c29 0 53 -24 53 -53c0 -30 -24 -52 -53 -52c-30 0 -52 22 -52 52zM285 637
c0 29 22 53 52 53c29 0 53 -24 53 -53c0 -30 -24 -52 -53 -52c-30 0 -52 22 -52 52zM185 737c0 29 22 53 52 53c29 0 53 -24 53 -53c0 -30 -24 -52 -53 -52c-30 0 -52 22 -52 52z" />
    <glyph glyph-name="ocircumflex" unicode="&#xf4;" 
d="M85 37c0 29 22 53 52 53c23 0 43 -16 50 -37c7 21 26 37 50 37c23 0 43 -16 50 -37c7 21 26 37 50 37c29 0 53 -24 53 -53c0 -30 -24 -52 -53 -52c-24 0 -43 14 -50 35c-7 -21 -27 -35 -50 -35c-24 0 -43 14 -50 35c-7 -21 -27 -35 -50 -35c-30 0 -52 22 -52 52zM-15 337
c0 29 22 53 52 53c29 0 53 -24 53 -53c0 -24 -16 -43 -37 -50c21 -7 37 -27 37 -50c0 -24 -16 -43 -37 -50c21 -7 37 -27 37 -50c0 -30 -24 -52 -53 -52c-30 0 -52 22 -52 52c0 23 14 43 35 50c-21 7 -35 26 -35 50c0 23 14 43 35 50c-21 7 -35 26 -35 50zM85 437
c0 29 22 53 52 53c23 0 43 -16 50 -37c7 21 26 37 50 37c23 0 43 -16 50 -37c7 21 26 37 50 37c29 0 53 -24 53 -53c0 -30 -24 -52 -53 -52c-24 0 -43 14 -50 35c-7 -21 -27 -35 -50 -35c-24 0 -43 14 -50 35c-7 -21 -27 -35 -50 -35c-30 0 -52 22 -52 52zM385 337
c0 29 22 53 52 53c29 0 53 -24 53 -53c0 -24 -16 -43 -37 -50c21 -7 37 -27 37 -50c0 -24 -16 -43 -37 -50c21 -7 37 -27 37 -50c0 -30 -24 -52 -53 -52c-30 0 -52 22 -52 52c0 23 14 43 35 50c-21 7 -35 26 -35 50c0 23 14 43 35 50c-21 7 -35 26 -35 50zM85 637
c0 29 22 53 52 53c29 0 53 -24 53 -53c0 -30 -24 -52 -53 -52c-30 0 -52 22 -52 52zM285 637c0 29 22 53 52 53c29 0 53 -24 53 -53c0 -30 -24 -52 -53 -52c-30 0 -52 22 -52 52zM185 737c0 29 22 53 52 53c29 0 53 -24 53 -53c0 -30 -24 -52 -53 -52c-30 0 -52 22 -52 52z
" />
    <glyph glyph-name="ucircumflex" unicode="&#xfb;" 
d="M385 437c0 29 22 53 52 53c29 0 53 -24 53 -53c0 -24 -16 -43 -37 -50c21 -7 37 -27 37 -50c0 -24 -16 -43 -37 -50c21 -7 37 -27 37 -50c0 -24 -16 -43 -37 -50c21 -7 37 -27 37 -50c0 -24 -16 -43 -37 -50c21 -7 37 -27 37 -50c0 -30 -24 -52 -53 -52
c-30 0 -52 22 -52 52c0 23 14 43 35 50c-16 5 -28 17 -33 33c-7 -21 -27 -35 -50 -35c-30 0 -52 22 -52 52c0 29 22 53 52 53c23 0 43 -16 50 -37c5 16 17 29 33 34c-21 7 -35 26 -35 50c0 23 14 43 35 50c-21 7 -35 26 -35 50c0 23 14 43 35 50c-21 7 -35 26 -35 50z
M-15 437c0 29 22 53 52 53c29 0 53 -24 53 -53c0 -24 -16 -43 -37 -50c21 -7 37 -27 37 -50c0 -24 -16 -43 -37 -50c21 -7 37 -27 37 -50c0 -24 -16 -43 -37 -50c21 -7 37 -27 37 -50c0 -30 -24 -52 -53 -52c-30 0 -52 22 -52 52c0 23 14 43 35 50c-21 7 -35 26 -35 50
c0 23 14 43 35 50c-21 7 -35 26 -35 50c0 23 14 43 35 50c-21 7 -35 26 -35 50zM85 37c0 29 22 53 52 53c23 0 43 -16 50 -37c7 21 26 37 50 37c29 0 53 -24 53 -53c0 -30 -24 -52 -53 -52c-24 0 -43 14 -50 35c-7 -21 -27 -35 -50 -35c-30 0 -52 22 -52 52zM85 637
c0 29 22 53 52 53c29 0 53 -24 53 -53c0 -30 -24 -52 -53 -52c-30 0 -52 22 -52 52zM285 637c0 29 22 53 52 53c29 0 53 -24 53 -53c0 -30 -24 -52 -53 -52c-30 0 -52 22 -52 52zM185 737c0 29 22 53 52 53c29 0 53 -24 53 -53c0 -30 -24 -52 -53 -52c-30 0 -52 22 -52 52z
" />
    <glyph glyph-name="germandbls" unicode="&#xdf;" 
d="M-15 437c0 29 22 53 52 53c29 0 53 -24 53 -53c0 -24 -16 -43 -37 -50c21 -7 37 -27 37 -50c0 -24 -16 -43 -37 -50c21 -7 37 -27 37 -50c0 -24 -16 -43 -37 -50c21 -7 37 -27 37 -50c0 -24 -16 -43 -37 -50c21 -7 37 -27 37 -50c0 -30 -24 -52 -53 -52
c-30 0 -52 22 -52 52c0 23 14 43 35 50c-21 7 -35 26 -35 50c0 23 14 43 35 50c-21 7 -35 26 -35 50c0 23 14 43 35 50c-21 7 -35 26 -35 50c0 23 14 43 35 50c-21 7 -35 26 -35 50zM285 537c0 29 22 53 52 53c29 0 53 -24 53 -53c0 -24 -16 -43 -37 -50
c21 -7 37 -27 37 -50c0 -30 -24 -52 -53 -52c-30 0 -52 22 -52 52c0 23 14 43 35 50c-21 7 -35 26 -35 50zM185 37c0 29 22 53 52 53c23 0 43 -16 50 -37c7 21 26 37 50 37c29 0 53 -24 53 -53c0 -30 -24 -52 -53 -52c-24 0 -43 14 -50 35c-7 -21 -27 -35 -50 -35
c-30 0 -52 22 -52 52zM185 337c0 29 22 53 52 53c29 0 53 -24 53 -53c0 -30 -24 -52 -53 -52c-30 0 -52 22 -52 52zM285 237c0 29 22 53 52 53c29 0 53 -24 53 -53c0 -30 -24 -52 -53 -52c-30 0 -52 22 -52 52zM85 537c0 29 22 53 52 53c29 0 53 -24 53 -53
c0 -30 -24 -52 -53 -52c-30 0 -52 22 -52 52zM385 137c0 29 22 53 52 53c29 0 53 -24 53 -53c0 -30 -24 -52 -53 -52c-30 0 -52 22 -52 52zM185 637c0 29 22 53 52 53c29 0 53 -24 53 -53c0 -30 -24 -52 -53 -52c-30 0 -52 22 -52 52z" />
    <glyph glyph-name="scaron" unicode="&#x161;" 
d="M-15 37c0 29 22 53 52 53c23 0 43 -16 50 -37c7 21 26 37 50 37c23 0 43 -16 50 -37c7 21 26 37 50 37c23 0 43 -16 50 -37c7 21 26 37 50 37c29 0 53 -24 53 -53c0 -30 -24 -52 -53 -52c-24 0 -43 14 -50 35c-7 -21 -27 -35 -50 -35c-24 0 -43 14 -50 35
c-7 -21 -27 -35 -50 -35c-24 0 -43 14 -50 35c-7 -21 -27 -35 -50 -35c-30 0 -52 22 -52 52zM85 437c0 29 22 53 52 53c23 0 43 -16 50 -37c7 21 26 37 50 37c23 0 43 -16 50 -37c7 21 26 37 50 37c23 0 43 -16 50 -37c7 21 26 37 50 37c29 0 53 -24 53 -53
c0 -30 -24 -52 -53 -52c-24 0 -43 14 -50 35c-7 -21 -27 -35 -50 -35c-24 0 -43 14 -50 35c-7 -21 -27 -35 -50 -35c-24 0 -43 14 -50 35c-7 -21 -27 -35 -50 -35c-30 0 -52 22 -52 52zM85 237c0 29 22 53 52 53c23 0 43 -16 50 -37c7 21 26 37 50 37c23 0 43 -16 50 -37
c7 21 26 37 50 37c29 0 53 -24 53 -53c0 -30 -24 -52 -53 -52c-24 0 -43 14 -50 35c-7 -21 -27 -35 -50 -35c-24 0 -43 14 -50 35c-7 -21 -27 -35 -50 -35c-30 0 -52 22 -52 52zM-15 337c0 29 22 53 52 53c29 0 53 -24 53 -53c0 -30 -24 -52 -53 -52c-30 0 -52 22 -52 52z
M385 137c0 29 22 53 52 53c29 0 53 -24 53 -53c0 -30 -24 -52 -53 -52c-30 0 -52 22 -52 52zM85 737c0 29 22 53 52 53c29 0 53 -24 53 -53c0 -30 -24 -52 -53 -52c-30 0 -52 22 -52 52zM285 737c0 29 22 53 52 53c29 0 53 -24 53 -53c0 -30 -24 -52 -53 -52
c-30 0 -52 22 -52 52zM185 637c0 29 22 53 52 53c29 0 53 -24 53 -53c0 -30 -24 -52 -53 -52c-30 0 -52 22 -52 52z" />
    <glyph glyph-name="Dcaron" unicode="&#x10e;" 
d="M-15 637c0 29 22 53 52 53c23 0 43 -16 50 -37c7 21 26 37 50 37c23 0 43 -16 50 -37c7 21 26 37 50 37c23 0 43 -16 50 -37c7 21 26 37 50 37c29 0 53 -24 53 -53c0 -30 -24 -52 -53 -52c-24 0 -43 14 -50 35c-7 -21 -27 -35 -50 -35c-24 0 -43 14 -50 35
c-7 -21 -27 -35 -50 -35c-24 0 -43 14 -50 35c-5 -16 -18 -28 -34 -33c21 -7 37 -27 37 -50c0 -24 -16 -43 -37 -50c21 -7 37 -27 37 -50c0 -24 -16 -43 -37 -50c21 -7 37 -27 37 -50c0 -24 -16 -43 -37 -50c21 -7 37 -27 37 -50c0 -24 -16 -43 -37 -50c21 -7 37 -27 37 -50
c0 -24 -16 -43 -37 -50c16 -5 29 -18 34 -34c7 21 26 37 50 37c23 0 43 -16 50 -37c7 21 26 37 50 37c23 0 43 -16 50 -37c7 21 26 37 50 37c29 0 53 -24 53 -53c0 -30 -24 -52 -53 -52c-24 0 -43 14 -50 35c-7 -21 -27 -35 -50 -35c-24 0 -43 14 -50 35
c-7 -21 -27 -35 -50 -35c-24 0 -43 14 -50 35c-7 -21 -27 -35 -50 -35c-30 0 -52 22 -52 52c0 23 14 43 35 50c-21 7 -35 26 -35 50c0 23 14 43 35 50c-21 7 -35 26 -35 50c0 23 14 43 35 50c-21 7 -35 26 -35 50c0 23 14 43 35 50c-21 7 -35 26 -35 50c0 23 14 43 35 50
c-21 7 -35 26 -35 50c0 23 14 43 35 50c-21 7 -35 26 -35 50zM385 537c0 29 22 53 52 53c29 0 53 -24 53 -53c0 -24 -16 -43 -37 -50c21 -7 37 -27 37 -50c0 -24 -16 -43 -37 -50c21 -7 37 -27 37 -50c0 -24 -16 -43 -37 -50c21 -7 37 -27 37 -50c0 -24 -16 -43 -37 -50
c21 -7 37 -27 37 -50c0 -30 -24 -52 -53 -52c-30 0 -52 22 -52 52c0 23 14 43 35 50c-21 7 -35 26 -35 50c0 23 14 43 35 50c-21 7 -35 26 -35 50c0 23 14 43 35 50c-21 7 -35 26 -35 50c0 23 14 43 35 50c-21 7 -35 26 -35 50zM85 962c0 29 22 53 52 53c29 0 53 -24 53 -53
c0 -30 -24 -52 -53 -52c-30 0 -52 22 -52 52zM285 962c0 29 22 53 52 53c29 0 53 -24 53 -53c0 -30 -24 -52 -53 -52c-30 0 -52 22 -52 52zM185 862c0 29 22 53 52 53c29 0 53 -24 53 -53c0 -30 -24 -52 -53 -52c-30 0 -52 22 -52 52z" />
    <glyph glyph-name="Scaron" unicode="&#x160;" 
d="M-15 37c0 29 22 53 52 53c23 0 43 -16 50 -37c7 21 26 37 50 37c23 0 43 -16 50 -37c7 21 26 37 50 37c23 0 43 -16 50 -37c7 21 26 37 50 37c29 0 53 -24 53 -53c0 -30 -24 -52 -53 -52c-24 0 -43 14 -50 35c-7 -21 -27 -35 -50 -35c-24 0 -43 14 -50 35
c-7 -21 -27 -35 -50 -35c-24 0 -43 14 -50 35c-7 -21 -27 -35 -50 -35c-30 0 -52 22 -52 52zM85 637c0 29 22 53 52 53c23 0 43 -16 50 -37c7 21 26 37 50 37c23 0 43 -16 50 -37c7 21 26 37 50 37c23 0 43 -16 50 -37c7 21 26 37 50 37c29 0 53 -24 53 -53
c0 -30 -24 -52 -53 -52c-24 0 -43 14 -50 35c-7 -21 -27 -35 -50 -35c-24 0 -43 14 -50 35c-7 -21 -27 -35 -50 -35c-24 0 -43 14 -50 35c-7 -21 -27 -35 -50 -35c-30 0 -52 22 -52 52zM85 337c0 29 22 53 52 53c23 0 43 -16 50 -37c7 21 26 37 50 37c23 0 43 -16 50 -37
c7 21 26 37 50 37c29 0 53 -24 53 -53c0 -30 -24 -52 -53 -52c-24 0 -43 14 -50 35c-7 -21 -27 -35 -50 -35c-24 0 -43 14 -50 35c-7 -21 -27 -35 -50 -35c-30 0 -52 22 -52 52zM385 237c0 29 22 53 52 53c29 0 53 -24 53 -53c0 -24 -16 -43 -37 -50c21 -7 37 -27 37 -50
c0 -30 -24 -52 -53 -52c-30 0 -52 22 -52 52c0 23 14 43 35 50c-21 7 -35 26 -35 50zM-15 537c0 29 22 53 52 53c29 0 53 -24 53 -53c0 -24 -16 -43 -37 -50c21 -7 37 -27 37 -50c0 -30 -24 -52 -53 -52c-30 0 -52 22 -52 52c0 23 14 43 35 50c-21 7 -35 26 -35 50zM85 962
c0 29 22 53 52 53c29 0 53 -24 53 -53c0 -30 -24 -52 -53 -52c-30 0 -52 22 -52 52zM285 962c0 29 22 53 52 53c29 0 53 -24 53 -53c0 -30 -24 -52 -53 -52c-30 0 -52 22 -52 52zM185 862c0 29 22 53 52 53c29 0 53 -24 53 -53c0 -30 -24 -52 -53 -52c-30 0 -52 22 -52 52z
" />
    <glyph glyph-name="Zcaron" unicode="&#x17d;" 
d="M-15 137c0 29 22 53 52 53c29 0 53 -24 53 -53c0 -24 -16 -43 -37 -50c16 -5 29 -18 34 -34c7 21 26 37 50 37c23 0 43 -16 50 -37c7 21 26 37 50 37c23 0 43 -16 50 -37c7 21 26 37 50 37c23 0 43 -16 50 -37c7 21 26 37 50 37c29 0 53 -24 53 -53
c0 -30 -24 -52 -53 -52c-24 0 -43 14 -50 35c-7 -21 -27 -35 -50 -35c-24 0 -43 14 -50 35c-7 -21 -27 -35 -50 -35c-24 0 -43 14 -50 35c-7 -21 -27 -35 -50 -35c-24 0 -43 14 -50 35c-7 -21 -27 -35 -50 -35c-30 0 -52 22 -52 52c0 23 14 43 35 50c-21 7 -35 26 -35 50z
M-15 637c0 29 22 53 52 53c23 0 43 -16 50 -37c7 21 26 37 50 37c23 0 43 -16 50 -37c7 21 26 37 50 37c23 0 43 -16 50 -37c7 21 26 37 50 37c23 0 43 -16 50 -37c7 21 26 37 50 37c29 0 53 -24 53 -53c0 -24 -16 -43 -37 -50c21 -7 37 -27 37 -50c0 -30 -24 -52 -53 -52
c-30 0 -52 22 -52 52c0 23 14 43 35 50c-16 5 -28 17 -33 33c-7 -21 -27 -35 -50 -35c-24 0 -43 14 -50 35c-7 -21 -27 -35 -50 -35c-24 0 -43 14 -50 35c-7 -21 -27 -35 -50 -35c-24 0 -43 14 -50 35c-7 -21 -27 -35 -50 -35c-30 0 -52 22 -52 52zM285 437
c0 29 22 53 52 53c29 0 53 -24 53 -53c0 -30 -24 -52 -53 -52c-30 0 -52 22 -52 52zM185 337c0 29 22 53 52 53c29 0 53 -24 53 -53c0 -30 -24 -52 -53 -52c-30 0 -52 22 -52 52zM85 237c0 29 22 53 52 53c29 0 53 -24 53 -53c0 -30 -24 -52 -53 -52c-30 0 -52 22 -52 52z
M85 962c0 29 22 53 52 53c29 0 53 -24 53 -53c0 -30 -24 -52 -53 -52c-30 0 -52 22 -52 52zM285 962c0 29 22 53 52 53c29 0 53 -24 53 -53c0 -30 -24 -52 -53 -52c-30 0 -52 22 -52 52zM185 862c0 29 22 53 52 53c29 0 53 -24 53 -53c0 -30 -24 -52 -53 -52
c-30 0 -52 22 -52 52z" />
    <glyph glyph-name="zcaron" unicode="&#x17e;" 
d="M85 137c0 29 22 53 52 53c29 0 53 -24 53 -53c0 -24 -16 -43 -37 -50c16 -5 29 -18 34 -34c7 21 26 37 50 37c23 0 43 -16 50 -37c7 21 26 37 50 37c23 0 43 -16 50 -37c7 21 26 37 50 37c29 0 53 -24 53 -53c0 -30 -24 -52 -53 -52c-24 0 -43 14 -50 35
c-7 -21 -27 -35 -50 -35c-24 0 -43 14 -50 35c-7 -21 -27 -35 -50 -35c-24 0 -43 14 -50 35c-7 -21 -27 -35 -50 -35c-24 0 -43 14 -50 35c-7 -21 -27 -35 -50 -35c-30 0 -52 22 -52 52c0 29 22 53 52 53c23 0 43 -16 50 -37c5 16 17 29 33 34c-21 7 -35 26 -35 50zM-15 437
c0 29 22 53 52 53c23 0 43 -16 50 -37c7 21 26 37 50 37c23 0 43 -16 50 -37c7 21 26 37 50 37c23 0 43 -16 50 -37c7 21 26 37 50 37c23 0 43 -16 50 -37c7 21 26 37 50 37c29 0 53 -24 53 -53c0 -30 -24 -52 -53 -52c-24 0 -43 14 -50 35c-5 -16 -18 -28 -34 -33
c21 -7 37 -27 37 -50c0 -30 -24 -52 -53 -52c-30 0 -52 22 -52 52c0 23 14 43 35 50c-16 5 -28 17 -33 33c-7 -21 -27 -35 -50 -35c-24 0 -43 14 -50 35c-7 -21 -27 -35 -50 -35c-24 0 -43 14 -50 35c-7 -21 -27 -35 -50 -35c-30 0 -52 22 -52 52zM185 237c0 29 22 53 52 53
c29 0 53 -24 53 -53c0 -30 -24 -52 -53 -52c-30 0 -52 22 -52 52zM85 737c0 29 22 53 52 53c29 0 53 -24 53 -53c0 -30 -24 -52 -53 -52c-30 0 -52 22 -52 52zM285 737c0 29 22 53 52 53c29 0 53 -24 53 -53c0 -30 -24 -52 -53 -52c-30 0 -52 22 -52 52zM185 637
c0 29 22 53 52 53c29 0 53 -24 53 -53c0 -30 -24 -52 -53 -52c-30 0 -52 22 -52 52z" />
    <glyph glyph-name="macron" unicode="&#xaf;" 
d="M85 637c0 29 22 53 52 53c23 0 43 -16 50 -37c7 21 26 37 50 37c23 0 43 -16 50 -37c7 21 26 37 50 37c29 0 53 -24 53 -53c0 -30 -24 -52 -53 -52c-24 0 -43 14 -50 35c-7 -21 -27 -35 -50 -35c-24 0 -43 14 -50 35c-7 -21 -27 -35 -50 -35c-30 0 -52 22 -52 52z" />
    <glyph glyph-name="aacute" unicode="&#xe1;" 
d="M385 337c0 29 22 53 52 53c29 0 53 -24 53 -53c0 -24 -16 -43 -37 -50c21 -7 37 -27 37 -50c0 -24 -16 -43 -37 -50c21 -7 37 -27 37 -50c0 -24 -16 -43 -37 -50c21 -7 37 -27 37 -50c0 -30 -24 -52 -53 -52c-24 0 -43 14 -50 35c-7 -21 -27 -35 -50 -35
c-24 0 -43 14 -50 35c-7 -21 -27 -35 -50 -35c-24 0 -43 14 -50 35c-7 -21 -27 -35 -50 -35c-30 0 -52 22 -52 52c0 29 22 53 52 53c23 0 43 -16 50 -37c7 21 26 37 50 37c23 0 43 -16 50 -37c7 21 26 37 50 37c23 0 43 -16 50 -37c5 16 17 29 33 34c-21 7 -35 26 -35 50
c0 23 14 43 35 50c-16 5 -28 17 -33 33c-7 -21 -27 -35 -50 -35c-24 0 -43 14 -50 35c-7 -21 -27 -35 -50 -35c-24 0 -43 14 -50 35c-7 -21 -27 -35 -50 -35c-30 0 -52 22 -52 52c0 29 22 53 52 53c23 0 43 -16 50 -37c7 21 26 37 50 37c23 0 43 -16 50 -37
c7 21 26 37 50 37c23 0 43 -16 50 -37c5 16 17 29 33 34c-21 7 -35 26 -35 50zM85 437c0 29 22 53 52 53c23 0 43 -16 50 -37c7 21 26 37 50 37c23 0 43 -16 50 -37c7 21 26 37 50 37c29 0 53 -24 53 -53c0 -30 -24 -52 -53 -52c-24 0 -43 14 -50 35c-7 -21 -27 -35 -50 -35
c-24 0 -43 14 -50 35c-7 -21 -27 -35 -50 -35c-30 0 -52 22 -52 52zM-15 137c0 29 22 53 52 53c29 0 53 -24 53 -53c0 -30 -24 -52 -53 -52c-30 0 -52 22 -52 52zM85 637c0 29 22 53 52 53c23 0 43 -16 50 -37c7 21 26 37 50 37c29 0 53 -24 53 -53c0 -30 -24 -52 -53 -52
c-24 0 -43 14 -50 35c-7 -21 -27 -35 -50 -35c-30 0 -52 22 -52 52zM285 737c0 29 22 53 52 53c29 0 53 -24 53 -53c0 -30 -24 -52 -53 -52c-30 0 -52 22 -52 52z" />
    <glyph glyph-name="iacute" unicode="&#xed;" 
d="M-15 437c0 29 22 53 52 53c23 0 43 -16 50 -37c7 21 26 37 50 37c23 0 43 -16 50 -37c7 21 26 37 50 37c29 0 53 -24 53 -53c0 -24 -16 -43 -37 -50c21 -7 37 -27 37 -50c0 -24 -16 -43 -37 -50c21 -7 37 -27 37 -50c0 -24 -16 -43 -37 -50c21 -7 37 -27 37 -50
c0 -24 -16 -43 -37 -50c16 -5 29 -18 34 -34c7 21 26 37 50 37c23 0 43 -16 50 -37c7 21 26 37 50 37c29 0 53 -24 53 -53c0 -30 -24 -52 -53 -52c-24 0 -43 14 -50 35c-7 -21 -27 -35 -50 -35c-24 0 -43 14 -50 35c-7 -21 -27 -35 -50 -35c-24 0 -43 14 -50 35
c-7 -21 -27 -35 -50 -35c-24 0 -43 14 -50 35c-7 -21 -27 -35 -50 -35c-30 0 -52 22 -52 52c0 29 22 53 52 53c23 0 43 -16 50 -37c7 21 26 37 50 37c23 0 43 -16 50 -37c5 16 17 29 33 34c-21 7 -35 26 -35 50c0 23 14 43 35 50c-21 7 -35 26 -35 50c0 23 14 43 35 50
c-21 7 -35 26 -35 50c0 23 14 43 35 50c-16 5 -28 17 -33 33c-7 -21 -27 -35 -50 -35c-24 0 -43 14 -50 35c-7 -21 -27 -35 -50 -35c-30 0 -52 22 -52 52zM85 637c0 29 22 53 52 53c23 0 43 -16 50 -37c7 21 26 37 50 37c29 0 53 -24 53 -53c0 -30 -24 -52 -53 -52
c-24 0 -43 14 -50 35c-7 -21 -27 -35 -50 -35c-30 0 -52 22 -52 52zM285 737c0 29 22 53 52 53c29 0 53 -24 53 -53c0 -30 -24 -52 -53 -52c-30 0 -52 22 -52 52z" />
    <glyph glyph-name="oacute" unicode="&#xf3;" 
d="M85 37c0 29 22 53 52 53c23 0 43 -16 50 -37c7 21 26 37 50 37c23 0 43 -16 50 -37c7 21 26 37 50 37c29 0 53 -24 53 -53c0 -30 -24 -52 -53 -52c-24 0 -43 14 -50 35c-7 -21 -27 -35 -50 -35c-24 0 -43 14 -50 35c-7 -21 -27 -35 -50 -35c-30 0 -52 22 -52 52zM-15 337
c0 29 22 53 52 53c29 0 53 -24 53 -53c0 -24 -16 -43 -37 -50c21 -7 37 -27 37 -50c0 -24 -16 -43 -37 -50c21 -7 37 -27 37 -50c0 -30 -24 -52 -53 -52c-30 0 -52 22 -52 52c0 23 14 43 35 50c-21 7 -35 26 -35 50c0 23 14 43 35 50c-21 7 -35 26 -35 50zM85 437
c0 29 22 53 52 53c23 0 43 -16 50 -37c7 21 26 37 50 37c23 0 43 -16 50 -37c7 21 26 37 50 37c29 0 53 -24 53 -53c0 -30 -24 -52 -53 -52c-24 0 -43 14 -50 35c-7 -21 -27 -35 -50 -35c-24 0 -43 14 -50 35c-7 -21 -27 -35 -50 -35c-30 0 -52 22 -52 52zM385 337
c0 29 22 53 52 53c29 0 53 -24 53 -53c0 -24 -16 -43 -37 -50c21 -7 37 -27 37 -50c0 -24 -16 -43 -37 -50c21 -7 37 -27 37 -50c0 -30 -24 -52 -53 -52c-30 0 -52 22 -52 52c0 23 14 43 35 50c-21 7 -35 26 -35 50c0 23 14 43 35 50c-21 7 -35 26 -35 50zM85 637
c0 29 22 53 52 53c23 0 43 -16 50 -37c7 21 26 37 50 37c29 0 53 -24 53 -53c0 -30 -24 -52 -53 -52c-24 0 -43 14 -50 35c-7 -21 -27 -35 -50 -35c-30 0 -52 22 -52 52zM285 737c0 29 22 53 52 53c29 0 53 -24 53 -53c0 -30 -24 -52 -53 -52c-30 0 -52 22 -52 52z" />
    <glyph glyph-name="uacute" unicode="&#xfa;" 
d="M385 437c0 29 22 53 52 53c29 0 53 -24 53 -53c0 -24 -16 -43 -37 -50c21 -7 37 -27 37 -50c0 -24 -16 -43 -37 -50c21 -7 37 -27 37 -50c0 -24 -16 -43 -37 -50c21 -7 37 -27 37 -50c0 -24 -16 -43 -37 -50c21 -7 37 -27 37 -50c0 -30 -24 -52 -53 -52
c-30 0 -52 22 -52 52c0 23 14 43 35 50c-16 5 -28 17 -33 33c-7 -21 -27 -35 -50 -35c-30 0 -52 22 -52 52c0 29 22 53 52 53c23 0 43 -16 50 -37c5 16 17 29 33 34c-21 7 -35 26 -35 50c0 23 14 43 35 50c-21 7 -35 26 -35 50c0 23 14 43 35 50c-21 7 -35 26 -35 50z
M-15 437c0 29 22 53 52 53c29 0 53 -24 53 -53c0 -24 -16 -43 -37 -50c21 -7 37 -27 37 -50c0 -24 -16 -43 -37 -50c21 -7 37 -27 37 -50c0 -24 -16 -43 -37 -50c21 -7 37 -27 37 -50c0 -30 -24 -52 -53 -52c-30 0 -52 22 -52 52c0 23 14 43 35 50c-21 7 -35 26 -35 50
c0 23 14 43 35 50c-21 7 -35 26 -35 50c0 23 14 43 35 50c-21 7 -35 26 -35 50zM85 37c0 29 22 53 52 53c23 0 43 -16 50 -37c7 21 26 37 50 37c29 0 53 -24 53 -53c0 -30 -24 -52 -53 -52c-24 0 -43 14 -50 35c-7 -21 -27 -35 -50 -35c-30 0 -52 22 -52 52zM85 637
c0 29 22 53 52 53c23 0 43 -16 50 -37c7 21 26 37 50 37c29 0 53 -24 53 -53c0 -30 -24 -52 -53 -52c-24 0 -43 14 -50 35c-7 -21 -27 -35 -50 -35c-30 0 -52 22 -52 52zM285 737c0 29 22 53 52 53c29 0 53 -24 53 -53c0 -30 -24 -52 -53 -52c-30 0 -52 22 -52 52z" />
    <glyph glyph-name="Aacute" unicode="&#xc1;" 
d="M385 137c0 23 14 43 35 50c-16 5 -28 17 -33 33c-7 -21 -27 -35 -50 -35c-24 0 -43 14 -50 35c-7 -21 -27 -35 -50 -35c-24 0 -43 14 -50 35c-7 -21 -27 -35 -50 -35c-24 0 -43 14 -50 35c-5 -16 -18 -28 -34 -33c21 -7 37 -27 37 -50c0 -24 -16 -43 -37 -50
c21 -7 37 -27 37 -50c0 -30 -24 -52 -53 -52c-30 0 -52 22 -52 52c0 23 14 43 35 50c-21 7 -35 26 -35 50c0 23 14 43 35 50c-21 7 -35 26 -35 50c0 23 14 43 35 50c-21 7 -35 26 -35 50c0 23 14 43 35 50c-21 7 -35 26 -35 50c0 23 14 43 35 50c-21 7 -35 26 -35 50
c0 29 22 53 52 53c29 0 53 -24 53 -53c0 -24 -16 -43 -37 -50c21 -7 37 -27 37 -50c0 -24 -16 -43 -37 -50c21 -7 37 -27 37 -50c0 -24 -16 -43 -37 -50c16 -5 29 -18 34 -34c7 21 26 37 50 37c23 0 43 -16 50 -37c7 21 26 37 50 37c23 0 43 -16 50 -37c7 21 26 37 50 37
c23 0 43 -16 50 -37c5 16 17 29 33 34c-21 7 -35 26 -35 50c0 23 14 43 35 50c-21 7 -35 26 -35 50c0 23 14 43 35 50c-21 7 -35 26 -35 50c0 29 22 53 52 53c29 0 53 -24 53 -53c0 -24 -16 -43 -37 -50c21 -7 37 -27 37 -50c0 -24 -16 -43 -37 -50c21 -7 37 -27 37 -50
c0 -24 -16 -43 -37 -50c21 -7 37 -27 37 -50c0 -24 -16 -43 -37 -50c21 -7 37 -27 37 -50c0 -24 -16 -43 -37 -50c21 -7 37 -27 37 -50c0 -30 -24 -52 -53 -52c-30 0 -52 22 -52 52c0 23 14 43 35 50c-21 7 -35 26 -35 50zM85 637c0 29 22 53 52 53c23 0 43 -16 50 -37
c7 21 26 37 50 37c23 0 43 -16 50 -37c7 21 26 37 50 37c29 0 53 -24 53 -53c0 -30 -24 -52 -53 -52c-24 0 -43 14 -50 35c-7 -21 -27 -35 -50 -35c-24 0 -43 14 -50 35c-7 -21 -27 -35 -50 -35c-30 0 -52 22 -52 52zM85 862c0 29 22 53 52 53c23 0 43 -16 50 -37
c7 21 26 37 50 37c29 0 53 -24 53 -53c0 -30 -24 -52 -53 -52c-24 0 -43 14 -50 35c-7 -21 -27 -35 -50 -35c-30 0 -52 22 -52 52zM285 962c0 29 22 53 52 53c29 0 53 -24 53 -53c0 -30 -24 -52 -53 -52c-30 0 -52 22 -52 52z" />
    <glyph glyph-name="Iacute" unicode="&#xcd;" 
d="M-15 637c0 29 22 53 52 53c23 0 43 -16 50 -37c7 21 26 37 50 37c23 0 43 -16 50 -37c7 21 26 37 50 37c23 0 43 -16 50 -37c7 21 26 37 50 37c23 0 43 -16 50 -37c7 21 26 37 50 37c29 0 53 -24 53 -53c0 -30 -24 -52 -53 -52c-24 0 -43 14 -50 35
c-7 -21 -27 -35 -50 -35c-24 0 -43 14 -50 35c-5 -16 -18 -28 -34 -33c21 -7 37 -27 37 -50c0 -24 -16 -43 -37 -50c21 -7 37 -27 37 -50c0 -24 -16 -43 -37 -50c21 -7 37 -27 37 -50c0 -24 -16 -43 -37 -50c21 -7 37 -27 37 -50c0 -24 -16 -43 -37 -50c21 -7 37 -27 37 -50
c0 -24 -16 -43 -37 -50c16 -5 29 -18 34 -34c7 21 26 37 50 37c23 0 43 -16 50 -37c7 21 26 37 50 37c29 0 53 -24 53 -53c0 -30 -24 -52 -53 -52c-24 0 -43 14 -50 35c-7 -21 -27 -35 -50 -35c-24 0 -43 14 -50 35c-7 -21 -27 -35 -50 -35c-24 0 -43 14 -50 35
c-7 -21 -27 -35 -50 -35c-24 0 -43 14 -50 35c-7 -21 -27 -35 -50 -35c-30 0 -52 22 -52 52c0 29 22 53 52 53c23 0 43 -16 50 -37c7 21 26 37 50 37c23 0 43 -16 50 -37c5 16 17 29 33 34c-21 7 -35 26 -35 50c0 23 14 43 35 50c-21 7 -35 26 -35 50c0 23 14 43 35 50
c-21 7 -35 26 -35 50c0 23 14 43 35 50c-21 7 -35 26 -35 50c0 23 14 43 35 50c-21 7 -35 26 -35 50c0 23 14 43 35 50c-16 5 -28 17 -33 33c-7 -21 -27 -35 -50 -35c-24 0 -43 14 -50 35c-7 -21 -27 -35 -50 -35c-30 0 -52 22 -52 52zM85 862c0 29 22 53 52 53
c23 0 43 -16 50 -37c7 21 26 37 50 37c29 0 53 -24 53 -53c0 -30 -24 -52 -53 -52c-24 0 -43 14 -50 35c-7 -21 -27 -35 -50 -35c-30 0 -52 22 -52 52zM285 962c0 29 22 53 52 53c29 0 53 -24 53 -53c0 -30 -24 -52 -53 -52c-30 0 -52 22 -52 52z" />
    <glyph glyph-name="Oacute" unicode="&#xd3;" 
d="M85 862c0 29 22 53 52 53c23 0 43 -16 50 -37c7 21 26 37 50 37c29 0 53 -24 53 -53c0 -30 -24 -52 -53 -52c-24 0 -43 14 -50 35c-7 -21 -27 -35 -50 -35c-30 0 -52 22 -52 52zM285 962c0 29 22 53 52 53c29 0 53 -24 53 -53c0 -30 -24 -52 -53 -52c-30 0 -52 22 -52 52
zM-15 537c0 29 22 53 52 53c29 0 53 -24 53 -53c0 -24 -16 -43 -37 -50c21 -7 37 -27 37 -50c0 -24 -16 -43 -37 -50c21 -7 37 -27 37 -50c0 -24 -16 -43 -37 -50c21 -7 37 -27 37 -50c0 -24 -16 -43 -37 -50c21 -7 37 -27 37 -50c0 -30 -24 -52 -53 -52
c-30 0 -52 22 -52 52c0 23 14 43 35 50c-21 7 -35 26 -35 50c0 23 14 43 35 50c-21 7 -35 26 -35 50c0 23 14 43 35 50c-21 7 -35 26 -35 50c0 23 14 43 35 50c-21 7 -35 26 -35 50zM385 537c0 29 22 53 52 53c29 0 53 -24 53 -53c0 -24 -16 -43 -37 -50
c21 -7 37 -27 37 -50c0 -24 -16 -43 -37 -50c21 -7 37 -27 37 -50c0 -24 -16 -43 -37 -50c21 -7 37 -27 37 -50c0 -24 -16 -43 -37 -50c21 -7 37 -27 37 -50c0 -30 -24 -52 -53 -52c-30 0 -52 22 -52 52c0 23 14 43 35 50c-21 7 -35 26 -35 50c0 23 14 43 35 50
c-21 7 -35 26 -35 50c0 23 14 43 35 50c-21 7 -35 26 -35 50c0 23 14 43 35 50c-21 7 -35 26 -35 50zM85 37c0 29 22 53 52 53c23 0 43 -16 50 -37c7 21 26 37 50 37c23 0 43 -16 50 -37c7 21 26 37 50 37c29 0 53 -24 53 -53c0 -30 -24 -52 -53 -52c-24 0 -43 14 -50 35
c-7 -21 -27 -35 -50 -35c-24 0 -43 14 -50 35c-7 -21 -27 -35 -50 -35c-30 0 -52 22 -52 52zM85 637c0 29 22 53 52 53c23 0 43 -16 50 -37c7 21 26 37 50 37c23 0 43 -16 50 -37c7 21 26 37 50 37c29 0 53 -24 53 -53c0 -30 -24 -52 -53 -52c-24 0 -43 14 -50 35
c-7 -21 -27 -35 -50 -35c-24 0 -43 14 -50 35c-7 -21 -27 -35 -50 -35c-30 0 -52 22 -52 52z" />
    <glyph glyph-name="Ocircumflex" unicode="&#xd4;" 
d="M85 862c0 29 22 53 52 53c29 0 53 -24 53 -53c0 -30 -24 -52 -53 -52c-30 0 -52 22 -52 52zM285 862c0 29 22 53 52 53c29 0 53 -24 53 -53c0 -30 -24 -52 -53 -52c-30 0 -52 22 -52 52zM185 962c0 29 22 53 52 53c29 0 53 -24 53 -53c0 -30 -24 -52 -53 -52
c-30 0 -52 22 -52 52zM-15 537c0 29 22 53 52 53c29 0 53 -24 53 -53c0 -24 -16 -43 -37 -50c21 -7 37 -27 37 -50c0 -24 -16 -43 -37 -50c21 -7 37 -27 37 -50c0 -24 -16 -43 -37 -50c21 -7 37 -27 37 -50c0 -24 -16 -43 -37 -50c21 -7 37 -27 37 -50
c0 -30 -24 -52 -53 -52c-30 0 -52 22 -52 52c0 23 14 43 35 50c-21 7 -35 26 -35 50c0 23 14 43 35 50c-21 7 -35 26 -35 50c0 23 14 43 35 50c-21 7 -35 26 -35 50c0 23 14 43 35 50c-21 7 -35 26 -35 50zM385 537c0 29 22 53 52 53c29 0 53 -24 53 -53
c0 -24 -16 -43 -37 -50c21 -7 37 -27 37 -50c0 -24 -16 -43 -37 -50c21 -7 37 -27 37 -50c0 -24 -16 -43 -37 -50c21 -7 37 -27 37 -50c0 -24 -16 -43 -37 -50c21 -7 37 -27 37 -50c0 -30 -24 -52 -53 -52c-30 0 -52 22 -52 52c0 23 14 43 35 50c-21 7 -35 26 -35 50
c0 23 14 43 35 50c-21 7 -35 26 -35 50c0 23 14 43 35 50c-21 7 -35 26 -35 50c0 23 14 43 35 50c-21 7 -35 26 -35 50zM85 37c0 29 22 53 52 53c23 0 43 -16 50 -37c7 21 26 37 50 37c23 0 43 -16 50 -37c7 21 26 37 50 37c29 0 53 -24 53 -53c0 -30 -24 -52 -53 -52
c-24 0 -43 14 -50 35c-7 -21 -27 -35 -50 -35c-24 0 -43 14 -50 35c-7 -21 -27 -35 -50 -35c-30 0 -52 22 -52 52zM85 637c0 29 22 53 52 53c23 0 43 -16 50 -37c7 21 26 37 50 37c23 0 43 -16 50 -37c7 21 26 37 50 37c29 0 53 -24 53 -53c0 -30 -24 -52 -53 -52
c-24 0 -43 14 -50 35c-7 -21 -27 -35 -50 -35c-24 0 -43 14 -50 35c-7 -21 -27 -35 -50 -35c-30 0 -52 22 -52 52z" />
    <glyph glyph-name="Uacute" unicode="&#xda;" 
d="M-15 637c0 29 22 53 52 53c29 0 53 -24 53 -53c0 -24 -16 -43 -37 -50c21 -7 37 -27 37 -50c0 -24 -16 -43 -37 -50c21 -7 37 -27 37 -50c0 -24 -16 -43 -37 -50c21 -7 37 -27 37 -50c0 -24 -16 -43 -37 -50c21 -7 37 -27 37 -50c0 -24 -16 -43 -37 -50
c21 -7 37 -27 37 -50c0 -30 -24 -52 -53 -52c-30 0 -52 22 -52 52c0 23 14 43 35 50c-21 7 -35 26 -35 50c0 23 14 43 35 50c-21 7 -35 26 -35 50c0 23 14 43 35 50c-21 7 -35 26 -35 50c0 23 14 43 35 50c-21 7 -35 26 -35 50c0 23 14 43 35 50c-21 7 -35 26 -35 50z
M385 637c0 29 22 53 52 53c29 0 53 -24 53 -53c0 -24 -16 -43 -37 -50c21 -7 37 -27 37 -50c0 -24 -16 -43 -37 -50c21 -7 37 -27 37 -50c0 -24 -16 -43 -37 -50c21 -7 37 -27 37 -50c0 -24 -16 -43 -37 -50c21 -7 37 -27 37 -50c0 -24 -16 -43 -37 -50c21 -7 37 -27 37 -50
c0 -30 -24 -52 -53 -52c-30 0 -52 22 -52 52c0 23 14 43 35 50c-21 7 -35 26 -35 50c0 23 14 43 35 50c-21 7 -35 26 -35 50c0 23 14 43 35 50c-21 7 -35 26 -35 50c0 23 14 43 35 50c-21 7 -35 26 -35 50c0 23 14 43 35 50c-21 7 -35 26 -35 50zM85 37c0 29 22 53 52 53
c23 0 43 -16 50 -37c7 21 26 37 50 37c23 0 43 -16 50 -37c7 21 26 37 50 37c29 0 53 -24 53 -53c0 -30 -24 -52 -53 -52c-24 0 -43 14 -50 35c-7 -21 -27 -35 -50 -35c-24 0 -43 14 -50 35c-7 -21 -27 -35 -50 -35c-30 0 -52 22 -52 52zM85 862c0 29 22 53 52 53
c23 0 43 -16 50 -37c7 21 26 37 50 37c29 0 53 -24 53 -53c0 -30 -24 -52 -53 -52c-24 0 -43 14 -50 35c-7 -21 -27 -35 -50 -35c-30 0 -52 22 -52 52zM285 962c0 29 22 53 52 53c29 0 53 -24 53 -53c0 -30 -24 -52 -53 -52c-30 0 -52 22 -52 52z" />
    <glyph glyph-name="Yacute" unicode="&#xdd;" 
d="M185 237c0 29 22 53 52 53c29 0 53 -24 53 -53c0 -24 -16 -43 -37 -50c21 -7 37 -27 37 -50c0 -24 -16 -43 -37 -50c21 -7 37 -27 37 -50c0 -30 -24 -52 -53 -52c-30 0 -52 22 -52 52c0 23 14 43 35 50c-21 7 -35 26 -35 50c0 23 14 43 35 50c-21 7 -35 26 -35 50z
M385 637c0 29 22 53 52 53c29 0 53 -24 53 -53c0 -24 -16 -43 -37 -50c21 -7 37 -27 37 -50c0 -24 -16 -43 -37 -50c21 -7 37 -27 37 -50c0 -30 -24 -52 -53 -52c-30 0 -52 22 -52 52c0 23 14 43 35 50c-21 7 -35 26 -35 50c0 23 14 43 35 50c-21 7 -35 26 -35 50zM-15 637
c0 29 22 53 52 53c29 0 53 -24 53 -53c0 -24 -16 -43 -37 -50c21 -7 37 -27 37 -50c0 -24 -16 -43 -37 -50c21 -7 37 -27 37 -50c0 -30 -24 -52 -53 -52c-30 0 -52 22 -52 52c0 23 14 43 35 50c-21 7 -35 26 -35 50c0 23 14 43 35 50c-21 7 -35 26 -35 50zM85 337
c0 29 22 53 52 53c29 0 53 -24 53 -53c0 -30 -24 -52 -53 -52c-30 0 -52 22 -52 52zM285 337c0 29 22 53 52 53c29 0 53 -24 53 -53c0 -30 -24 -52 -53 -52c-30 0 -52 22 -52 52zM85 862c0 29 22 53 52 53c23 0 43 -16 50 -37c7 21 26 37 50 37c29 0 53 -24 53 -53
c0 -30 -24 -52 -53 -52c-24 0 -43 14 -50 35c-7 -21 -27 -35 -50 -35c-30 0 -52 22 -52 52zM285 962c0 29 22 53 52 53c29 0 53 -24 53 -53c0 -30 -24 -52 -53 -52c-30 0 -52 22 -52 52z" />
    <glyph glyph-name="yacute" unicode="&#xfd;" 
d="M185 -63c0 23 14 44 35 51c-21 6 -35 25 -35 49c0 29 22 53 52 53c29 0 53 -24 53 -53c0 -24 -16 -43 -37 -49c21 -7 37 -28 37 -51c0 -30 -24 -52 -53 -52c-30 0 -52 22 -52 52zM285 237c0 29 22 53 52 53c29 0 53 -24 53 -53c0 -24 -16 -43 -37 -50
c21 -7 37 -27 37 -50c0 -30 -24 -52 -53 -52c-30 0 -52 22 -52 52c0 23 14 43 35 50c-21 7 -35 26 -35 50zM385 437c0 29 22 53 52 53c29 0 53 -24 53 -53c0 -24 -16 -43 -37 -50c21 -7 37 -27 37 -50c0 -30 -24 -52 -53 -52c-30 0 -52 22 -52 52c0 23 14 43 35 50
c-21 7 -35 26 -35 50zM-15 -163c0 29 22 53 52 53c23 0 43 -15 50 -36c7 21 26 36 50 36c29 0 53 -24 53 -53c0 -30 -24 -52 -53 -52c-24 0 -43 14 -50 35c-7 -21 -27 -35 -50 -35c-30 0 -52 22 -52 52zM85 237c0 29 22 53 52 53c29 0 53 -24 53 -53c0 -24 -16 -43 -37 -50
c21 -7 37 -27 37 -50c0 -30 -24 -52 -53 -52c-30 0 -52 22 -52 52c0 23 14 43 35 50c-21 7 -35 26 -35 50zM-15 437c0 29 22 53 52 53c29 0 53 -24 53 -53c0 -24 -16 -43 -37 -50c21 -7 37 -27 37 -50c0 -30 -24 -52 -53 -52c-30 0 -52 22 -52 52c0 23 14 43 35 50
c-21 7 -35 26 -35 50zM85 637c0 29 22 53 52 53c23 0 43 -16 50 -37c7 21 26 37 50 37c29 0 53 -24 53 -53c0 -30 -24 -52 -53 -52c-24 0 -43 14 -50 35c-7 -21 -27 -35 -50 -35c-30 0 -52 22 -52 52zM285 737c0 29 22 53 52 53c29 0 53 -24 53 -53c0 -30 -24 -52 -53 -52
c-30 0 -52 22 -52 52z" />
    <glyph glyph-name="igrave" unicode="&#xec;" 
d="M-15 437c0 29 22 53 52 53c23 0 43 -16 50 -37c7 21 26 37 50 37c23 0 43 -16 50 -37c7 21 26 37 50 37c29 0 53 -24 53 -53c0 -24 -16 -43 -37 -50c21 -7 37 -27 37 -50c0 -24 -16 -43 -37 -50c21 -7 37 -27 37 -50c0 -24 -16 -43 -37 -50c21 -7 37 -27 37 -50
c0 -24 -16 -43 -37 -50c16 -5 29 -18 34 -34c7 21 26 37 50 37c23 0 43 -16 50 -37c7 21 26 37 50 37c29 0 53 -24 53 -53c0 -30 -24 -52 -53 -52c-24 0 -43 14 -50 35c-7 -21 -27 -35 -50 -35c-24 0 -43 14 -50 35c-7 -21 -27 -35 -50 -35c-24 0 -43 14 -50 35
c-7 -21 -27 -35 -50 -35c-24 0 -43 14 -50 35c-7 -21 -27 -35 -50 -35c-30 0 -52 22 -52 52c0 29 22 53 52 53c23 0 43 -16 50 -37c7 21 26 37 50 37c23 0 43 -16 50 -37c5 16 17 29 33 34c-21 7 -35 26 -35 50c0 23 14 43 35 50c-21 7 -35 26 -35 50c0 23 14 43 35 50
c-21 7 -35 26 -35 50c0 23 14 43 35 50c-16 5 -28 17 -33 33c-7 -21 -27 -35 -50 -35c-24 0 -43 14 -50 35c-7 -21 -27 -35 -50 -35c-30 0 -52 22 -52 52zM185 637c0 29 22 53 52 53c23 0 43 -16 50 -37c7 21 26 37 50 37c29 0 53 -24 53 -53c0 -30 -24 -52 -53 -52
c-24 0 -43 14 -50 35c-7 -21 -27 -35 -50 -35c-30 0 -52 22 -52 52zM85 737c0 29 22 53 52 53c29 0 53 -24 53 -53c0 -30 -24 -52 -53 -52c-30 0 -52 22 -52 52z" />
    <glyph glyph-name="Aring" unicode="&#xc5;" 
d="M385 137c0 23 14 43 35 50c-16 5 -28 17 -33 33c-7 -21 -27 -35 -50 -35c-24 0 -43 14 -50 35c-7 -21 -27 -35 -50 -35c-24 0 -43 14 -50 35c-7 -21 -27 -35 -50 -35c-24 0 -43 14 -50 35c-5 -16 -18 -28 -34 -33c21 -7 37 -27 37 -50c0 -24 -16 -43 -37 -50
c21 -7 37 -27 37 -50c0 -30 -24 -52 -53 -52c-30 0 -52 22 -52 52c0 23 14 43 35 50c-21 7 -35 26 -35 50c0 23 14 43 35 50c-21 7 -35 26 -35 50c0 23 14 43 35 50c-21 7 -35 26 -35 50c0 23 14 43 35 50c-21 7 -35 26 -35 50c0 23 14 43 35 50c-21 7 -35 26 -35 50
c0 29 22 53 52 53c29 0 53 -24 53 -53c0 -24 -16 -43 -37 -50c21 -7 37 -27 37 -50c0 -24 -16 -43 -37 -50c21 -7 37 -27 37 -50c0 -24 -16 -43 -37 -50c16 -5 29 -18 34 -34c7 21 26 37 50 37c23 0 43 -16 50 -37c7 21 26 37 50 37c23 0 43 -16 50 -37c7 21 26 37 50 37
c23 0 43 -16 50 -37c5 16 17 29 33 34c-21 7 -35 26 -35 50c0 23 14 43 35 50c-21 7 -35 26 -35 50c0 23 14 43 35 50c-21 7 -35 26 -35 50c0 29 22 53 52 53c29 0 53 -24 53 -53c0 -24 -16 -43 -37 -50c21 -7 37 -27 37 -50c0 -24 -16 -43 -37 -50c21 -7 37 -27 37 -50
c0 -24 -16 -43 -37 -50c21 -7 37 -27 37 -50c0 -24 -16 -43 -37 -50c21 -7 37 -27 37 -50c0 -24 -16 -43 -37 -50c21 -7 37 -27 37 -50c0 -30 -24 -52 -53 -52c-30 0 -52 22 -52 52c0 23 14 43 35 50c-21 7 -35 26 -35 50zM85 637c0 29 22 53 52 53c23 0 43 -16 50 -37
c7 21 26 37 50 37c23 0 43 -16 50 -37c7 21 26 37 50 37c29 0 53 -24 53 -53c0 -30 -24 -52 -53 -52c-24 0 -43 14 -50 35c-7 -21 -27 -35 -50 -35c-24 0 -43 14 -50 35c-7 -21 -27 -35 -50 -35c-30 0 -52 22 -52 52zM185 862c0 29 22 53 52 53c29 0 53 -24 53 -53
c0 -30 -24 -52 -53 -52c-30 0 -52 22 -52 52zM85 962c0 29 22 53 52 53c29 0 53 -24 53 -53c0 -30 -24 -52 -53 -52c-30 0 -52 22 -52 52zM285 962c0 29 22 53 52 53c29 0 53 -24 53 -53c0 -30 -24 -52 -53 -52c-30 0 -52 22 -52 52zM185 1062c0 29 22 53 52 53
c29 0 53 -24 53 -53c0 -30 -24 -52 -53 -52c-30 0 -52 22 -52 52z" />
    <glyph glyph-name="cedilla" unicode="&#xb8;" 
d="M185 -63c0 29 22 53 52 53c29 0 53 -24 53 -53c0 -30 -24 -52 -53 -52c-30 0 -52 22 -52 52zM85 -163c0 29 22 53 52 53c29 0 53 -24 53 -53c0 -30 -24 -52 -53 -52c-30 0 -52 22 -52 52z" />
    <glyph glyph-name="tilde" unicode="&#x2dc;" 
d="M185 637c0 29 22 53 52 53c23 0 43 -16 50 -37c7 21 26 37 50 37c29 0 53 -24 53 -53c0 -30 -24 -52 -53 -52c-24 0 -43 14 -50 35c-7 -21 -27 -35 -50 -35c-30 0 -52 22 -52 52zM-15 637c0 29 22 53 52 53c29 0 53 -24 53 -53c0 -30 -24 -52 -53 -52
c-30 0 -52 22 -52 52zM85 737c0 29 22 53 52 53c29 0 53 -24 53 -53c0 -30 -24 -52 -53 -52c-30 0 -52 22 -52 52zM385 737c0 29 22 53 52 53c29 0 53 -24 53 -53c0 -30 -24 -52 -53 -52c-30 0 -52 22 -52 52z" />
    <glyph glyph-name="otilde" unicode="&#xf5;" 
d="M85 37c0 29 22 53 52 53c23 0 43 -16 50 -37c7 21 26 37 50 37c23 0 43 -16 50 -37c7 21 26 37 50 37c29 0 53 -24 53 -53c0 -30 -24 -52 -53 -52c-24 0 -43 14 -50 35c-7 -21 -27 -35 -50 -35c-24 0 -43 14 -50 35c-7 -21 -27 -35 -50 -35c-30 0 -52 22 -52 52zM-15 337
c0 29 22 53 52 53c29 0 53 -24 53 -53c0 -24 -16 -43 -37 -50c21 -7 37 -27 37 -50c0 -24 -16 -43 -37 -50c21 -7 37 -27 37 -50c0 -30 -24 -52 -53 -52c-30 0 -52 22 -52 52c0 23 14 43 35 50c-21 7 -35 26 -35 50c0 23 14 43 35 50c-21 7 -35 26 -35 50zM85 437
c0 29 22 53 52 53c23 0 43 -16 50 -37c7 21 26 37 50 37c23 0 43 -16 50 -37c7 21 26 37 50 37c29 0 53 -24 53 -53c0 -30 -24 -52 -53 -52c-24 0 -43 14 -50 35c-7 -21 -27 -35 -50 -35c-24 0 -43 14 -50 35c-7 -21 -27 -35 -50 -35c-30 0 -52 22 -52 52zM385 337
c0 29 22 53 52 53c29 0 53 -24 53 -53c0 -24 -16 -43 -37 -50c21 -7 37 -27 37 -50c0 -24 -16 -43 -37 -50c21 -7 37 -27 37 -50c0 -30 -24 -52 -53 -52c-30 0 -52 22 -52 52c0 23 14 43 35 50c-21 7 -35 26 -35 50c0 23 14 43 35 50c-21 7 -35 26 -35 50zM185 637
c0 29 22 53 52 53c23 0 43 -16 50 -37c7 21 26 37 50 37c29 0 53 -24 53 -53c0 -30 -24 -52 -53 -52c-24 0 -43 14 -50 35c-7 -21 -27 -35 -50 -35c-30 0 -52 22 -52 52zM-15 637c0 29 22 53 52 53c29 0 53 -24 53 -53c0 -30 -24 -52 -53 -52c-30 0 -52 22 -52 52zM85 737
c0 29 22 53 52 53c29 0 53 -24 53 -53c0 -30 -24 -52 -53 -52c-30 0 -52 22 -52 52zM385 737c0 29 22 53 52 53c29 0 53 -24 53 -53c0 -30 -24 -52 -53 -52c-30 0 -52 22 -52 52z" />
    <glyph glyph-name="Otilde" unicode="&#xd5;" 
d="M185 862c0 29 22 53 52 53c23 0 43 -16 50 -37c7 21 26 37 50 37c29 0 53 -24 53 -53c0 -30 -24 -52 -53 -52c-24 0 -43 14 -50 35c-7 -21 -27 -35 -50 -35c-30 0 -52 22 -52 52zM-15 862c0 29 22 53 52 53c29 0 53 -24 53 -53c0 -30 -24 -52 -53 -52
c-30 0 -52 22 -52 52zM85 962c0 29 22 53 52 53c29 0 53 -24 53 -53c0 -30 -24 -52 -53 -52c-30 0 -52 22 -52 52zM385 962c0 29 22 53 52 53c29 0 53 -24 53 -53c0 -30 -24 -52 -53 -52c-30 0 -52 22 -52 52zM-15 537c0 29 22 53 52 53c29 0 53 -24 53 -53
c0 -24 -16 -43 -37 -50c21 -7 37 -27 37 -50c0 -24 -16 -43 -37 -50c21 -7 37 -27 37 -50c0 -24 -16 -43 -37 -50c21 -7 37 -27 37 -50c0 -24 -16 -43 -37 -50c21 -7 37 -27 37 -50c0 -30 -24 -52 -53 -52c-30 0 -52 22 -52 52c0 23 14 43 35 50c-21 7 -35 26 -35 50
c0 23 14 43 35 50c-21 7 -35 26 -35 50c0 23 14 43 35 50c-21 7 -35 26 -35 50c0 23 14 43 35 50c-21 7 -35 26 -35 50zM385 537c0 29 22 53 52 53c29 0 53 -24 53 -53c0 -24 -16 -43 -37 -50c21 -7 37 -27 37 -50c0 -24 -16 -43 -37 -50c21 -7 37 -27 37 -50
c0 -24 -16 -43 -37 -50c21 -7 37 -27 37 -50c0 -24 -16 -43 -37 -50c21 -7 37 -27 37 -50c0 -30 -24 -52 -53 -52c-30 0 -52 22 -52 52c0 23 14 43 35 50c-21 7 -35 26 -35 50c0 23 14 43 35 50c-21 7 -35 26 -35 50c0 23 14 43 35 50c-21 7 -35 26 -35 50c0 23 14 43 35 50
c-21 7 -35 26 -35 50zM85 37c0 29 22 53 52 53c23 0 43 -16 50 -37c7 21 26 37 50 37c23 0 43 -16 50 -37c7 21 26 37 50 37c29 0 53 -24 53 -53c0 -30 -24 -52 -53 -52c-24 0 -43 14 -50 35c-7 -21 -27 -35 -50 -35c-24 0 -43 14 -50 35c-7 -21 -27 -35 -50 -35
c-30 0 -52 22 -52 52zM85 637c0 29 22 53 52 53c23 0 43 -16 50 -37c7 21 26 37 50 37c23 0 43 -16 50 -37c7 21 26 37 50 37c29 0 53 -24 53 -53c0 -30 -24 -52 -53 -52c-24 0 -43 14 -50 35c-7 -21 -27 -35 -50 -35c-24 0 -43 14 -50 35c-7 -21 -27 -35 -50 -35
c-30 0 -52 22 -52 52z" />
    <glyph glyph-name="Ntilde" unicode="&#xd1;" 
d="M-15 637c0 29 22 53 52 53c29 0 53 -24 53 -53c0 -24 -16 -43 -37 -50c16 -5 29 -18 34 -34c7 21 26 37 50 37c29 0 53 -24 53 -53c0 -30 -24 -52 -53 -52c-24 0 -43 14 -50 35c-5 -16 -18 -28 -34 -33c21 -7 37 -27 37 -50c0 -24 -16 -43 -37 -50c21 -7 37 -27 37 -50
c0 -24 -16 -43 -37 -50c21 -7 37 -27 37 -50c0 -24 -16 -43 -37 -50c21 -7 37 -27 37 -50c0 -24 -16 -43 -37 -50c21 -7 37 -27 37 -50c0 -30 -24 -52 -53 -52c-30 0 -52 22 -52 52c0 23 14 43 35 50c-21 7 -35 26 -35 50c0 23 14 43 35 50c-21 7 -35 26 -35 50
c0 23 14 43 35 50c-21 7 -35 26 -35 50c0 23 14 43 35 50c-21 7 -35 26 -35 50c0 23 14 43 35 50c-21 7 -35 26 -35 50c0 23 14 43 35 50c-21 7 -35 26 -35 50zM385 637c0 29 22 53 52 53c29 0 53 -24 53 -53c0 -24 -16 -43 -37 -50c21 -7 37 -27 37 -50
c0 -24 -16 -43 -37 -50c21 -7 37 -27 37 -50c0 -24 -16 -43 -37 -50c21 -7 37 -27 37 -50c0 -24 -16 -43 -37 -50c21 -7 37 -27 37 -50c0 -24 -16 -43 -37 -50c21 -7 37 -27 37 -50c0 -24 -16 -43 -37 -50c21 -7 37 -27 37 -50c0 -30 -24 -52 -53 -52c-30 0 -52 22 -52 52
c0 23 14 43 35 50c-21 7 -35 26 -35 50c0 23 14 43 35 50c-16 5 -28 17 -33 33c-7 -21 -27 -35 -50 -35c-30 0 -52 22 -52 52c0 29 22 53 52 53c23 0 43 -16 50 -37c5 16 17 29 33 34c-21 7 -35 26 -35 50c0 23 14 43 35 50c-21 7 -35 26 -35 50c0 23 14 43 35 50
c-21 7 -35 26 -35 50c0 23 14 43 35 50c-21 7 -35 26 -35 50zM185 437c0 29 22 53 52 53c29 0 53 -24 53 -53c0 -24 -16 -43 -37 -50c21 -7 37 -27 37 -50c0 -30 -24 -52 -53 -52c-30 0 -52 22 -52 52c0 23 14 43 35 50c-21 7 -35 26 -35 50zM185 862c0 29 22 53 52 53
c23 0 43 -16 50 -37c7 21 26 37 50 37c29 0 53 -24 53 -53c0 -30 -24 -52 -53 -52c-24 0 -43 14 -50 35c-7 -21 -27 -35 -50 -35c-30 0 -52 22 -52 52zM-15 862c0 29 22 53 52 53c29 0 53 -24 53 -53c0 -30 -24 -52 -53 -52c-30 0 -52 22 -52 52zM85 962c0 29 22 53 52 53
c29 0 53 -24 53 -53c0 -30 -24 -52 -53 -52c-30 0 -52 22 -52 52zM385 962c0 29 22 53 52 53c29 0 53 -24 53 -53c0 -30 -24 -52 -53 -52c-30 0 -52 22 -52 52z" />
    <glyph glyph-name="atilde" unicode="&#xe3;" 
d="M385 337c0 29 22 53 52 53c29 0 53 -24 53 -53c0 -24 -16 -43 -37 -50c21 -7 37 -27 37 -50c0 -24 -16 -43 -37 -50c21 -7 37 -27 37 -50c0 -24 -16 -43 -37 -50c21 -7 37 -27 37 -50c0 -30 -24 -52 -53 -52c-24 0 -43 14 -50 35c-7 -21 -27 -35 -50 -35
c-24 0 -43 14 -50 35c-7 -21 -27 -35 -50 -35c-24 0 -43 14 -50 35c-7 -21 -27 -35 -50 -35c-30 0 -52 22 -52 52c0 29 22 53 52 53c23 0 43 -16 50 -37c7 21 26 37 50 37c23 0 43 -16 50 -37c7 21 26 37 50 37c23 0 43 -16 50 -37c5 16 17 29 33 34c-21 7 -35 26 -35 50
c0 23 14 43 35 50c-16 5 -28 17 -33 33c-7 -21 -27 -35 -50 -35c-24 0 -43 14 -50 35c-7 -21 -27 -35 -50 -35c-24 0 -43 14 -50 35c-7 -21 -27 -35 -50 -35c-30 0 -52 22 -52 52c0 29 22 53 52 53c23 0 43 -16 50 -37c7 21 26 37 50 37c23 0 43 -16 50 -37
c7 21 26 37 50 37c23 0 43 -16 50 -37c5 16 17 29 33 34c-21 7 -35 26 -35 50zM85 437c0 29 22 53 52 53c23 0 43 -16 50 -37c7 21 26 37 50 37c23 0 43 -16 50 -37c7 21 26 37 50 37c29 0 53 -24 53 -53c0 -30 -24 -52 -53 -52c-24 0 -43 14 -50 35c-7 -21 -27 -35 -50 -35
c-24 0 -43 14 -50 35c-7 -21 -27 -35 -50 -35c-30 0 -52 22 -52 52zM-15 137c0 29 22 53 52 53c29 0 53 -24 53 -53c0 -30 -24 -52 -53 -52c-30 0 -52 22 -52 52zM185 637c0 29 22 53 52 53c23 0 43 -16 50 -37c7 21 26 37 50 37c29 0 53 -24 53 -53c0 -30 -24 -52 -53 -52
c-24 0 -43 14 -50 35c-7 -21 -27 -35 -50 -35c-30 0 -52 22 -52 52zM-15 637c0 29 22 53 52 53c29 0 53 -24 53 -53c0 -30 -24 -52 -53 -52c-30 0 -52 22 -52 52zM85 737c0 29 22 53 52 53c29 0 53 -24 53 -53c0 -30 -24 -52 -53 -52c-30 0 -52 22 -52 52zM385 737
c0 29 22 53 52 53c29 0 53 -24 53 -53c0 -30 -24 -52 -53 -52c-30 0 -52 22 -52 52z" />
    <glyph glyph-name="aring" unicode="&#xe5;" 
d="M385 337c0 29 22 53 52 53c29 0 53 -24 53 -53c0 -24 -16 -43 -37 -50c21 -7 37 -27 37 -50c0 -24 -16 -43 -37 -50c21 -7 37 -27 37 -50c0 -24 -16 -43 -37 -50c21 -7 37 -27 37 -50c0 -30 -24 -52 -53 -52c-24 0 -43 14 -50 35c-7 -21 -27 -35 -50 -35
c-24 0 -43 14 -50 35c-7 -21 -27 -35 -50 -35c-24 0 -43 14 -50 35c-7 -21 -27 -35 -50 -35c-30 0 -52 22 -52 52c0 29 22 53 52 53c23 0 43 -16 50 -37c7 21 26 37 50 37c23 0 43 -16 50 -37c7 21 26 37 50 37c23 0 43 -16 50 -37c5 16 17 29 33 34c-21 7 -35 26 -35 50
c0 23 14 43 35 50c-16 5 -28 17 -33 33c-7 -21 -27 -35 -50 -35c-24 0 -43 14 -50 35c-7 -21 -27 -35 -50 -35c-24 0 -43 14 -50 35c-7 -21 -27 -35 -50 -35c-30 0 -52 22 -52 52c0 29 22 53 52 53c23 0 43 -16 50 -37c7 21 26 37 50 37c23 0 43 -16 50 -37
c7 21 26 37 50 37c23 0 43 -16 50 -37c5 16 17 29 33 34c-21 7 -35 26 -35 50zM85 437c0 29 22 53 52 53c23 0 43 -16 50 -37c7 21 26 37 50 37c23 0 43 -16 50 -37c7 21 26 37 50 37c29 0 53 -24 53 -53c0 -30 -24 -52 -53 -52c-24 0 -43 14 -50 35c-7 -21 -27 -35 -50 -35
c-24 0 -43 14 -50 35c-7 -21 -27 -35 -50 -35c-30 0 -52 22 -52 52zM-15 137c0 29 22 53 52 53c29 0 53 -24 53 -53c0 -30 -24 -52 -53 -52c-30 0 -52 22 -52 52zM185 637c0 29 22 53 52 53c29 0 53 -24 53 -53c0 -30 -24 -52 -53 -52c-30 0 -52 22 -52 52zM85 737
c0 29 22 53 52 53c29 0 53 -24 53 -53c0 -30 -24 -52 -53 -52c-30 0 -52 22 -52 52zM285 737c0 29 22 53 52 53c29 0 53 -24 53 -53c0 -30 -24 -52 -53 -52c-30 0 -52 22 -52 52zM185 837c0 29 22 53 52 53c29 0 53 -24 53 -53c0 -30 -24 -52 -53 -52c-30 0 -52 22 -52 52z
" />
    <glyph glyph-name="ntilde" unicode="&#xf1;" 
d="M-15 437c0 29 22 53 52 53c29 0 53 -24 53 -53c0 -24 -16 -43 -37 -50c16 -5 29 -18 34 -34c7 21 26 37 50 37c29 0 53 -24 53 -53c0 -30 -24 -52 -53 -52c-24 0 -43 14 -50 35c-5 -16 -18 -28 -34 -33c21 -7 37 -27 37 -50c0 -24 -16 -43 -37 -50c21 -7 37 -27 37 -50
c0 -24 -16 -43 -37 -50c21 -7 37 -27 37 -50c0 -30 -24 -52 -53 -52c-30 0 -52 22 -52 52c0 23 14 43 35 50c-21 7 -35 26 -35 50c0 23 14 43 35 50c-21 7 -35 26 -35 50c0 23 14 43 35 50c-21 7 -35 26 -35 50c0 23 14 43 35 50c-21 7 -35 26 -35 50zM385 337
c0 29 22 53 52 53c29 0 53 -24 53 -53c0 -24 -16 -43 -37 -50c21 -7 37 -27 37 -50c0 -24 -16 -43 -37 -50c21 -7 37 -27 37 -50c0 -24 -16 -43 -37 -50c21 -7 37 -27 37 -50c0 -30 -24 -52 -53 -52c-30 0 -52 22 -52 52c0 23 14 43 35 50c-21 7 -35 26 -35 50
c0 23 14 43 35 50c-21 7 -35 26 -35 50c0 23 14 43 35 50c-21 7 -35 26 -35 50zM185 437c0 29 22 53 52 53c23 0 43 -16 50 -37c7 21 26 37 50 37c29 0 53 -24 53 -53c0 -30 -24 -52 -53 -52c-24 0 -43 14 -50 35c-7 -21 -27 -35 -50 -35c-30 0 -52 22 -52 52zM185 637
c0 29 22 53 52 53c23 0 43 -16 50 -37c7 21 26 37 50 37c29 0 53 -24 53 -53c0 -30 -24 -52 -53 -52c-24 0 -43 14 -50 35c-7 -21 -27 -35 -50 -35c-30 0 -52 22 -52 52zM-15 637c0 29 22 53 52 53c29 0 53 -24 53 -53c0 -30 -24 -52 -53 -52c-30 0 -52 22 -52 52zM85 737
c0 29 22 53 52 53c29 0 53 -24 53 -53c0 -30 -24 -52 -53 -52c-30 0 -52 22 -52 52zM385 737c0 29 22 53 52 53c29 0 53 -24 53 -53c0 -30 -24 -52 -53 -52c-30 0 -52 22 -52 52z" />
    <glyph glyph-name="ograve" unicode="&#xf2;" 
d="M85 37c0 29 22 53 52 53c23 0 43 -16 50 -37c7 21 26 37 50 37c23 0 43 -16 50 -37c7 21 26 37 50 37c29 0 53 -24 53 -53c0 -30 -24 -52 -53 -52c-24 0 -43 14 -50 35c-7 -21 -27 -35 -50 -35c-24 0 -43 14 -50 35c-7 -21 -27 -35 -50 -35c-30 0 -52 22 -52 52zM-15 337
c0 29 22 53 52 53c29 0 53 -24 53 -53c0 -24 -16 -43 -37 -50c21 -7 37 -27 37 -50c0 -24 -16 -43 -37 -50c21 -7 37 -27 37 -50c0 -30 -24 -52 -53 -52c-30 0 -52 22 -52 52c0 23 14 43 35 50c-21 7 -35 26 -35 50c0 23 14 43 35 50c-21 7 -35 26 -35 50zM85 437
c0 29 22 53 52 53c23 0 43 -16 50 -37c7 21 26 37 50 37c23 0 43 -16 50 -37c7 21 26 37 50 37c29 0 53 -24 53 -53c0 -30 -24 -52 -53 -52c-24 0 -43 14 -50 35c-7 -21 -27 -35 -50 -35c-24 0 -43 14 -50 35c-7 -21 -27 -35 -50 -35c-30 0 -52 22 -52 52zM385 337
c0 29 22 53 52 53c29 0 53 -24 53 -53c0 -24 -16 -43 -37 -50c21 -7 37 -27 37 -50c0 -24 -16 -43 -37 -50c21 -7 37 -27 37 -50c0 -30 -24 -52 -53 -52c-30 0 -52 22 -52 52c0 23 14 43 35 50c-21 7 -35 26 -35 50c0 23 14 43 35 50c-21 7 -35 26 -35 50zM185 637
c0 29 22 53 52 53c23 0 43 -16 50 -37c7 21 26 37 50 37c29 0 53 -24 53 -53c0 -30 -24 -52 -53 -52c-24 0 -43 14 -50 35c-7 -21 -27 -35 -50 -35c-30 0 -52 22 -52 52zM85 737c0 29 22 53 52 53c29 0 53 -24 53 -53c0 -30 -24 -52 -53 -52c-30 0 -52 22 -52 52z" />
    <glyph glyph-name="cent" unicode="&#xa2;" 
d="M185 -63c0 23 14 44 35 51c-16 5 -28 16 -33 32c-7 -21 -27 -35 -50 -35c-30 0 -52 22 -52 52c0 29 22 53 52 53c23 0 43 -16 50 -37c5 16 17 29 33 34c-21 7 -35 26 -35 50c0 23 14 43 35 50c-21 7 -35 26 -35 50c0 23 14 43 35 50c-21 7 -35 26 -35 50
c0 23 14 43 35 50c-16 5 -28 17 -33 33c-7 -21 -27 -35 -50 -35c-30 0 -52 22 -52 52c0 29 22 53 52 53c23 0 43 -16 50 -37c5 16 17 29 33 34c-21 7 -35 26 -35 50c0 29 22 53 52 53c29 0 53 -24 53 -53c0 -24 -16 -43 -37 -50c16 -5 29 -18 34 -34c7 21 26 37 50 37
c29 0 53 -24 53 -53c0 -30 -24 -52 -53 -52c-24 0 -43 14 -50 35c-5 -16 -18 -28 -34 -33c21 -7 37 -27 37 -50c0 -24 -16 -43 -37 -50c21 -7 37 -27 37 -50c0 -24 -16 -43 -37 -50c21 -7 37 -27 37 -50c0 -24 -16 -43 -37 -50c16 -5 29 -18 34 -34c7 21 26 37 50 37
c29 0 53 -24 53 -53c0 -30 -24 -52 -53 -52c-24 0 -43 14 -50 35c-5 -16 -18 -27 -34 -32c21 -7 37 -28 37 -51c0 -30 -24 -52 -53 -52c-30 0 -52 22 -52 52zM-15 337c0 29 22 53 52 53c29 0 53 -24 53 -53c0 -24 -16 -43 -37 -50c21 -7 37 -27 37 -50
c0 -24 -16 -43 -37 -50c21 -7 37 -27 37 -50c0 -30 -24 -52 -53 -52c-30 0 -52 22 -52 52c0 23 14 43 35 50c-21 7 -35 26 -35 50c0 23 14 43 35 50c-21 7 -35 26 -35 50zM385 337c0 29 22 53 52 53c29 0 53 -24 53 -53c0 -30 -24 -52 -53 -52c-30 0 -52 22 -52 52zM385 137
c0 29 22 53 52 53c29 0 53 -24 53 -53c0 -30 -24 -52 -53 -52c-30 0 -52 22 -52 52z" />
    </font>
</defs>
</svg>
